<svg width="32" height="32" viewBox="0 0 32 32" fill="none" xmlns="http://www.w3.org/2000/svg">
<g clip-path="url(#clip0_2228_467)">
<path d="M9.01774 8.53468V9.40612L7.78438 10.3523C7.53117 10.5121 7.34627 10.7603 7.2655 11.0488C7.18473 11.3373 7.21384 11.6455 7.34719 11.9137L7.74883 12.9808C7.86809 13.2557 8.07525 13.4832 8.33776 13.6274C8.60027 13.7716 8.90323 13.8244 9.19901 13.7776L10.834 13.5606C11.0101 13.7486 11.2042 13.919 11.4134 14.0692C11.5236 14.2151 11.2677 15.5205 11.2321 15.7766C11.2162 16.0645 11.2896 16.3503 11.4423 16.5948C11.595 16.8393 11.8196 17.0306 12.0852 17.1424L13.1515 17.5764C13.4233 17.6672 13.7168 17.6708 13.9908 17.5866C14.2648 17.5024 14.5057 17.3347 14.6798 17.1068L15.5862 15.7623C15.9011 15.7801 16.2168 15.7801 16.5317 15.7623L17.5482 17.0713C17.7221 17.3081 17.9703 17.4798 18.2531 17.5591C18.5359 17.6384 18.837 17.6207 19.1086 17.5088L20.1749 17.0357C20.43 16.906 20.6367 16.6977 20.7647 16.4416C20.8926 16.1855 20.9351 15.895 20.8858 15.6129L20.6689 13.9412L21.2874 13.3258L22.8478 13.5428C23.1453 13.6076 23.4563 13.5622 23.723 13.4151C23.9897 13.2679 24.1939 13.0289 24.298 12.7425L24.6534 11.7288C24.7883 11.4583 24.8224 11.1484 24.7494 10.855C24.6764 10.5616 24.5012 10.3039 24.2553 10.1282L22.9118 9.15002V8.24301L24.1842 7.30043C24.4321 7.12396 24.6115 6.86713 24.6918 6.57346C24.7721 6.2798 24.7485 5.96737 24.625 5.68914L24.1913 4.67187C24.0784 4.3982 23.8768 4.17048 23.6189 4.02532C23.3611 3.88016 23.0619 3.82601 22.7696 3.87156L21.1026 4.08853C20.9213 3.90713 20.7009 3.69016 20.4841 3.50875L20.7009 1.87613C20.7267 1.58152 20.6602 1.28618 20.5105 1.03119C20.3608 0.776197 20.1354 0.574226 19.8657 0.453363L18.8384 0.0727725C18.5559 -0.0198217 18.2519 -0.0241553 17.9668 0.0603478C17.6817 0.144851 17.4291 0.314187 17.2425 0.545842L16.3504 1.89036C16.0495 1.85122 15.7449 1.85122 15.444 1.89036L14.4275 0.581412C14.2536 0.344585 14.0031 0.175431 13.7185 0.102786C13.434 0.0301412 13.1331 0.0585032 12.8671 0.183037L11.8506 0.616981C11.5754 0.725085 11.3475 0.927458 11.2076 1.18803C11.0676 1.4486 11.0247 1.75044 11.0864 2.03975L11.2677 3.7115L10.6634 4.28416L9.06395 4.06719C8.7683 4.03229 8.46936 4.09508 8.21268 4.24599C7.956 4.39689 7.75567 4.62764 7.6422 4.90307L7.28677 5.92034C7.1469 6.19269 7.11383 6.50753 7.19407 6.80303C7.2743 7.09853 7.46203 7.35333 7.7204 7.5174L9.01774 8.53468ZM31.6661 19.5042C31.3362 18.9394 30.7974 18.5272 30.1662 18.3568C29.535 18.1864 28.8621 18.2715 28.2931 18.5936L27.1663 19.2481C26.7947 18.7503 26.2555 18.4041 25.6485 18.2733C25.0415 18.1425 24.4077 18.2361 23.8643 18.5367L18.6003 21.6099L13.5922 20.2725C11.8506 19.7994 10.6137 19.7283 8.97153 20.6709L5.20746 22.8442L5.02619 22.5169C4.82487 22.1886 4.50358 21.9519 4.13057 21.8569C3.75757 21.7619 3.36226 21.8162 3.02864 22.0083L0.305994 23.6053C0.235587 23.6447 0.173873 23.6979 0.124575 23.7618C0.0752765 23.8256 0.0394155 23.8988 0.0191545 23.9769C-0.0011065 24.055 -0.00534768 24.1364 0.006687 24.2162C0.0187217 24.296 0.0467828 24.3726 0.0891777 24.4412C0.127095 24.5176 0.180379 24.5853 0.245685 24.6401C0.310991 24.6949 0.386909 24.7356 0.468677 24.7596C0.550445 24.7837 0.636296 24.7906 0.720845 24.7798C0.805393 24.7691 0.886814 24.741 0.959997 24.6973L3.6471 23.0967C3.79283 23.0256 3.89946 23.1714 3.935 23.1714L8.83647 31.6546C8.87346 31.7319 8.92634 31.8004 8.99164 31.8558C9.05693 31.9112 9.13318 31.9521 9.21539 31.976C9.2976 31.9998 9.38391 32.006 9.46868 31.9941C9.55345 31.9823 9.63476 31.9527 9.70729 31.9072C9.84974 31.8188 9.95211 31.6783 9.9926 31.5155C10.0331 31.3528 10.0085 31.1806 9.9241 31.0357L5.82237 23.9681L9.6362 21.7913C10.8696 21.0266 11.8115 21.1013 13.2652 21.4996L20.5588 23.4239C20.8683 23.5235 21.1296 23.7351 21.2913 24.0174C21.4531 24.2997 21.5037 24.6322 21.4331 24.9499C21.2483 25.6399 20.4877 25.8569 19.8692 25.7857L14.2462 24.9854C14.0821 24.9752 13.9198 25.0246 13.7892 25.1246C13.6586 25.2246 13.5684 25.3684 13.5353 25.5296C13.5205 25.6954 13.5685 25.8606 13.67 25.9925C13.7714 26.1243 13.9188 26.213 14.0827 26.241L19.727 27.0555C20.9959 27.2014 22.304 26.586 22.6665 25.2771C22.7997 24.6647 22.7088 24.0248 22.4106 23.4737L28.9435 19.7212C29.2144 19.5695 29.5326 19.5263 29.8341 19.6003C30.1355 19.6742 30.3977 19.8598 30.5679 20.1196C30.7103 20.4201 30.7334 20.7636 30.6324 21.0805C30.5315 21.3975 30.314 21.6642 30.024 21.8269L20.0505 29.1257C19.4711 29.6343 19.073 29.7801 17.8006 29.6343L13.6278 29.1257C12.2487 28.9798 11.5236 28.9798 10.8696 29.1612C10.7851 29.1741 10.7044 29.2052 10.6331 29.2524C10.5618 29.2995 10.5016 29.3616 10.4567 29.4343C10.4117 29.507 10.3831 29.5887 10.3727 29.6736C10.3624 29.7585 10.3706 29.8446 10.3968 29.926C10.4412 30.0867 10.5446 30.2247 10.6863 30.3124C10.828 30.4001 10.9975 30.4311 11.161 30.399C11.6693 30.2532 12.2842 30.2532 13.482 30.399L17.6548 30.9077C18.9273 31.05 19.8337 31.0144 20.8538 30.1429L30.806 22.8797C31.9683 22.0083 32.3308 20.6282 31.6768 19.5042H31.6661ZM20.3064 22.051L24.4792 19.6536C24.7294 19.5113 25.0207 19.4591 25.3046 19.5057C25.5886 19.5523 25.848 19.6949 26.0396 19.9097L21.5042 22.5169C21.3209 22.3772 21.1102 22.2778 20.8858 22.2253L20.3064 22.051ZM14.2462 12.8563C15.3146 13.3057 16.5173 13.3137 17.5916 12.8785C18.6658 12.4432 19.5243 11.6003 19.9794 10.5337C20.0463 10.3794 20.0494 10.2049 19.9881 10.0482C19.9269 9.89164 19.8062 9.76565 19.6524 9.69779C19.4942 9.63828 19.3191 9.64203 19.1636 9.70826C19.0081 9.7745 18.884 9.89812 18.8171 10.0535C18.6604 10.4329 18.4298 10.7772 18.1387 11.0664C17.8476 11.3557 17.5018 11.584 17.1216 11.738C16.7413 11.892 16.3343 11.9687 15.9241 11.9636C15.5139 11.9585 15.1088 11.8717 14.7325 11.7082C14.3563 11.5447 14.0163 11.3079 13.7325 11.0115C13.4486 10.7151 13.2267 10.3651 13.0795 9.98195C12.9323 9.59877 12.8629 9.1901 12.8752 8.77977C12.8876 8.36945 12.9815 7.9657 13.1515 7.5921C13.311 7.21788 13.5434 6.87914 13.835 6.59558C14.1265 6.31202 14.4715 6.08929 14.8499 5.94035C15.2282 5.79142 15.6324 5.71924 16.0389 5.72802C16.4454 5.73679 16.8461 5.82635 17.2177 5.99148C17.3761 6.04749 17.5498 6.04203 17.7044 5.97618C17.859 5.91033 17.9834 5.78888 18.0529 5.63579C18.1198 5.48149 18.1229 5.30698 18.0617 5.15037C18.0004 4.99376 17.8797 4.86777 17.7259 4.79992C16.6586 4.35279 15.4581 4.34477 14.3848 4.77757C13.3116 5.21037 12.4521 6.04912 11.9927 7.11191C11.7635 7.6366 11.64 8.20138 11.6293 8.77391C11.6185 9.34645 11.7207 9.91548 11.93 10.4484C12.1394 10.9814 12.4517 11.4677 12.8491 11.8797C13.2466 12.2917 13.7213 12.6211 14.2462 12.8492V12.8563ZM8.88623 5.33345L10.4857 5.55043C10.6971 5.58825 10.9146 5.57115 11.1175 5.50078C11.3203 5.43041 11.5018 5.30911 11.6444 5.14849L12.174 4.62207C12.3291 4.47526 12.4465 4.29324 12.5164 4.09141C12.5864 3.88958 12.6067 3.67386 12.5757 3.46251L12.3197 1.82633C12.6721 1.64355 13.0367 1.48548 13.4109 1.35326L14.4275 2.66221C14.5562 2.84439 14.7321 2.98801 14.9362 3.07764C15.1404 3.16726 15.3651 3.19948 15.5862 3.17085C15.8147 3.13511 16.0473 3.13511 16.2758 3.17085C16.4881 3.17563 16.6985 3.12857 16.8886 3.03375C17.0787 2.93893 17.2429 2.7992 17.3669 2.62664L18.2733 1.31769C18.2733 1.31769 18.3444 1.24655 18.3835 1.28212L19.4498 1.71962L19.2685 3.35225C19.2378 3.58113 19.265 3.81406 19.3476 4.0297C19.4302 4.24533 19.5656 4.43678 19.7413 4.5865C19.9225 4.73233 20.0647 4.87817 20.1749 4.98488C20.327 5.15587 20.5198 5.28564 20.7354 5.36212C20.9511 5.43861 21.1825 5.45933 21.4083 5.42238L23.0433 5.16628L23.4413 6.29382L22.1724 7.27553C21.9975 7.41281 21.8572 7.58922 21.7628 7.7906C21.6683 7.99198 21.6224 8.21272 21.6286 8.43508C21.6642 8.65561 21.6642 8.90815 21.6997 9.05399C21.6518 9.28567 21.6786 9.5266 21.7764 9.74203C21.8741 9.95746 22.0377 10.1363 22.2435 10.2527L23.516 11.2344L23.0788 12.3015L21.4083 12.0809C21.2056 12.0661 21.0023 12.0978 20.8138 12.1736C20.6253 12.2494 20.4566 12.3674 20.3206 12.5184L19.8337 13.0022C19.655 13.1401 19.5194 13.3261 19.4426 13.5384C19.3658 13.7507 19.351 13.9805 19.4 14.2008L19.6169 15.9082L18.5505 16.3065L17.4842 14.9976C17.3759 14.8177 17.2169 14.6739 17.0272 14.584C16.8376 14.4942 16.6256 14.4624 16.4179 14.4925C16.1647 14.5103 15.9105 14.5103 15.6573 14.4925C15.4471 14.4971 15.2405 14.5483 15.0524 14.6424C14.8643 14.7365 14.6995 14.8712 14.5697 15.0367L13.6597 16.3065C13.5887 16.3777 13.5176 16.3777 13.5531 16.4168L12.4619 15.9082L12.6823 14.3076C12.7129 14.1109 12.6967 13.9099 12.6349 13.7207C12.5732 13.5316 12.4676 13.3597 12.3269 13.2191C12.1483 13.0323 11.9532 12.862 11.7439 12.7105C11.6049 12.5316 11.4204 12.3933 11.2097 12.3101C10.999 12.2269 10.7698 12.2018 10.5461 12.2374L8.91466 12.4935L8.50947 11.3802L9.81747 10.4021C9.98629 10.2788 10.1189 10.1125 10.2014 9.92035C10.284 9.72825 10.3134 9.51747 10.2866 9.31009V8.60582C10.3151 8.37579 10.2793 8.14238 10.1833 7.93144C10.0873 7.7205 9.93487 7.54026 9.74283 7.41069L8.43838 6.42898L8.88623 5.33345Z" fill="white"/>
</g>
<defs>
<clipPath id="clip0_2228_467">
<rect width="32" height="32" fill="white"/>
</clipPath>
</defs>
</svg>
