<svg width="32" height="32" viewBox="0 0 32 32" fill="none" xmlns="http://www.w3.org/2000/svg">
<path d="M31.5312 28.0568H29.4949V10.9903C29.4949 9.90305 28.6104 9.01855 27.5232 9.01855H21.5113C21.2524 9.01855 21.0426 9.22843 21.0426 9.4873C21.0426 9.74618 21.2524 9.95605 21.5113 9.95605H27.5232C28.0935 9.95605 28.5574 10.4201 28.5574 10.9903V28.0569H26.953C26.9772 27.8799 26.9899 27.7017 26.9899 27.5236C26.9899 25.3314 25.2063 23.5478 23.0141 23.5478C22.7193 23.5478 22.425 23.5815 22.1349 23.6482C21.6291 22.6737 20.6217 22.0447 19.5071 22.0447C19.1434 22.0447 18.7903 22.1111 18.4578 22.2399C18.3212 21.0046 17.2711 20.0407 16 20.0407C14.7289 20.0407 13.6788 21.0046 13.5422 22.2399C13.2097 22.1111 12.8566 22.0447 12.4929 22.0447C11.3783 22.0447 10.3708 22.6737 9.86512 23.6482C9.57494 23.5814 9.28069 23.5478 8.98594 23.5478C6.79362 23.5478 5.01013 25.3314 5.01013 27.5236C5.01013 27.7018 5.02281 27.8799 5.047 28.0569H3.44256V10.9903C3.44256 10.42 3.9065 9.95605 4.47681 9.95605H10.4889C10.7478 9.95605 10.9576 9.74618 10.9576 9.4873C10.9576 9.22843 10.7478 9.01855 10.4889 9.01855H4.47681C3.38956 9.01855 2.50506 9.90312 2.50506 10.9903V28.0569H0.46875C0.209875 28.0569 0 28.2667 0 28.5256V29.5276C0 30.3386 0.659812 30.9984 1.47075 30.9984H30.5292C31.3403 30.9984 32 30.3386 32 29.5276V28.5256C32 28.2667 31.7901 28.0568 31.5312 28.0568ZM31.0625 29.5276C31.0625 29.8217 30.8232 30.0609 30.5292 30.0609H1.47075C1.17669 30.0609 0.9375 29.8216 0.9375 29.5276V28.9944H6.98169C7.24056 28.9944 7.45044 28.7845 7.45044 28.5256C7.45044 28.2667 7.24056 28.0569 6.98169 28.0569H5.99556C5.96375 27.8802 5.94756 27.7018 5.94756 27.5236C5.94756 25.8483 7.31056 24.4853 8.98588 24.4853C9.31956 24.4853 9.65369 24.5424 9.979 24.6551C10.0968 24.6959 10.2259 24.6881 10.338 24.6334C10.45 24.5787 10.5356 24.4817 10.576 24.3638C10.8586 23.5375 11.6289 22.9823 12.493 22.9823C12.9668 22.9823 13.4168 23.15 13.7944 23.4673C13.9539 23.6012 14.1825 23.614 14.3558 23.4986C14.5291 23.3831 14.6055 23.1672 14.5434 22.9686C14.4897 22.7969 14.4648 22.6524 14.4648 22.5136C14.4648 21.667 15.1535 20.9783 16 20.9783C16.8465 20.9783 17.5352 21.6671 17.5352 22.5136C17.5352 22.6524 17.5103 22.7969 17.4566 22.9686C17.3945 23.1673 17.4709 23.3832 17.6442 23.4986C17.8175 23.6139 18.0461 23.6012 18.2056 23.4673C18.5832 23.1501 19.0333 22.9823 19.507 22.9823C20.3711 22.9823 21.1414 23.5375 21.424 24.3638C21.4644 24.4817 21.55 24.5787 21.662 24.6334C21.7741 24.6881 21.9032 24.6959 22.021 24.6551C22.3463 24.5424 22.6804 24.4853 23.0141 24.4853C24.6895 24.4853 26.0524 25.8483 26.0524 27.5236C26.0524 27.7018 26.0362 27.8802 26.0044 28.0569H8.98606C8.72719 28.0569 8.51731 28.2667 8.51731 28.5256C8.51731 28.7845 8.72719 28.9944 8.98606 28.9944H31.0625V29.5276Z" fill="white"/>
<path d="M9.97616 14.7808C9.68148 15.1344 9.51917 15.5827 9.51917 16.0431V17.503C9.51917 17.6696 9.60766 17.8237 9.75154 17.9078C9.82454 17.9504 9.90623 17.9717 9.98792 17.9717C10.0674 17.9717 10.1468 17.9516 10.2183 17.9112L13.5564 16.0277C13.6836 16.2599 13.8185 16.4884 13.9609 16.7127L13.5413 18.3913C13.5062 18.5314 13.5377 18.6797 13.6265 18.7935C13.7154 18.9073 13.8517 18.9738 13.996 18.9738H18.0041C18.1485 18.9738 18.2847 18.9073 18.3736 18.7935C18.4624 18.6797 18.4939 18.5314 18.4589 18.3913L18.0392 16.7127C18.1817 16.4884 18.3165 16.26 18.4437 16.0277L21.7819 17.9112C21.8534 17.9516 21.9328 17.9717 22.0122 17.9717C22.0939 17.9717 22.1756 17.9504 22.2486 17.9078C22.3925 17.8238 22.481 17.6697 22.481 17.503V16.0431C22.481 15.5827 22.3187 15.1344 22.024 14.7808L19.7987 12.1114C19.9159 11.415 19.9759 10.7051 19.9759 9.98786C19.9759 8.27842 19.645 6.62605 18.9923 5.07673C18.3628 3.58248 17.4667 2.25686 16.329 1.13667C16.1465 0.957047 15.8537 0.957047 15.6713 1.13667C14.5335 2.2568 13.6375 3.58242 13.008 5.07673C12.3553 6.62611 12.0244 8.27842 12.0244 9.98786C12.0244 10.704 12.0842 11.4129 12.201 12.1081L9.97616 14.7808ZM10.4567 16.7002V16.0431C10.4567 15.8016 10.5418 15.5665 10.6964 15.381L12.4534 13.2726C12.6289 13.9294 12.8571 14.5699 13.1369 15.188L10.4567 16.7002ZM14.5964 18.0362L14.863 16.9697H17.137L17.4037 18.0362H14.5964ZM21.3036 15.381C21.4582 15.5665 21.5433 15.8016 21.5433 16.0431V16.7002L18.8631 15.1879C19.1428 14.5698 19.371 13.9294 19.5466 13.2725L21.3036 15.381ZM16 2.14305C16.7872 2.98923 17.4364 3.95948 17.9299 5.01005H14.0701C14.5635 3.95948 15.2128 2.98923 16 2.14305ZM13.6795 5.94748H18.3204C18.7891 7.2253 19.0382 8.59523 19.0382 9.9878C19.0382 12.1433 18.4584 14.2274 17.3587 16.0322H14.6412C13.5415 14.2274 12.9617 12.1433 12.9617 9.9878C12.9617 8.59523 13.2109 7.22536 13.6795 5.94748Z" fill="white"/>
<path d="M17.9717 9.4864C17.9717 8.39915 17.0872 7.51465 15.9999 7.51465C14.9127 7.51465 14.0282 8.39921 14.0282 9.4864C14.0282 10.5736 14.9127 11.4581 15.9999 11.4581C17.0872 11.4581 17.9717 10.5736 17.9717 9.4864ZM14.9657 9.4864C14.9657 8.91609 15.4296 8.45215 15.9999 8.45215C16.5703 8.45215 17.0342 8.91615 17.0342 9.4864C17.0342 10.0566 16.5703 10.5206 15.9999 10.5206C15.4296 10.5206 14.9657 10.0567 14.9657 9.4864Z" fill="white"/>
</svg>
