<svg width="32" height="32" viewBox="0 0 32 32" fill="none" xmlns="http://www.w3.org/2000/svg">
<g clip-path="url(#clip0_2228_247)">
<path d="M18.6165 12.5894C18.0987 12.5894 17.679 12.1696 17.679 11.6519C17.679 8.32862 14.9753 5.625 11.652 5.625C11.1343 5.625 10.7145 5.20525 10.7145 4.6875C10.7145 4.16975 11.1343 3.75 11.652 3.75C16.0091 3.75 19.554 7.29475 19.554 11.6519C19.554 12.1696 19.1342 12.5894 18.6165 12.5894Z" fill="white"/>
<path d="M29.0739 31.7254C28.7078 32.0915 28.1142 32.0916 27.7481 31.7254L20.3773 24.3546C20.0112 23.9884 20.0112 23.3949 20.3773 23.0287L21.0399 22.3661L19.201 20.5269C17.0956 22.3169 14.4494 23.3037 11.6516 23.3037C5.22694 23.3037 6.29425e-05 18.0766 6.29425e-05 11.6516C0.000125885 5.22688 5.227 0 11.6517 0C18.0767 0 23.3039 5.22688 23.3039 11.6516C23.3039 14.4563 22.3124 17.1009 20.5268 19.2011L22.3657 21.0403L23.0289 20.3771C23.3948 20.0112 23.9887 20.0111 24.3547 20.3771L31.7255 27.7479C32.0914 28.1138 32.0916 28.7077 31.7255 29.0737L29.0739 31.7254ZM21.4289 11.6516C21.4289 6.26075 17.0428 1.875 11.6517 1.875C6.26088 1.875 1.87513 6.26075 1.87513 11.6516C1.87513 17.0428 6.26088 21.4287 11.6517 21.4287C17.0428 21.4287 21.4289 17.0596 21.4289 11.6516ZM23.6918 22.3659L22.366 23.6917L28.4109 29.7366L29.7368 28.4108L23.6918 22.3659Z" fill="white"/>
</g>
<defs>
<clipPath id="clip0_2228_247">
<rect width="32" height="32" fill="white" transform="matrix(-1 0 0 1 32 0)"/>
</clipPath>
</defs>
</svg>
