<svg width="32" height="32" viewBox="0 0 32 32" fill="none" xmlns="http://www.w3.org/2000/svg">
<path d="M27.9484 4.1614H27.5687C28.2925 2.98311 28.0252 1.4012 26.8637 0.539408C25.6121 -0.389074 23.8336 -0.0902051 22.9602 1.21502L20.9886 4.16146H4.05162C2.65946 4.16146 1.52686 5.29407 1.52686 6.68623V22.828C1.52686 24.2202 2.65946 25.3528 4.05162 25.3528H13.8586L13.1176 28.4651H11.5183C10.476 28.4651 9.62801 29.313 9.62801 30.3553V30.7499H7.65649C7.3113 30.7499 7.0315 31.0298 7.0315 31.3749C7.0315 31.7201 7.3113 31.9999 7.65649 31.9999H24.3436C24.6888 31.9999 24.9686 31.7201 24.9686 31.3749C24.9686 31.0298 24.6888 30.7499 24.3436 30.7499H22.3721V30.3553C22.3721 29.313 21.5241 28.4651 20.4818 28.4651H18.8825L18.1415 25.3528H27.9485C29.3406 25.3528 30.4732 24.2202 30.4732 22.828V19.2762V6.68616C30.4732 5.294 29.3406 4.1614 27.9484 4.1614ZM18.9935 15.1486C18.0163 15.8327 16.1856 14.9029 14.4374 15.8357C14.0109 13.6198 14.2798 11.5358 16.5001 11.0758C16.787 11.016 17.0959 10.989 17.3589 10.9942C18.1104 11.5518 18.8705 12.1157 19.6199 12.6717C19.9479 13.626 19.8248 14.5667 18.9935 15.1486ZM19.6233 8.4495L21.3925 9.7621L20.0319 11.4209C19.4718 11.0053 18.9903 10.6481 18.4302 10.2325C18.5465 10.0587 19.517 8.60831 19.6233 8.4495ZM23.9991 1.91019C24.4725 1.20264 25.4379 1.03802 26.1189 1.54333C26.8001 2.04869 26.9221 3.0203 26.3823 3.67847C25.4245 4.84614 23.1474 7.6224 22.186 8.79456L20.3192 7.40946L23.9991 1.91019ZM21.122 30.3553V30.7499H10.878V30.3553C10.878 30.0023 11.1652 29.715 11.5183 29.715H20.4817C20.8348 29.715 21.122 30.0023 21.122 30.3553ZM17.5975 28.4651H14.4025L15.1435 25.3528H16.8566L17.5975 28.4651ZM29.2233 22.828C29.2233 23.531 28.6514 24.1028 27.9485 24.1028C26.9564 24.1028 5.16716 24.1028 4.05168 24.1028C3.34876 24.1028 2.77689 23.531 2.77689 22.828V19.9012H4.56286C4.90804 19.9012 5.18785 19.6213 5.18785 19.2762C5.18785 18.9311 4.90804 18.6512 4.56286 18.6512H2.77677V6.68616C2.77677 5.98324 3.34863 5.41138 4.05156 5.41138H20.1522C19.5534 6.30617 17.8067 8.91662 17.2534 9.74342C16.0286 9.75448 14.8058 10.1812 14.0053 11.1156C12.916 12.3872 12.7246 14.3851 13.4365 17.054C13.5582 17.5103 14.1276 17.6738 14.4722 17.3447C16.0882 15.8005 18.1009 17.4849 19.9033 16.026C21.0035 15.1354 21.2639 13.7196 20.849 12.3956C21.4098 11.7119 26.0154 6.09674 26.5776 5.41138H27.9483C28.6513 5.41138 29.2231 5.98324 29.2231 6.68616V18.6512H9.56264C9.21746 18.6512 8.93765 18.931 8.93765 19.2762C8.93765 19.6213 9.21746 19.9012 9.56264 19.9012H29.2233V22.828Z" fill="white"/>
<path d="M6.94207 18.6636C6.6412 18.7251 6.43958 18.9852 6.43958 19.2768C6.43958 19.6677 6.79701 19.9671 7.18645 19.8893C7.53251 19.819 7.74332 19.4855 7.67707 19.1543C7.60751 18.8124 7.27589 18.5964 6.94207 18.6636Z" fill="white"/>
</svg>
