<svg width="32" height="32" viewBox="0 0 32 32" fill="none" xmlns="http://www.w3.org/2000/svg">
<path fill-rule="evenodd" clip-rule="evenodd" d="M30.3334 8.00033C30.3334 6.32033 29.6667 4.70966 28.4787 3.52166C27.2907 2.33366 25.6801 1.66699 24.0001 1.66699H8.00008C6.32008 1.66699 4.70941 2.33366 3.52141 3.52166C2.33341 4.70966 1.66675 6.32033 1.66675 8.00033V24.0003C1.66675 25.6803 2.33341 27.291 3.52141 28.479C4.70941 29.667 6.32008 30.3337 8.00008 30.3337H24.0001C25.6801 30.3337 27.2907 29.667 28.4787 28.479C29.6667 27.291 30.3334 25.6803 30.3334 24.0003V8.00033ZM28.3334 8.00033V24.0003C28.3334 25.1497 27.8774 26.2523 27.0641 27.0643C26.2521 27.8777 25.1494 28.3337 24.0001 28.3337H8.00008C6.85075 28.3337 5.74808 27.8777 4.93608 27.0643C4.12275 26.2523 3.66675 25.1497 3.66675 24.0003V8.00033C3.66675 6.85099 4.12275 5.74833 4.93608 4.93633C5.74808 4.12299 6.85075 3.66699 8.00008 3.66699H24.0001C25.1494 3.66699 26.2521 4.12299 27.0641 4.93633C27.8774 5.74833 28.3334 6.85099 28.3334 8.00033Z" fill="white"/>
<path fill-rule="evenodd" clip-rule="evenodd" d="M16.6507 10.8845L13.4507 20.4845C13.2773 21.0085 13.56 21.5752 14.084 21.7499C14.608 21.9232 15.1747 21.6405 15.3493 21.1165L18.5493 11.5165C18.7227 10.9925 18.44 10.4259 17.916 10.2512C17.392 10.0779 16.8253 10.3605 16.6507 10.8845Z" fill="white"/>
<path fill-rule="evenodd" clip-rule="evenodd" d="M20.0933 13.5071L22.5853 16.0004L20.0933 18.4938C19.7026 18.8831 19.7026 19.5178 20.0933 19.9071C20.4826 20.2978 21.1173 20.2978 21.5066 19.9071L24.7066 16.7071C25.0973 16.3164 25.0973 15.6844 24.7066 15.2938L21.5066 12.0938C21.1173 11.7031 20.4826 11.7031 20.0933 12.0938C19.7026 12.4831 19.7026 13.1178 20.0933 13.5071Z" fill="white"/>
<path fill-rule="evenodd" clip-rule="evenodd" d="M10.4935 12.0938L7.29349 15.2938C6.90282 15.6844 6.90282 16.3164 7.29349 16.7071L10.4935 19.9071C10.8828 20.2978 11.5175 20.2978 11.9068 19.9071C12.2975 19.5178 12.2975 18.8831 11.9068 18.4938L9.41482 16.0004L11.9068 13.5071C12.2975 13.1178 12.2975 12.4831 11.9068 12.0938C11.5175 11.7031 10.8828 11.7031 10.4935 12.0938Z" fill="white"/>
</svg>
