<svg width="16" height="17" viewBox="0 0 16 17" fill="none" xmlns="http://www.w3.org/2000/svg">
<path d="M15.9688 8.5C15.9688 10.0791 15.5 11.6147 14.6133 12.941C14.4928 13.1213 14.2948 13.2188 14.0931 13.2188C13.9738 13.2188 13.853 13.1847 13.7463 13.1133C13.4594 12.9215 13.3823 12.5333 13.5741 12.2463C14.323 11.1263 14.7188 9.83094 14.7188 8.5C14.7188 7.9281 14.6472 7.36011 14.5061 6.81201C14.42 6.47779 14.6213 6.13696 14.9556 6.05091C15.29 5.96497 15.6306 6.16614 15.7167 6.50037C15.8839 7.15027 15.9688 7.823 15.9688 8.5ZM11.4605 14.278C10.4106 14.9138 9.20325 15.25 7.96875 15.25C4.24683 15.25 1.21875 12.2219 1.21875 8.5C1.21875 4.77808 4.24683 1.75 7.96875 1.75C9.34681 1.75 10.6719 2.16235 11.8009 2.94251C12.0848 3.13867 12.4741 3.06751 12.6704 2.78357C12.8666 2.49963 12.7955 2.11035 12.5115 1.91406C11.1726 0.989014 9.60181 0.5 7.96875 0.5C5.83191 0.5 3.82288 1.33215 2.31189 2.84314C0.800904 4.35413 -0.03125 6.36316 -0.03125 8.5C-0.03125 10.6368 0.800904 12.6459 2.31189 14.1569C3.82288 15.6679 5.83191 16.5 7.96875 16.5C9.43164 16.5 10.863 16.1013 12.1082 15.3471C12.4034 15.1682 12.4978 14.7839 12.319 14.4887C12.14 14.1934 11.7557 14.0991 11.4605 14.278ZM8.02906 10.3123C7.93006 10.3162 7.83765 10.281 7.76587 10.2127L4.49256 7.10901C4.24207 6.87146 3.84644 6.88196 3.60901 7.13245C3.37146 7.38294 3.38196 7.77857 3.63245 8.01599L6.90515 11.1191C7.2074 11.4065 7.59839 11.5625 8.0127 11.5625C8.03491 11.5625 8.05713 11.562 8.07935 11.5612C8.51819 11.5435 8.92127 11.3535 9.21424 11.0262C9.22168 11.0181 9.22876 11.0096 9.23572 11.001L15.8308 2.79785C16.0471 2.52881 16.0044 2.13538 15.7354 1.91919C15.4664 1.70288 15.0729 1.74561 14.8566 2.01465L8.27442 10.2018C8.20972 10.2693 8.12305 10.3085 8.02906 10.3123Z" fill="#0A40C6"/>
</svg>
