<svg width="31" height="30" viewBox="0 0 31 30" fill="none" xmlns="http://www.w3.org/2000/svg">
<path d="M24.2187 6.8906C24.0089 5.7991 23.4739 4.79656 22.684 4.0146L20.344 1.64793C19.2754 0.592096 17.8336 0 16.3314 0C14.8291 0 13.3873 0.592096 12.3187 1.64793L7.98669 5.99593C7.72775 6.25844 7.49674 6.5471 7.29736 6.85726C5.55801 7.15218 3.9883 8.07759 2.88812 9.45668C1.78794 10.8358 1.23444 12.5719 1.33336 14.3333V19.8253C0.474307 20.9219 0.00515489 22.2735 2.24812e-05 23.6666C-0.00307325 24.8166 0.313606 25.9448 0.914689 26.9253C1.3725 27.6924 1.98825 28.3535 2.72106 28.8645C3.45387 29.3755 4.287 29.7248 5.16513 29.8893C6.04327 30.0537 6.94633 30.0295 7.81439 29.8182C8.68245 29.607 9.49565 29.2135 10.2 28.6639H22.3334C23.3557 28.7234 24.3791 28.5659 25.3362 28.2016C26.2933 27.8374 27.1625 27.2747 27.8867 26.5506C28.6108 25.8264 29.1735 24.9572 29.5377 24.0001C29.902 23.043 30.0595 22.0196 30 20.9973V14.3306C30.0999 12.6008 29.5691 10.8935 28.5059 9.52537C27.4428 8.15722 25.9195 7.22108 24.2187 6.8906ZM13.7307 3.0666C14.4239 2.38391 15.3578 2.00124 16.3307 2.00124C17.3036 2.00124 18.2375 2.38391 18.9307 3.0666L21.2667 5.4306C21.625 5.7795 21.9061 6.19965 22.092 6.66393H10.1454L13.7307 3.0666ZM10.032 25.8999C9.8651 26.1701 9.6688 26.421 9.44669 26.6479C9.37336 26.7226 9.30536 26.8013 9.22802 26.8679C8.75637 27.3003 8.19413 27.6218 7.58234 27.8091C6.97055 27.9964 6.32466 28.0448 5.69181 27.9506C5.05896 27.8564 4.45513 27.6221 3.92438 27.2648C3.39363 26.9075 2.94937 26.4362 2.62402 25.8853C2.21458 25.2178 1.99855 24.4497 2.00002 23.6666C2.00187 22.5768 2.41743 21.5284 3.16269 20.7333C3.30345 20.5851 3.45401 20.4466 3.61336 20.3186C3.68402 20.2613 3.74669 20.1986 3.82402 20.1453C4.00359 20.0209 4.1921 19.9099 4.38802 19.8133C4.45469 19.7799 4.52136 19.7359 4.58669 19.7053C4.8094 19.6106 5.03951 19.5343 5.27469 19.4773C5.32936 19.4639 5.37869 19.4399 5.43336 19.4279C6.06495 19.2916 6.71909 19.2986 7.34762 19.4484C7.97615 19.5983 8.56308 19.8872 9.06519 20.2939C9.56731 20.7006 9.97183 21.2147 10.249 21.7983C10.5261 22.382 10.6689 23.0205 10.6667 23.6666C10.6673 24.4556 10.4475 25.2292 10.032 25.8999ZM22.3334 26.6639H11.9027C11.9534 26.5719 11.9907 26.4746 12.036 26.3799C12.0814 26.2853 12.136 26.1773 12.18 26.0719C12.244 25.9199 12.296 25.7639 12.3467 25.6066C12.38 25.5039 12.4187 25.4013 12.4467 25.2959C12.4947 25.1213 12.5267 24.9426 12.5587 24.7626C12.5747 24.6706 12.5974 24.5813 12.6107 24.4893C12.7537 23.4988 12.6573 22.4884 12.3297 21.5428C12.0021 20.5971 11.4528 19.7437 10.7278 19.0539C10.0027 18.3641 9.12298 17.8579 8.1622 17.5778C7.20141 17.2977 6.18752 17.2518 5.20536 17.4439C5.12002 17.4599 5.03602 17.4733 4.95069 17.4919C4.60938 17.5684 4.27492 17.6727 3.95069 17.8039C3.87202 17.8359 3.79736 17.8746 3.72136 17.9093C3.58802 17.9693 3.45469 18.0213 3.33336 18.0893V14.3333C3.23276 12.9661 3.67205 11.614 4.55697 10.5671C5.44188 9.52017 6.70191 8.8618 8.06669 8.73326C8.37562 8.68693 8.68764 8.6642 9.00002 8.66526H22.3334C22.6296 8.66027 22.9258 8.68034 23.2187 8.72526C24.5337 8.83392 25.7577 9.4399 26.6414 10.4197C27.5251 11.3995 28.0019 12.6794 27.9747 13.9986H25C24.0276 13.9986 23.0949 14.3849 22.4073 15.0725C21.7197 15.7602 21.3334 16.6928 21.3334 17.6653C21.3334 18.6377 21.7197 19.5704 22.4073 20.258C23.0949 20.9456 24.0276 21.3319 25 21.3319H27.972C27.9823 22.0613 27.8411 22.7849 27.5572 23.4569C27.2734 24.1288 26.8532 24.7346 26.3232 25.2358C25.7932 25.737 25.1649 26.1227 24.4781 26.3685C23.7914 26.6143 23.061 26.7149 22.3334 26.6639ZM28 19.3306H25C24.558 19.3306 24.1341 19.155 23.8215 18.8424C23.509 18.5299 23.3334 18.106 23.3334 17.6639C23.3334 17.2219 23.509 16.798 23.8215 16.4854C24.1341 16.1729 24.558 15.9973 25 15.9973H28V19.3306ZM9.14802 21.6666C9.23717 21.7631 9.30643 21.8762 9.35186 21.9994C9.39729 22.1226 9.418 22.2536 9.4128 22.3849C9.4076 22.5161 9.37659 22.645 9.32155 22.7643C9.26651 22.8836 9.18852 22.9908 9.09202 23.0799L6.24536 25.7133C6.06055 25.8841 5.81834 25.9792 5.56669 25.9799C5.43535 25.9803 5.30525 25.9545 5.18394 25.9041C5.06263 25.8538 4.95253 25.7798 4.86002 25.6866L3.54669 24.3733C3.36444 24.1847 3.26353 23.9322 3.26568 23.67C3.26783 23.4078 3.37288 23.1569 3.55821 22.9714C3.74353 22.7859 3.99429 22.6807 4.25649 22.6783C4.51868 22.6758 4.77133 22.7765 4.96002 22.9586L5.59469 23.5933L7.73469 21.6173C7.92865 21.4364 8.18652 21.34 8.45157 21.3492C8.71662 21.3585 8.96714 21.4726 9.14802 21.6666Z" fill="#0A40C6"/>
</svg>
