<svg width="32" height="32" viewBox="0 0 32 32" fill="none" xmlns="http://www.w3.org/2000/svg">
<g clip-path="url(#clip0_2183_8356)">
<path d="M31.9623 2.38887C31.893 1.11774 30.882 0.10693 29.6109 0.0375548C27.046 -0.10257 22.027 0.0337424 17.2278 2.51605C14.7812 3.78155 12.1937 5.92712 10.1288 8.40262C10.1033 8.43312 10.0786 8.46381 10.0533 8.49437L5.36708 8.85637C4.59571 8.91599 3.90865 9.3203 3.48202 9.96556L0.284896 14.8013C-0.038666 15.2907 -0.0901035 15.9031 0.147209 16.4396C0.384584 16.9761 0.872334 17.3499 1.45202 17.4397L5.40021 18.0512C5.38627 18.128 5.37227 18.2047 5.35946 18.2814C5.22802 19.0677 5.48852 19.8761 6.0564 20.4439L11.5559 25.9434C12.0267 26.4142 12.6629 26.6738 13.3148 26.6738C13.449 26.6738 13.584 26.6627 13.7184 26.6403C13.7951 26.6275 13.8718 26.6135 13.9486 26.5996L14.5601 30.5478C14.6499 31.1275 15.0238 31.6153 15.5601 31.8526C15.7833 31.9514 16.0195 32.0001 16.2546 32.0001C16.5848 32.0001 16.9127 31.9039 17.1985 31.715L22.0342 28.5178C22.6795 28.0911 23.0838 27.4041 23.1433 26.6327L23.5053 21.9466C23.5358 21.9213 23.5666 21.8966 23.5971 21.8711C26.0726 19.8062 28.2183 17.2187 29.4837 14.7721C31.9661 9.97262 32.1022 4.95356 31.9623 2.38887ZM21.0001 26.9537L16.3745 30.012L15.7785 26.1642C17.7335 25.5894 19.6674 24.6687 21.5098 23.4354L21.274 26.4882C21.2593 26.6787 21.1595 26.8484 21.0001 26.9537ZM12.8817 24.6176L7.38215 19.1181C7.24183 18.9777 7.17696 18.7805 7.20877 18.5906C7.37227 17.6129 7.62633 16.6822 7.94083 15.8054L16.1926 24.0572C15.1396 24.4344 14.1964 24.6594 13.4092 24.791C13.219 24.8226 13.022 24.7579 12.8817 24.6176ZM5.51152 10.7258L8.56427 10.49C7.3309 12.3324 6.41027 14.2664 5.83546 16.2214L1.98771 15.6254L5.04608 10.9997C5.15146 10.8403 5.32115 10.7405 5.51152 10.7258ZM22.3962 20.4312C20.8816 21.6945 19.4115 22.6082 18.0563 23.2694L8.73002 13.9431C9.59615 12.1741 10.6532 10.7011 11.5686 9.60368C13.4795 7.31274 15.8562 5.33643 18.0893 4.18143C22.4939 1.90312 27.1346 1.78043 29.5088 1.90968C29.8231 1.9268 30.073 2.17674 30.0901 2.49105C30.2196 4.8653 30.0966 9.50593 27.8183 13.9106C26.6634 16.1436 24.6871 18.5202 22.3962 20.4312Z" fill="#0A40C6"/>
<path d="M21.92 14.7648C23.1202 14.7647 24.3208 14.3078 25.2345 13.3941C26.1199 12.5088 26.6074 11.3317 26.6074 10.0797C26.6074 8.82769 26.1198 7.65056 25.2345 6.76525C23.4069 4.93756 20.4331 4.93769 18.6056 6.76525C17.7202 7.65056 17.2327 8.82769 17.2327 10.0797C17.2327 11.3317 17.7203 12.5088 18.6056 13.3941C19.5195 14.308 20.7195 14.7649 21.92 14.7648ZM19.9313 8.091C20.4795 7.54269 21.1997 7.26856 21.9199 7.26856C22.6402 7.26856 23.3604 7.54269 23.9086 8.091C24.4398 8.62219 24.7323 9.32844 24.7323 10.0796C24.7323 10.8308 24.4398 11.5371 23.9086 12.0683C22.8121 13.1649 21.0278 13.1648 19.9312 12.0683C19.4 11.5371 19.1075 10.8309 19.1075 10.0797C19.1075 9.3285 19.4001 8.62219 19.9313 8.091Z" fill="#0A40C6"/>
<path d="M0.956268 26.3714C1.19621 26.3714 1.43614 26.2799 1.61914 26.0968L4.67996 23.036C5.04608 22.6698 5.04608 22.0763 4.67996 21.7101C4.31389 21.344 3.72027 21.344 3.35414 21.7101L0.293393 24.771C-0.0727324 25.1371 -0.0727324 25.7306 0.293393 26.0968C0.476393 26.2798 0.71633 26.3714 0.956268 26.3714Z" fill="#0A40C6"/>
<path d="M7.48503 24.5148C7.11897 24.1487 6.52534 24.1487 6.15922 24.5148L0.274594 30.3995C-0.0915312 30.7656 -0.0915312 31.3592 0.274594 31.7253C0.457656 31.9084 0.697531 31.9999 0.937469 31.9999C1.17741 31.9999 1.41734 31.9084 1.60034 31.7253L7.48497 25.8406C7.85116 25.4745 7.85116 24.881 7.48503 24.5148Z" fill="#0A40C6"/>
<path d="M8.96431 27.3195L5.9035 30.3803C5.53738 30.7465 5.53738 31.34 5.9035 31.7061C6.08656 31.8892 6.3265 31.9808 6.56637 31.9808C6.80625 31.9808 7.04625 31.8893 7.22925 31.7061L10.2901 28.6453C10.6562 28.2792 10.6562 27.6856 10.2901 27.3195C9.924 26.9534 9.33037 26.9534 8.96431 27.3195Z" fill="#0A40C6"/>
</g>
<defs>
<clipPath id="clip0_2183_8356">
<rect width="32" height="32" fill="white"/>
</clipPath>
</defs>
</svg>
