<svg width="29" height="28" viewBox="0 0 29 28" fill="none" xmlns="http://www.w3.org/2000/svg">
<g clip-path="url(#clip0_2183_8445)">
<path d="M28.0072 20.372L25.1372 18.937L23.3107 14.1857C23.2892 14.1295 23.2563 14.0784 23.2141 14.0355C23.172 13.9926 23.1214 13.9588 23.0657 13.9363L11.7322 9.40603C11.653 9.37448 11.5662 9.36678 11.4827 9.38388C11.3991 9.40098 11.3224 9.44214 11.2619 9.50228L9.75034 11.0138C9.691 11.0744 9.65052 11.1508 9.63382 11.2339C9.61712 11.317 9.62492 11.4032 9.65628 11.482L14.1866 22.8154C14.2091 22.8712 14.2428 22.9217 14.2857 22.9639C14.3287 23.006 14.3798 23.0389 14.436 23.0604L19.1872 24.887L20.6222 27.757C20.6524 27.8202 20.6974 27.8753 20.7534 27.9176C20.8093 27.9599 20.8746 27.988 20.9438 27.9998C20.9671 28.0019 20.9905 28.0019 21.0138 27.9998C21.1296 27.9993 21.2405 27.9529 21.3222 27.8707L28.121 21.072C28.171 21.0237 28.2088 20.9642 28.2313 20.8984C28.2537 20.8325 28.2601 20.7623 28.25 20.6935C28.2383 20.6244 28.2101 20.5591 28.1678 20.5031C28.1256 20.4472 28.0705 20.4022 28.0072 20.372ZM10.5728 11.4251L10.8157 11.1845L16.4572 16.826C16.0854 17.3529 15.9248 18 16.0072 18.6396C16.0896 19.2791 16.409 19.8644 16.9022 20.2798C17.3954 20.6952 18.0265 20.9104 18.6708 20.8829C19.315 20.8554 19.9254 20.5871 20.3814 20.1311C20.8374 19.6752 21.1056 19.0647 21.1332 18.4205C21.1607 17.7763 20.9455 17.1452 20.5301 16.652C20.1147 16.1588 19.5294 15.8394 18.8898 15.757C18.2503 15.6746 17.6031 15.8352 17.0763 16.207L11.4347 10.5654L11.6753 10.3226L22.5625 14.6779L24.2797 19.1448L19.395 24.0295L14.9282 22.3123L10.5728 11.4251ZM18.5594 16.6095C18.9526 16.6101 19.3334 16.7469 19.637 16.9968C19.9406 17.2467 20.1482 17.5941 20.2244 17.9799C20.3005 18.3656 20.2406 18.7658 20.0548 19.1124C19.869 19.4589 19.5688 19.7303 19.2053 19.8803C18.8419 20.0303 18.4376 20.0496 18.0615 19.9351C17.6854 19.8205 17.3606 19.579 17.1425 19.2518C16.9245 18.9246 16.8266 18.5319 16.8656 18.1407C16.9045 17.7494 17.078 17.3838 17.3563 17.106C17.6757 16.7876 18.1084 16.609 18.5594 16.6095ZM21.1341 26.8229L20.0403 24.6354L24.8813 19.7945L27.0688 20.8882L21.1341 26.8229Z" fill="#0A40C6"/>
<path d="M8.61719 23.4062C8.53353 23.3271 8.42278 23.2831 8.30766 23.2831C8.19254 23.2831 8.08179 23.3271 7.99813 23.4062L7.4425 23.9618C5.95977 21.9494 5.1418 19.5246 5.10259 17.0253C5.06337 14.5259 5.80488 12.0766 7.22375 10.0187C7.64885 10.2526 8.1383 10.3425 8.61876 10.2748C9.09922 10.2071 9.54481 9.98558 9.88876 9.64335C10.2327 9.30113 10.4565 8.85665 10.5266 8.37654C10.5967 7.89643 10.5093 7.40653 10.2775 6.98027C12.3354 5.56139 14.7847 4.81989 17.2841 4.8591C19.7834 4.89831 22.2082 5.71628 24.2206 7.19901L23.6563 7.74808C23.5749 7.8301 23.5293 7.94098 23.5294 8.05652C23.529 8.11409 23.5401 8.17117 23.5619 8.22447C23.5836 8.27778 23.6157 8.32626 23.6563 8.36714L25.5856 10.2812C25.6676 10.3627 25.7785 10.4084 25.8941 10.4084C26.0096 10.4084 26.1205 10.3627 26.2025 10.2812L28.1209 8.36276C28.1616 8.32213 28.1939 8.27388 28.2159 8.22077C28.2379 8.16766 28.2493 8.11073 28.2493 8.05323C28.2493 7.99574 28.2379 7.93881 28.2159 7.8857C28.1939 7.83259 28.1616 7.78433 28.1209 7.7437L26.2025 5.82526C26.1205 5.74378 26.0096 5.69804 25.8941 5.69804C25.7785 5.69804 25.6676 5.74378 25.5856 5.82526L24.8441 6.56245C23.0164 5.18716 20.8557 4.3231 18.5837 4.059C16.3117 3.79489 14.0103 4.14026 11.9159 5.05964L14.4381 2.54402C14.7241 2.68066 15.0492 2.71159 15.3559 2.63132C15.6625 2.55105 15.9308 2.36476 16.1131 2.10551C16.2954 1.84625 16.38 1.5308 16.3519 1.2151C16.3238 0.899396 16.1847 0.603865 15.9594 0.380931C15.7341 0.157998 15.4371 0.0220755 15.1212 -0.00272333C14.8052 -0.0275221 14.4906 0.0604063 14.2333 0.245463C13.976 0.43052 13.7926 0.70074 13.7155 1.00819C13.6385 1.31563 13.6728 1.64043 13.8125 1.92495L9.55563 6.18839C9.12341 5.89846 8.60394 5.76759 8.08595 5.81814C7.56796 5.86868 7.08358 6.0975 6.71557 6.46552C6.34755 6.83353 6.11873 7.31791 6.06819 7.8359C6.01764 8.35389 6.14851 8.87336 6.43844 9.30558L2.175 13.5625C1.88936 13.4233 1.56363 13.3899 1.25569 13.4682C0.947739 13.5465 0.677524 13.7314 0.493056 13.9901C0.308588 14.2488 0.221815 14.5646 0.248155 14.8812C0.274496 15.1979 0.412245 15.4949 0.636924 15.7196C0.861604 15.9443 1.15866 16.082 1.47531 16.1084C1.79196 16.1347 2.1077 16.0479 2.36641 15.8635C2.62513 15.679 2.81007 15.4088 2.88836 15.1008C2.96666 14.7929 2.93325 14.4672 2.79407 14.1815L5.31625 11.6659C4.39596 13.7597 4.0495 16.0607 4.31245 18.3327C4.5754 20.6047 5.43828 22.7658 6.8125 24.594L6.07313 25.3356C5.99164 25.4175 5.94591 25.5284 5.94591 25.644C5.94591 25.7596 5.99164 25.8705 6.07313 25.9525L7.99157 27.8709C8.07324 27.9531 8.18416 27.9995 8.3 28C8.35773 28 8.4149 27.9886 8.46821 27.9665C8.52153 27.9443 8.56993 27.9118 8.61063 27.8709L10.5313 25.9525C10.6127 25.8705 10.6585 25.7596 10.6585 25.644C10.6585 25.5284 10.6127 25.4175 10.5313 25.3356L8.61719 23.4062ZM25.8984 6.74839L27.1978 8.04776L25.8984 9.34714L24.5991 8.04776L25.8984 6.74839ZM14.6875 1.01277C14.7525 0.947224 14.8355 0.902471 14.926 0.884185C15.0165 0.865899 15.1104 0.874905 15.1957 0.910058C15.2811 0.945212 15.3541 1.00493 15.4055 1.08164C15.4568 1.15834 15.4842 1.24858 15.4842 1.34089C15.4842 1.43321 15.4568 1.52344 15.4055 1.60014C15.3541 1.67685 15.2811 1.73657 15.1957 1.77172C15.1104 1.80688 15.0165 1.81588 14.926 1.7976C14.8355 1.77931 14.7525 1.73456 14.6875 1.66902C14.6444 1.62594 14.6102 1.5748 14.5868 1.51849C14.5635 1.46219 14.5515 1.40184 14.5515 1.34089C14.5515 1.27994 14.5635 1.21959 14.5868 1.16329C14.6102 1.10698 14.6444 1.05584 14.6875 1.01277ZM7.3375 7.08745C7.46454 6.9598 7.61555 6.85851 7.78185 6.78939C7.94815 6.72027 8.12647 6.68469 8.30657 6.68469C8.48666 6.68469 8.66498 6.72027 8.83128 6.78939C8.99758 6.85851 9.14859 6.9598 9.27563 7.08745C9.46766 7.27918 9.59851 7.52357 9.65161 7.78968C9.70471 8.0558 9.67768 8.33169 9.57393 8.58244C9.47019 8.83319 9.29439 9.04752 9.06879 9.19833C8.84319 9.34914 8.57793 9.42963 8.30657 9.42963C8.0352 9.42963 7.76994 9.34914 7.54434 9.19833C7.31874 9.04752 7.14294 8.83319 7.0392 8.58244C6.93545 8.33169 6.90842 8.0558 6.96152 7.78968C7.01462 7.52357 7.14547 7.27918 7.3375 7.08745ZM1.92125 15.0937C1.83193 15.1682 1.71799 15.2066 1.60181 15.2013C1.48563 15.1961 1.37561 15.1476 1.29337 15.0653C1.21114 14.9831 1.16263 14.8731 1.15738 14.7569C1.15213 14.6407 1.19052 14.5268 1.265 14.4375C1.35255 14.3514 1.47038 14.3032 1.59313 14.3032C1.71587 14.3032 1.83371 14.3514 1.92125 14.4375C1.96438 14.4805 1.99859 14.5317 2.02193 14.588C2.04527 14.6443 2.05729 14.7046 2.05729 14.7656C2.05729 14.8265 2.04527 14.8869 2.02193 14.9432C1.99859 14.9995 1.96438 15.0506 1.92125 15.0937ZM8.30657 26.9346L7.00719 25.6353L8.30657 24.3359L9.60594 25.6353L8.30657 26.9346Z" fill="#0A40C6"/>
</g>
<defs>
<clipPath id="clip0_2183_8445">
<rect width="28" height="28" fill="white" transform="translate(0.25)"/>
</clipPath>
</defs>
</svg>
