<svg width="29" height="28" viewBox="0 0 29 28" fill="none" xmlns="http://www.w3.org/2000/svg">
<g clip-path="url(#clip0_2183_8434)">
<path d="M7.44184 19.5781C8.03148 19.4002 8.57065 19.8265 8.58825 19.8407L8.90074 20.1034L9.42853 19.4754L9.11451 19.2116C9.07902 19.1817 8.23207 18.4835 7.20526 18.7927C6.69552 18.9463 6.33508 19.3469 6.26458 19.8381C6.19868 20.2972 6.39758 20.7387 6.78362 20.9903C6.80172 21.0022 6.82075 21.0125 6.8405 21.0213C6.86303 21.0314 7.39847 21.2697 8.00168 21.4923C8.40248 21.6401 8.60729 21.8655 8.56348 22.1107C8.51891 22.3606 8.22283 22.619 7.80453 22.619C7.39481 22.619 6.99964 22.453 6.74764 22.1749L6.47218 21.871L5.86438 22.4218L6.13979 22.7258C6.54475 23.1726 7.16709 23.4393 7.80453 23.4393C8.57704 23.4393 9.25047 22.9302 9.37105 22.2549C9.46271 21.7415 9.22569 21.0694 8.28556 20.7226C7.79337 20.5411 7.33607 20.3431 7.2092 20.2874C7.10682 20.2095 7.0575 20.087 7.07647 19.9546C7.08856 19.8708 7.14822 19.6666 7.44184 19.5781Z" fill="#0A40C6"/>
<path d="M13.7134 23.4395V19.4971H12.8931V19.966C12.614 19.7856 12.2819 19.6803 11.9255 19.6803C10.9396 19.6803 10.1375 20.4824 10.1375 21.4683C10.1375 22.4542 10.9396 23.2563 11.9255 23.2563C12.2819 23.2563 12.614 23.1511 12.8931 22.9706V23.4395H13.7134ZM11.9254 22.436C11.3918 22.436 10.9577 22.0019 10.9577 21.4683C10.9577 20.9348 11.3918 20.5007 11.9254 20.5007C12.459 20.5007 12.893 20.9348 12.893 21.4683C12.893 22.0019 12.459 22.436 11.9254 22.436Z" fill="#0A40C6"/>
<path d="M18.1097 23.4395V19.4971H17.2893V19.966C17.0102 19.7855 16.678 19.6803 16.3216 19.6803C15.3358 19.6803 14.5337 20.4824 14.5337 21.4683C14.5337 22.4542 15.3358 23.2563 16.3216 23.2563C16.6781 23.2563 17.0102 23.1511 17.2893 22.9706V23.4395H18.1097ZM16.3216 22.436C15.7881 22.436 15.354 22.0019 15.354 21.4683C15.354 20.9348 15.7881 20.5007 16.3216 20.5007C16.8552 20.5007 17.2893 20.9348 17.2893 21.4683C17.2893 22.0019 16.8552 22.436 16.3216 22.436Z" fill="#0A40C6"/>
<path d="M20.8812 22.619C20.4715 22.619 20.0763 22.453 19.8243 22.1749L19.5488 21.871L18.941 22.4218L19.2164 22.7258C19.6214 23.1726 20.2438 23.4393 20.8812 23.4393C21.6538 23.4393 22.3272 22.9301 22.4478 22.2549C22.5394 21.7415 22.3024 21.0694 21.3623 20.7226C20.8701 20.5411 20.4128 20.343 20.2859 20.2874C20.1835 20.2094 20.1342 20.087 20.1531 19.9546C20.1652 19.8709 20.2248 19.6666 20.5185 19.5781C21.1076 19.4003 21.6464 19.8259 21.6648 19.8407L21.9773 20.1034L22.5051 19.4755L22.1912 19.2116C22.1556 19.1817 21.3087 18.4835 20.2819 18.7927C19.7722 18.9463 19.4117 19.3469 19.3412 19.8381C19.2753 20.2972 19.4742 20.7387 19.8603 20.9904C19.8784 21.0022 19.8974 21.0125 19.9172 21.0213C19.9396 21.0314 20.4751 21.2697 21.0783 21.4923C21.4791 21.6401 21.6839 21.8655 21.6401 22.1107C21.5956 22.3606 21.2995 22.619 20.8812 22.619Z" fill="#0A40C6"/>
<path d="M19.0762 24.4805H19.8965V25.3008H19.0762V24.4805Z" fill="#0A40C6"/>
<path d="M28.25 15.1334C28.25 13.8839 27.7084 12.6991 26.7641 11.883C25.9356 11.1669 24.8739 10.7975 23.7899 10.8372C23.7352 10.2159 23.477 9.6225 23.0501 9.1587C22.5149 8.57709 21.7541 8.24355 20.9628 8.24355C20.5408 8.24355 20.1268 8.33789 19.7505 8.51562C19.5743 7.03731 18.9083 5.67023 17.8348 4.60859C16.5893 3.3767 14.9384 2.69824 13.1863 2.69824C11.6361 2.69824 10.1021 3.30773 8.86705 4.41434L9.41448 5.0253C10.4989 4.05367 11.8384 3.51855 13.1863 3.51855C14.721 3.51855 16.167 4.11279 17.258 5.19183C18.3482 6.26994 18.9586 7.70751 18.9769 9.23969L18.9872 10.1156L19.6533 9.54665C20.0178 9.23537 20.4829 9.06387 20.9629 9.06387C21.5337 9.06387 22.0606 9.29487 22.4467 9.71427C22.8339 10.135 23.0211 10.681 22.9737 11.2517L22.931 11.7663L23.4419 11.6915C24.4455 11.5447 25.4608 11.8407 26.2278 12.5037C26.9916 13.1638 27.4297 14.1224 27.4297 15.1334C27.4297 16.0446 27.075 16.8899 26.4309 17.5137C25.8756 18.0514 25.1512 18.3839 24.3618 18.4704C24.1625 17.5469 23.3398 16.8525 22.3574 16.8525H6.14258C5.19189 16.8525 4.39045 17.5028 4.15917 18.3819C3.34772 18.1114 2.61901 17.61 2.07514 16.9392C1.42715 16.1399 1.07031 15.1318 1.07031 14.1006C1.07031 11.7653 2.61086 10.3848 4.05253 9.87155C4.91867 9.56322 5.83502 9.51274 6.70247 9.72553C7.63002 9.95309 8.45088 10.4787 9.07634 11.2458L9.71209 10.7275C9.08329 9.9562 8.28343 9.40014 7.40061 9.08339C7.45732 7.83859 7.97242 6.60402 8.86875 5.57809L8.25105 5.03837C7.27527 6.1552 6.69673 7.49707 6.59227 8.8647C5.68058 8.69505 4.71387 8.76527 3.7774 9.09865C2.76776 9.45805 1.90468 10.0872 1.28141 10.9179C0.606672 11.8175 0.25 12.918 0.25 14.1006C0.25 15.3193 0.671914 16.5109 1.43798 17.4559C2.12272 18.3005 3.05602 18.9178 4.0918 19.2198V23.2504C4.0918 24.3812 5.01175 25.3011 6.14258 25.3011H18.2559V24.4808H6.14258C5.46413 24.4808 4.91211 23.9288 4.91211 23.2504V18.9034C4.91211 18.2249 5.46413 17.6729 6.14258 17.6729H22.3574C23.0359 17.6729 23.5879 18.2249 23.5879 18.9034V23.2504C23.5879 23.9288 23.0359 24.4808 22.3574 24.4808H20.7168V25.3011H22.3574C23.4883 25.3011 24.4082 24.3812 24.4082 23.2504V19.2902C26.5926 19.0716 28.25 17.3157 28.25 15.1334Z" fill="#0A40C6"/>
<path d="M17.1337 8.08789H17.954V8.9082H17.1337V8.08789Z" fill="#0A40C6"/>
<path d="M16.3134 6.44727H17.1337V7.26758H16.3134V6.44727Z" fill="#0A40C6"/>
</g>
<defs>
<clipPath id="clip0_2183_8434">
<rect width="28" height="28" fill="white" transform="translate(0.25)"/>
</clipPath>
</defs>
</svg>
