<svg width="32" height="32" viewBox="0 0 32 32" fill="none" xmlns="http://www.w3.org/2000/svg">
<path d="M17.5332 15.1201H14.4661C13.0249 15.1217 11.6433 15.6949 10.6242 16.7139C9.60517 17.7329 9.03193 19.1145 9.03027 20.5557V23.6267C9.03071 24.0188 9.18664 24.3946 9.46387 24.6719C9.74109 24.9491 10.117 25.105 10.509 25.1054H21.49C21.882 25.105 22.2579 24.9491 22.5351 24.6719C22.8124 24.3946 22.9683 24.0188 22.9687 23.6267V20.5557C22.9671 19.1146 22.3939 17.733 21.3749 16.714C20.3559 15.695 18.9743 15.1218 17.5332 15.1201ZM20.9688 23.1055H11.0303V20.5557C11.0313 19.6448 11.3937 18.7715 12.0378 18.1274C12.6819 17.4834 13.5552 17.1211 14.4661 17.1201H17.5332C18.444 17.1212 19.3173 17.4834 19.9614 18.1275C20.6054 18.7716 20.9677 19.6448 20.9688 20.5557V23.1055Z" fill="#0A40C6"/>
<path d="M16 13.7741C16.8903 13.774 17.7605 13.5099 18.5007 13.0152C19.2409 12.5205 19.8178 11.8175 20.1584 10.9949C20.499 10.1724 20.588 9.2673 20.4143 8.39415C20.2405 7.521 19.8117 6.71899 19.1821 6.08954C18.5525 5.46008 17.7504 5.03146 16.8772 4.85788C16.004 4.68429 15.099 4.77354 14.2765 5.11433C13.4541 5.45511 12.7511 6.03214 12.2566 6.77244C11.7621 7.51273 11.4982 8.38305 11.4983 9.27332C11.4996 10.4667 11.9744 11.6109 12.8184 12.4547C13.6623 13.2984 14.8066 13.773 16 13.7741ZM16 6.77149C16.4947 6.77157 16.9782 6.91833 17.3895 7.1932C17.8007 7.46807 18.1213 7.85872 18.3105 8.31574C18.4998 8.77277 18.5493 9.27565 18.4528 9.76081C18.3563 10.246 18.1181 10.6916 17.7683 11.0414C17.4185 11.3912 16.9729 11.6294 16.4877 11.726C16.0026 11.8225 15.4997 11.773 15.0427 11.5838C14.5856 11.3945 14.195 11.074 13.9201 10.6628C13.6452 10.2515 13.4984 9.76799 13.4983 9.27332C13.4989 8.61 13.7627 7.97402 14.2317 7.50498C14.7007 7.03593 15.3367 6.77213 16 6.77149Z" fill="#0A40C6"/>
<path d="M4.98486 20.6387H7.0398C7.30501 20.6387 7.55937 20.5333 7.7469 20.3458C7.93444 20.1582 8.0398 19.9039 8.0398 19.6387C8.0398 19.3735 7.93444 19.1191 7.7469 18.9316C7.55937 18.744 7.30501 18.6387 7.0398 18.6387H4.98486C3.7494 18.6401 2.56494 19.1315 1.69134 20.0051C0.817735 20.8787 0.326337 22.0631 0.324951 23.2986V25.8336C0.325371 26.2035 0.472482 26.5581 0.734008 26.8196C0.995535 27.0811 1.35012 27.2282 1.71997 27.2286H7.0398C7.30501 27.2286 7.55937 27.1233 7.7469 26.9357C7.93444 26.7482 8.0398 26.4938 8.0398 26.2286C8.0398 25.9634 7.93444 25.7091 7.7469 25.5215C7.55937 25.334 7.30501 25.2286 7.0398 25.2286H2.32495V23.2986C2.32573 22.5934 2.60622 21.9173 3.10488 21.4186C3.60354 20.9199 4.27965 20.6395 4.98486 20.6387Z" fill="#0A40C6"/>
<path d="M6.25001 17.1676C7.08234 17.1675 7.89595 16.9206 8.58796 16.4581C9.27997 15.9956 9.81929 15.3383 10.1377 14.5693C10.4562 13.8003 10.5394 12.9541 10.3769 12.1378C10.2145 11.3215 9.81357 10.5717 9.22495 9.98322C8.63633 9.39474 7.88643 8.99402 7.07008 8.83174C6.25372 8.66946 5.40757 8.7529 4.63864 9.07152C3.86971 9.39013 3.21252 9.92961 2.75019 10.6217C2.28786 11.3138 2.04115 12.1275 2.04126 12.9598C2.04254 14.0756 2.4864 15.1453 3.27544 15.9341C4.06449 16.723 5.13426 17.1666 6.25001 17.1676ZM6.25001 10.751C6.68673 10.7511 7.11362 10.8806 7.47671 11.1233C7.83979 11.366 8.12277 11.7109 8.28986 12.1144C8.45695 12.5179 8.50065 12.9619 8.41544 13.3902C8.33023 13.8185 8.11993 14.2119 7.81112 14.5208C7.50232 14.8296 7.10889 15.0399 6.68057 15.1251C6.25225 15.2104 5.80827 15.1667 5.40477 14.9996C5.00127 14.8326 4.65636 14.5496 4.41366 14.1865C4.17097 13.8234 4.04137 13.3966 4.04126 12.9598C4.04178 12.3742 4.27465 11.8127 4.68876 11.3986C5.10286 10.9844 5.66436 10.7515 6.25001 10.751Z" fill="#0A40C6"/>
<path d="M27.0151 18.6387H24.8701C24.6049 18.6387 24.3505 18.744 24.163 18.9316C23.9755 19.1191 23.8701 19.3735 23.8701 19.6387C23.8701 19.9039 23.9755 20.1582 24.163 20.3458C24.3505 20.5333 24.6049 20.6387 24.8701 20.6387H27.0151C27.7204 20.6395 28.3965 20.9199 28.8951 21.4186C29.3938 21.9173 29.6743 22.5934 29.675 23.2986V25.2286H24.8701C24.6049 25.2286 24.3505 25.334 24.163 25.5215C23.9755 25.7091 23.8701 25.9634 23.8701 26.2286C23.8701 26.4938 23.9755 26.7482 24.163 26.9357C24.3505 27.1233 24.6049 27.2286 24.8701 27.2286H30.28C30.6499 27.2282 31.0045 27.0811 31.266 26.8196C31.5275 26.558 31.6746 26.2035 31.675 25.8336V23.2986C31.6737 22.0631 31.1823 20.8787 30.3087 20.0051C29.4351 19.1315 28.2506 18.6401 27.0151 18.6387Z" fill="#0A40C6"/>
<path d="M25.75 17.1676C26.5823 17.1675 27.396 16.9206 28.088 16.4581C28.78 15.9956 29.3193 15.3383 29.6377 14.5693C29.9562 13.8003 30.0394 12.9541 29.8769 12.1378C29.7145 11.3215 29.3136 10.5717 28.7249 9.98322C28.1363 9.39474 27.3864 8.99402 26.5701 8.83174C25.7537 8.66946 24.9076 8.7529 24.1386 9.07152C23.3697 9.39013 22.7125 9.92961 22.2502 10.6217C21.7879 11.3138 21.5412 12.1275 21.5413 12.9598C21.5425 14.0756 21.9864 15.1453 22.7754 15.9341C23.5645 16.723 24.6343 17.1666 25.75 17.1676ZM25.75 10.751C26.1867 10.7511 26.6136 10.8806 26.9767 11.1233C27.3398 11.366 27.6228 11.7109 27.7899 12.1144C27.957 12.5179 28.0007 12.9619 27.9154 13.3902C27.8302 13.8185 27.6199 14.2119 27.3111 14.5208C27.0023 14.8296 26.6089 15.0399 26.1806 15.1251C25.7522 15.2104 25.3083 15.1667 24.9048 14.9996C24.5013 14.8326 24.1564 14.5496 23.9137 14.1865C23.671 13.8234 23.5414 13.3966 23.5413 12.9598C23.5418 12.3742 23.7747 11.8127 24.1888 11.3986C24.6029 10.9844 25.1644 10.7515 25.75 10.751Z" fill="#0A40C6"/>
</svg>
