<svg width="29" height="28" viewBox="0 0 29 28" fill="none" xmlns="http://www.w3.org/2000/svg">
<g clip-path="url(#clip0_2183_8406)">
<path d="M5.88673 11.9258C6.39412 12.4329 7.17249 11.6647 6.66017 11.1523L4.85937 9.35156L6.66017 7.55076C6.87373 7.3372 6.87373 6.99092 6.66017 6.77731C6.44656 6.56381 6.10039 6.56381 5.88673 6.77731L3.69923 8.96481C3.48567 9.17837 3.48567 9.52465 3.69923 9.73826L5.88673 11.9258Z" fill="white"/>
<path d="M12.1288 11.9258L14.3163 9.73826C14.5298 9.5247 14.5298 9.17842 14.3163 8.96481L12.1288 6.77731C11.9152 6.56381 11.569 6.56381 11.3553 6.77731C11.1418 6.99087 11.1418 7.33715 11.3553 7.55076L13.1562 9.35156L11.3553 11.1524C10.8428 11.665 11.6228 12.4315 12.1288 11.9258Z" fill="white"/>
<path d="M8.46135 12.0862C8.70635 12.0862 8.92937 11.9203 8.99144 11.6718L10.0852 7.29685C10.1585 7.00383 9.9803 6.70688 9.68734 6.63365C9.39421 6.56037 9.09742 6.7386 9.02414 7.0315L7.93039 11.4065C7.8442 11.7512 8.10501 12.0862 8.46135 12.0862Z" fill="white"/>
<path d="M14.4766 15.3672C14.1745 15.3672 13.9297 15.6121 13.9297 15.9141C13.9297 16.216 14.1745 16.4609 14.4766 16.4609H25.4141C25.716 16.4609 25.9609 16.216 25.9609 15.9141C25.9609 15.6121 25.716 15.3672 25.4141 15.3672H24.8672V10.9922C24.8672 10.6901 24.6223 10.4453 24.3203 10.4453C24.0183 10.4453 23.7734 10.6901 23.7734 10.9922V15.3672H22.6797V9.89844C22.6797 9.5964 22.4348 9.35156 22.1328 9.35156C21.8308 9.35156 21.5859 9.5964 21.5859 9.89844V15.3672H20.4922V13.1797C20.4922 12.8776 20.2473 12.6328 19.9453 12.6328C19.6433 12.6328 19.3984 12.8776 19.3984 13.1797V15.3672H18.3047V12.0859C18.3047 11.7839 18.0598 11.5391 17.7578 11.5391C17.4558 11.5391 17.2109 11.7839 17.2109 12.0859V15.3672H16.1172V13.7266C16.1172 13.4245 15.8723 13.1797 15.5703 13.1797C15.2683 13.1797 15.0234 13.4245 15.0234 13.7266V15.3672H14.4766Z" fill="white"/>
<path d="M15.5703 3.88281H25.4141C25.716 3.88281 25.9609 3.63792 25.9609 3.33594C25.9609 3.03395 25.716 2.78906 25.4141 2.78906H15.5703C15.2683 2.78906 15.0234 3.03395 15.0234 3.33594C15.0234 3.63792 15.2683 3.88281 15.5703 3.88281Z" fill="white"/>
<path d="M15.5703 6.07031H22.1328C22.4348 6.07031 22.6797 5.82542 22.6797 5.52344C22.6797 5.22145 22.4348 4.97656 22.1328 4.97656H15.5703C15.2683 4.97656 15.0234 5.22145 15.0234 5.52344C15.0234 5.82542 15.2683 6.07031 15.5703 6.07031Z" fill="white"/>
<path d="M25.4141 21.3828C25.7161 21.3828 25.9609 21.138 25.9609 20.8359C25.9609 20.5339 25.7161 20.2891 25.4141 20.2891C25.112 20.2891 24.8672 20.5339 24.8672 20.8359C24.8672 21.138 25.112 21.3828 25.4141 21.3828Z" fill="white"/>
<path d="M23.2266 20.2891H22.6797C22.3777 20.2891 22.1328 20.534 22.1328 20.8359C22.1328 21.1379 22.3777 21.3828 22.6797 21.3828H23.2266C23.5285 21.3828 23.7734 21.1379 23.7734 20.8359C23.7734 20.534 23.5285 20.2891 23.2266 20.2891Z" fill="white"/>
<path d="M20.4922 20.2891H19.9453C19.6433 20.2891 19.3984 20.534 19.3984 20.8359C19.3984 21.1379 19.6433 21.3828 19.9453 21.3828H20.4922C20.7942 21.3828 21.0391 21.1379 21.0391 20.8359C21.0391 20.534 20.7942 20.2891 20.4922 20.2891Z" fill="white"/>
<path d="M25.6919 0.0546875H3.80813C2.15202 0.0546875 0.804688 1.40202 0.804688 3.05813V20.5669C0.804688 22.223 2.15202 23.5703 3.80813 23.5703H12.0156V24.6641H11.4688C9.96102 24.6641 8.73438 25.8907 8.73438 27.3984C8.73438 27.7004 8.97921 27.9453 9.28125 27.9453H20.2188C20.5207 27.9453 20.7656 27.7004 20.7656 27.3984C20.7656 25.8907 19.539 24.6641 18.0312 24.6641H17.4844V23.5703H25.6919C27.348 23.5703 28.6953 22.223 28.6953 20.5669V3.05813C28.6953 1.40202 27.348 0.0546875 25.6919 0.0546875ZM3.80813 1.14844H25.6919C26.7449 1.14844 27.6016 2.00512 27.6016 3.05813V18.1016H1.89844V3.05813C1.89844 2.00512 2.75512 1.14844 3.80813 1.14844ZM19.5781 26.8516H9.92186C10.1476 26.2149 10.7558 25.7578 11.4688 25.7578H18.0312C18.7442 25.7578 19.3524 26.2149 19.5781 26.8516ZM16.3906 24.6641H13.1094V23.5703H16.3906V24.6641ZM25.6919 22.4766H3.80813C2.75512 22.4766 1.89844 21.6199 1.89844 20.5669V19.1953H27.6016V20.5669C27.6016 21.6199 26.7449 22.4766 25.6919 22.4766Z" fill="white"/>
</g>
<defs>
<clipPath id="clip0_2183_8406">
<rect width="28" height="28" fill="white" transform="translate(0.75)"/>
</clipPath>
</defs>
</svg>
