<svg width="16" height="28" viewBox="0 0 16 28" fill="none" xmlns="http://www.w3.org/2000/svg">
<path d="M10.4375 2.625H11.3125V3.5H10.4375V2.625Z" fill="#0A40C6"/>
<path d="M3.4375 14.4375H5.1875V15.3125H3.4375V14.4375Z" fill="#0A40C6"/>
<path d="M13.0625 0.875H3.4375C2.74152 0.875695 2.07424 1.15248 1.58211 1.64461C1.08998 2.13674 0.813195 2.80402 0.8125 3.5V24.5C0.813195 25.196 1.08998 25.8633 1.58211 26.3554C2.07424 26.8475 2.74152 27.1243 3.4375 27.125H13.0625C13.7585 27.1243 14.4258 26.8475 14.9179 26.3554C15.41 25.8633 15.6868 25.196 15.6875 24.5V3.5C15.6868 2.80402 15.41 2.13674 14.9179 1.64461C14.4258 1.15248 13.7585 0.875695 13.0625 0.875ZM13.0625 26.25H3.4375C2.97337 26.25 2.52825 26.0656 2.20006 25.7374C1.87187 25.4092 1.6875 24.9641 1.6875 24.5V5.25H13.9375V4.375H1.6875V3.5C1.6875 3.03587 1.87187 2.59075 2.20006 2.26256C2.52825 1.93437 2.97337 1.75 3.4375 1.75H13.0625C13.5266 1.75 13.9717 1.93437 14.2999 2.26256C14.6281 2.59075 14.8125 3.03587 14.8125 3.5V21.875H2.5625V22.75H14.8125V24.5C14.8125 24.9641 14.6281 25.4092 14.2999 25.7374C13.9717 26.0656 13.5266 26.25 13.0625 26.25Z" fill="#0A40C6"/>
<path d="M8.25 23.1875C7.99041 23.1875 7.73665 23.2645 7.52082 23.4087C7.30498 23.5529 7.13675 23.7579 7.03741 23.9977C6.93807 24.2376 6.91208 24.5015 6.96272 24.7561C7.01336 25.0107 7.13837 25.2445 7.32192 25.4281C7.50548 25.6116 7.73934 25.7366 7.99394 25.7873C8.24854 25.8379 8.51244 25.8119 8.75227 25.7126C8.9921 25.6133 9.19708 25.445 9.3413 25.2292C9.48552 25.0133 9.5625 24.7596 9.5625 24.5C9.5625 24.1519 9.42422 23.8181 9.17808 23.5719C8.93194 23.3258 8.5981 23.1875 8.25 23.1875ZM8.25 24.9375C8.16347 24.9375 8.07889 24.9118 8.00694 24.8638C7.93499 24.8157 7.87892 24.7474 7.8458 24.6674C7.81269 24.5875 7.80403 24.4995 7.82091 24.4146C7.83779 24.3298 7.87946 24.2518 7.94064 24.1906C8.00183 24.1295 8.07978 24.0878 8.16465 24.0709C8.24952 24.054 8.33748 24.0627 8.41742 24.0958C8.49737 24.1289 8.5657 24.185 8.61377 24.2569C8.66184 24.3289 8.6875 24.4135 8.6875 24.5C8.6875 24.616 8.64141 24.7273 8.55936 24.8094C8.47731 24.8914 8.36603 24.9375 8.25 24.9375Z" fill="#0A40C6"/>
<path d="M6.9375 2.625H9.5625V3.5H6.9375V2.625Z" fill="#0A40C6"/>
<path d="M6.37179 11.5029L4.9311 10.0622L6.37179 8.62156L5.75316 8.00293L3.69385 10.0622L5.75316 12.1216L6.37179 11.5029Z" fill="#0A40C6"/>
<path d="M10.7468 12.1216L12.8061 10.0622L10.7468 8.00293L10.1282 8.62156L11.5689 10.0622L10.1282 11.5029L10.7468 12.1216Z" fill="#0A40C6"/>
<path d="M6.5874 11.9033L8.95603 7.80086L9.71378 8.23836L7.34515 12.3408L6.5874 11.9033Z" fill="#0A40C6"/>
<path d="M6.0625 14.4375H13.0625V15.3125H6.0625V14.4375Z" fill="#0A40C6"/>
<path d="M3.4375 16.1875H13.0625V17.0625H3.4375V16.1875Z" fill="#0A40C6"/>
<path d="M3.4375 17.9375H13.0625V18.8125H3.4375V17.9375Z" fill="#0A40C6"/>
</svg>
