<svg width="49" height="34" viewBox="0 0 49 34" fill="none" xmlns="http://www.w3.org/2000/svg">
<path d="M28.6138 14.8902C28.3226 11.307 27.4125 7.88863 24.7315 5.00378C22.1962 2.27848 18.4206 0.630744 14.7177 0.544434H13.8987C10.7575 0.641205 7.65271 1.77631 5.16941 3.90006C1.98404 6.62798 0.109213 10.6819 0.0130015 14.8771C0.00520062 14.9948 0 15.1151 0 15.2328V33.4756H8.4458V14.9399C8.4458 9.02896 17.0268 6.77706 19.5751 12.3114C20.2486 13.776 20.2616 15.4499 20.2616 17.0663C20.2616 22.5352 20.2668 28.0067 20.2694 33.4756H28.7152V22.6816C28.7152 20.0871 28.8218 17.4455 28.6138 14.8876V14.8902ZM26.1851 20.1996C26.2059 25.0486 26.2007 30.9282 26.1799 30.9282H22.8021C22.8021 27.6405 22.8021 24.3503 22.8229 21.0627C22.8385 18.0392 23.3196 14.6077 22.152 11.7386C20.3552 7.3263 15.0376 5.26271 10.7341 7.33415C7.10664 9.07866 5.9287 12.6801 5.9105 16.4333C5.8871 21.2641 5.9105 26.0974 5.9105 30.9308H2.5327V15.2354C2.5327 15.1753 2.5327 15.1177 2.5379 15.0576L2.5431 14.9687C2.81353 9.38728 6.40716 4.59316 11.9016 3.2802C18.665 1.66385 25.4414 7.22692 26.1071 13.9617C26.1487 14.375 26.1721 17.0741 26.1877 20.2022L26.1851 20.1996Z" fill="white"/>
<path d="M44.0935 5.46936C40.9809 2.26805 36.8178 0.5 32.3739 0.5L23.0752 0.520924C23.0752 0.520924 23.0882 0.52877 23.0934 0.534001C24.2219 1.24279 25.2595 2.09281 26.193 3.04745H32.3765C36.1313 3.04745 39.6522 4.54349 42.2837 7.2531C44.8372 9.88163 46.2361 13.3262 46.2361 16.9852C46.2361 17.0924 46.2361 17.2023 46.2309 17.3069C46.0619 24.8211 39.7094 30.9282 32.0749 30.9282H31.1258V33.4756H32.0749C36.576 33.4756 40.6975 31.671 43.7217 28.7521C46.7458 25.8333 48.6622 21.8081 48.7637 17.3644C48.8651 12.8972 47.2061 8.67068 44.0935 5.46675V5.46936ZM41.1655 16.368C41.3294 18.7846 40.5025 21.1124 38.8253 22.917C37.0987 24.7819 34.6492 25.8516 32.1165 25.8516H31.1232V28.399H32.1165C35.3513 28.399 38.4716 27.0364 40.6793 24.6563C42.8375 22.3233 43.9089 19.3182 43.6904 16.1901C43.2848 10.2347 38.3156 5.57136 32.3739 5.57136H28.2238C28.7595 6.37954 29.2249 7.23218 29.6176 8.11882H32.3765C36.9869 8.11882 40.8509 11.7412 41.1681 16.3627L41.1655 16.368Z" fill="white"/>
</svg>
