<svg width="18" height="18" viewBox="0 0 18 18" fill="none" xmlns="http://www.w3.org/2000/svg">
<path d="M14.5508 12.0605C14.8828 13.0266 15.6414 13.7932 16.5996 14.1289C15.6427 14.4616 14.8833 15.2217 14.5508 16.1787C14.2153 15.2202 13.4487 14.461 12.4824 14.1289C13.45 13.7938 14.2157 13.0281 14.5508 12.0605ZM6.04199 6.87207C6.57631 8.96122 8.22723 10.6113 10.3164 11.1455C8.22787 11.6798 6.57724 13.3313 6.04199 15.4287C5.5086 13.3317 3.86456 11.6797 1.77734 11.1455C3.8652 10.6113 5.50954 8.9608 6.04199 6.87207ZM12.0527 1.93848C12.4447 3.18481 13.4305 4.16729 14.6758 4.56152C13.419 4.94512 12.437 5.91256 12.0488 7.16016C11.655 5.92643 10.6722 4.95348 9.42871 4.56543C10.6775 4.17338 11.6617 3.18771 12.0527 1.93848Z" stroke="#0A40C6"/>
</svg>
