<svg width="26" height="24" viewBox="0 0 26 24" fill="none" xmlns="http://www.w3.org/2000/svg">
<path fill-rule="evenodd" clip-rule="evenodd" d="M25.7395 14.3086C25.7395 14.4937 26.0225 19.5356 22.0171 22.309L22.0154 22.3101C19.0389 24.3563 15.7525 23.6799 15.1945 23.5556C14.9663 23.5048 14.7907 23.3227 14.7475 23.0934C14.7043 22.8634 14.8029 22.63 14.9973 22.5004C15.8213 21.9512 17.6358 20.6334 18.8445 18.1057C19.9196 15.8622 19.9178 13.7367 19.8262 12.5782H15.3212C14.364 12.5782 13.5808 11.7944 13.5808 10.8372V2.15931C13.5808 1.20217 14.364 0.418945 15.3212 0.418945H23.9991C24.9562 0.418945 25.7395 1.20217 25.7395 2.15931V14.3086Z" fill="#B3C4ED"/>
<path fill-rule="evenodd" clip-rule="evenodd" d="M12.4339 14.3081C12.4339 14.4931 12.717 19.5356 8.71096 22.309L8.70979 22.3101C5.73272 24.3563 2.44691 23.6799 1.88896 23.5556C1.66077 23.5048 1.48451 23.3227 1.44191 23.0934C1.39872 22.8634 1.49677 22.63 1.6917 22.5004C2.51578 21.9512 4.32968 20.6334 5.53837 18.1057C6.61341 15.8622 6.61224 13.7367 6.52003 12.5782H2.01503C1.05788 12.5782 0.274658 11.7944 0.274658 10.8372V2.15931C0.274658 1.20217 1.05788 0.418945 2.01503 0.418945H10.6929C11.6501 0.418945 12.4339 1.20217 12.4339 2.15931V14.3081Z" fill="#B3C4ED"/>
</svg>
