<svg width="21" height="21" viewBox="0 0 21 21" fill="none" xmlns="http://www.w3.org/2000/svg">
<path d="M19.9688 8.17188C19.9062 8 19.8008 7.85156 19.6523 7.72656C19.5039 7.60156 19.3359 7.52344 19.1484 7.49219L13.4531 6.67188L10.8984 1.49219C10.8047 1.33594 10.6797 1.21094 10.5234 1.11719C10.3672 1.02344 10.1953 0.976562 10.0078 0.976562C9.82031 0.976562 9.64844 1.02344 9.49219 1.11719C9.33594 1.21094 9.21094 1.33594 9.11719 1.49219L6.5625 6.67188L0.867188 7.49219C0.617188 7.52344 0.410156 7.63281 0.246094 7.82031C0.0820312 8.00781 0 8.22656 0 8.47656C0 8.61719 0.0273438 8.75 0.0820312 8.875C0.136719 9 0.210938 9.10938 0.304688 9.20312L4.42969 13.2109L3.46875 18.8828C3.45312 18.9141 3.44531 18.9453 3.44531 18.9766C3.44531 19.0078 3.44531 19.0391 3.44531 19.0703C3.44531 19.3359 3.54297 19.5664 3.73828 19.7617C3.93359 19.957 4.17188 20.0547 4.45312 20.0547C4.53125 20.0547 4.60938 20.0469 4.6875 20.0312C4.76562 20.0156 4.84375 19.9844 4.92188 19.9375L10.0078 17.2656L15.0938 19.9375C15.1719 19.9844 15.25 20.0156 15.3281 20.0312C15.4062 20.0469 15.4844 20.0547 15.5625 20.0547C15.8438 20.0547 16.082 19.957 16.2773 19.7617C16.4727 19.5664 16.5703 19.3359 16.5703 19.0703C16.5703 19.0391 16.5703 19.0078 16.5703 18.9766C16.5703 18.9453 16.5625 18.9141 16.5469 18.8828L15.5859 13.2109L19.7109 9.20312C19.8047 9.10938 19.8789 9 19.9336 8.875C19.9883 8.75 20.0156 8.61719 20.0156 8.47656C20.0156 8.42969 20.0117 8.37891 20.0039 8.32422C19.9961 8.26953 19.9766 8.21875 19.9453 8.17188H19.9688Z" fill="#FDB52A"/>
</svg>
