<svg width="21" height="21" viewBox="0 0 21 21" fill="none" xmlns="http://www.w3.org/2000/svg">
<path d="M15.5625 20.0547C15.4844 20.0547 15.4062 20.0469 15.3281 20.0312C15.25 20.0156 15.1719 19.9844 15.0938 19.9375L10.0078 17.2656L4.92188 19.9375C4.84375 19.9844 4.76562 20.0156 4.6875 20.0312C4.60938 20.0469 4.53125 20.0547 4.45312 20.0547C4.17188 20.0547 3.93359 19.957 3.73828 19.7617C3.54297 19.5664 3.44531 19.3359 3.44531 19.0703C3.44531 19.0391 3.44531 19.0078 3.44531 18.9766C3.44531 18.9453 3.45312 18.9141 3.46875 18.8828L4.42969 13.2109L0.304688 9.20312C0.210938 9.10938 0.136719 9 0.0820312 8.875C0.0273438 8.75 0 8.61719 0 8.47656C0 8.22656 0.0820312 8.00781 0.246094 7.82031C0.410156 7.63281 0.617188 7.52344 0.867188 7.49219L6.5625 6.67188L9.11719 1.49219C9.21094 1.33594 9.33594 1.21094 9.49219 1.11719C9.64844 1.02344 9.82031 0.976562 10.0078 0.976562C10.1953 0.976562 10.3672 1.02344 10.5234 1.11719C10.6797 1.21094 10.8047 1.33594 10.8984 1.49219L13.4531 6.67188L19.1484 7.49219C19.3984 7.52344 19.6055 7.63281 19.7695 7.82031C19.9336 8.00781 20.0156 8.22656 20.0156 8.47656C20.0156 8.61719 19.9883 8.75 19.9336 8.875C19.8789 9 19.8047 9.10938 19.7109 9.20312L15.5859 13.2109L16.5469 18.8828C16.5625 18.9141 16.5703 18.9453 16.5703 18.9766C16.5703 19.0078 16.5703 19.0391 16.5703 19.0703C16.5703 19.3359 16.4727 19.5664 16.2773 19.7617C16.082 19.957 15.8438 20.0547 15.5625 20.0547ZM10.0078 15.1328C10.0859 15.1328 10.168 15.1445 10.2539 15.168C10.3398 15.1914 10.4141 15.2188 10.4766 15.25L14.25 17.2422L13.5234 13.0469C13.5234 13.0156 13.5195 12.9844 13.5117 12.9531C13.5039 12.9219 13.5 12.8906 13.5 12.8594C13.5 12.7188 13.5273 12.5898 13.582 12.4727C13.6367 12.3555 13.7109 12.25 13.8047 12.1562L16.8516 9.17969L12.6562 8.57031C12.4844 8.53906 12.332 8.47656 12.1992 8.38281C12.0664 8.28906 11.9688 8.17188 11.9062 8.03125L11.8828 8.00781L10.0078 4.21094L8.13281 8.00781C8.05469 8.16406 7.94922 8.28906 7.81641 8.38281C7.68359 8.47656 7.53906 8.53906 7.38281 8.57031H7.35938L3.16406 9.17969L6.21094 12.1562C6.30469 12.25 6.37891 12.3555 6.43359 12.4727C6.48828 12.5898 6.51562 12.7188 6.51562 12.8594C6.51562 12.8906 6.51172 12.9219 6.50391 12.9531C6.49609 12.9844 6.49219 13.0156 6.49219 13.0469L5.76562 17.2188L9.53906 15.25C9.60156 15.2188 9.67578 15.1914 9.76172 15.168C9.84766 15.1445 9.92969 15.1328 10.0078 15.1328Z" fill="#FDB52A"/>
</svg>
