<svg width="64" height="64" viewBox="0 0 64 64" fill="none" xmlns="http://www.w3.org/2000/svg">
<rect width="64" height="64" rx="12" fill="#F4F9E7"/>
<path d="M14.25 38.6V32.025C14.25 31.1 14.9 30.3 15.775 30.125L17.55 29.625L18.575 29.325C18.7 29.3 18.8 29.175 18.8 29.05V27.85L18.75 27.8C18.225 27.4 17.9 26.775 17.825 26.125C17.8 25.9 17.8 25.725 17.775 25.625H17.575C17.375 25.625 17.2 25.475 17.175 25.3L17 24.25C16.95 23.95 17.2 23.675 17.5 23.675L17.55 21.75C17.55 20.575 18.525 19.6 19.725 19.6H21.125C22.325 19.6 23.3 20.55 23.3 21.75L23.35 23.675C23.65 23.675 23.9 23.95 23.85 24.25L23.7 25.25C23.675 25.45 23.5 25.575 23.3 25.575H23.1C23.075 25.675 23.075 25.875 23.05 26.075C23 26.725 22.65 27.35 22.125 27.75L22.05 27.8V29C22.05 29.15 22.15 29.25 22.275 29.275L23.075 29.5C23.525 29.225 24 29 24.525 28.9H24.55L23.025 28.475V28.25C23.55 27.725 23.875 27.075 23.975 26.375C24.325 26.175 24.6 25.8 24.65 25.4L24.8 24.4C24.875 23.975 24.75 23.525 24.45 23.2C24.4 23.15 24.35 23.075 24.3 23.05L24.325 21.75C24.325 20.025 22.9 18.625 21.15 18.625H19.75C18 18.625 16.575 20.025 16.575 21.75L16.55 23.05C16.5 23.1 16.45 23.15 16.375 23.225C16.1 23.55 15.975 24 16.025 24.425L16.175 25.425C16.25 25.85 16.5 26.2 16.85 26.425C16.95 27.15 17.3 27.8 17.8 28.3V28.5L17.275 28.65L15.525 29.15C14.2 29.45 13.25 30.65 13.25 32.025V38.6V39.175L13.75 39.475L20.9 43.7V42.55L14.25 38.6Z" fill="#668D00" stroke="#668D00" stroke-width="0.5"/>
<path d="M48.4499 29.175L46.1749 28.525V28.3C46.6749 27.8 47.0249 27.125 47.1249 26.425C47.4749 26.225 47.7249 25.875 47.7999 25.425L47.9499 24.425C48.0249 24 47.8999 23.55 47.5999 23.225C47.5499 23.175 47.4999 23.1 47.4499 23.05L47.4249 21.75C47.4249 20.025 45.9999 18.625 44.2499 18.625H42.8499C41.0999 18.625 39.6749 20.025 39.6749 21.75L39.6499 23.05C39.5999 23.1 39.5499 23.15 39.4999 23.2C39.2249 23.525 39.0999 23.975 39.1499 24.4L39.2999 25.4C39.3749 25.825 39.6249 26.2 39.9749 26.4C40.0749 27.1 40.4249 27.775 40.9249 28.275V28.5L40.3999 28.65L39.4499 28.925C39.9749 29.05 40.4749 29.25 40.9249 29.55L41.6749 29.325C41.7999 29.3 41.8999 29.175 41.8999 29.05V27.85L41.8249 27.8C41.2999 27.4 40.9499 26.775 40.8999 26.125C40.8749 25.9 40.8499 25.7 40.8499 25.625H40.6499C40.4499 25.625 40.2749 25.475 40.2499 25.3L40.0999 24.3C40.0499 24 40.2999 23.725 40.5999 23.725L40.6499 21.8C40.6499 20.625 41.6249 19.675 42.8249 19.675H44.2249C45.4249 19.675 46.4 20.625 46.4 21.8L46.4499 23.725C46.7499 23.725 46.9999 24 46.9499 24.3L46.7999 25.3C46.7749 25.5 46.6 25.625 46.4 25.625H46.1999C46.1749 25.725 46.175 25.925 46.15 26.125C46.1 26.775 45.7499 27.4 45.2249 27.8L45.15 27.85V29.05C45.15 29.175 45.2499 29.3 45.3749 29.325L48.1749 30.125C49.0749 30.3 49.6999 31.1 49.6999 32.025V38.6L43.0749 42.5V43.65L50.1999 39.45L50.6999 39.15V38.575V32.05C50.7499 30.675 49.7999 29.475 48.4499 29.175Z" fill="#668D00" stroke="#668D00" stroke-width="0.5"/>
<path d="M28.85 19.5002C29.55 19.5002 30.15 19.1252 30.475 18.5002L30.5 18.4502C31.125 19.1002 32 19.4752 32.925 19.4752H35.65V18.5752V18.4752H32.925C32.075 18.4752 31.275 18.0002 30.875 17.2752L30.425 16.4502L29.6 18.0252C29.45 18.3002 29.175 18.4752 28.85 18.4752H28.375L28.35 19.5002H28.85Z" fill="#668D00"/>
<path d="M39.275 29.6752L35.45 28.5752V28.2752V27.6252C36.3 26.8502 36.825 25.8002 36.925 24.6502C37.45 24.4502 37.825 23.9752 37.925 23.4002L38.175 21.8752C38.25 21.3752 38.1 20.8502 37.775 20.4752C37.675 20.3502 37.55 20.2502 37.425 20.1502L37.375 17.9252C37.375 15.6002 35.45 13.7002 33.075 13.7002H30.95C28.575 13.7002 26.65 15.6002 26.65 17.9252L26.6 20.1502C26.475 20.2502 26.35 20.3502 26.25 20.4752C25.925 20.8502 25.775 21.3752 25.85 21.8752L26.1 23.4002C26.2 23.9752 26.575 24.4252 27.1 24.6252C27.2 25.7752 27.75 26.8252 28.575 27.6002V28.5502L27.4 28.8752L24.75 29.6252C22.95 30.0002 21.675 31.6252 21.675 33.4752V43.4252V44.0002L22.175 44.3002L31.675 49.9252L32.2 50.2252L32.7 49.9252L41.9501 44.3002L42.425 44.0002V43.4252V33.5252C42.375 31.6752 41.075 30.0752 39.275 29.6752ZM41.375 43.4752L32.125 49.1002L22.625 43.4752V33.5252C22.625 32.1252 23.6 30.9252 24.95 30.6502L27.65 29.8752L29.2 29.4252C29.4 29.3752 29.55 29.2002 29.55 29.0002V28.3752L29.625 28.4252C30.15 28.7752 30.75 28.9752 31.375 28.9752H31.875V27.9752H31.375C30.95 27.9752 30.55 27.8502 30.2 27.6002L29.55 27.1502L29.45 27.0752C28.65 26.4502 28.15 25.5252 28.05 24.5252C28.025 24.2002 28 23.9002 27.975 23.7502H27.65C27.35 23.7502 27.1 23.5252 27.05 23.2502L26.8 21.7252C26.725 21.2752 27.075 20.8502 27.55 20.8502L27.625 17.9252C27.625 16.1252 29.1 14.6752 30.925 14.6752H33.05C34.875 14.6752 36.35 16.1252 36.35 17.9252L36.425 20.8502C36.9 20.8502 37.25 21.2502 37.175 21.7252L36.925 23.2502C36.875 23.5502 36.625 23.7502 36.325 23.7502H36C35.975 23.9002 35.95 24.2002 35.925 24.5252C35.85 25.5252 35.325 26.4502 34.525 27.0752L34.425 27.1502V28.2752V29.0002V30.8752H35.425V29.6002L39 30.6252C40.35 30.9002 41.3251 32.1002 41.3251 33.5002V43.4752H41.375Z" fill="#668D00" stroke="#668D00" stroke-width="0.5"/>
<path d="M37.425 44.2504L35.975 40.6004C36.875 39.6254 37.425 38.3504 37.425 36.9254C37.425 33.9504 34.975 31.5254 31.975 31.5254C28.975 31.5254 26.525 33.9504 26.525 36.9254C26.525 38.3504 27.075 39.6254 27.975 40.6004L26.575 44.2504C26.5 44.4254 26.55 44.6254 26.675 44.7754C26.8 44.9254 27 44.9754 27.175 44.9254L28.95 44.4254L29.9 45.9754C30 46.1254 30.15 46.2254 30.325 46.2254H30.375C30.575 46.2004 30.725 46.0754 30.8 45.9004L32 42.8504L33.2 45.9004C33.275 46.0754 33.425 46.2004 33.625 46.2254H33.675C33.85 46.2254 34 46.1254 34.1 45.9754L35.05 44.4254L36.825 44.9254C37 44.9754 37.2 44.9254 37.325 44.7754C37.45 44.6254 37.5 44.4254 37.425 44.2504ZM36.45 36.9254C36.45 39.3504 34.45 41.3254 32 41.3254C29.55 41.3254 27.55 39.3504 27.55 36.9254C27.55 34.5004 29.55 32.5254 32 32.5254C34.45 32.5254 36.45 34.5004 36.45 36.9254ZM30.225 44.6004L29.6 43.5754C29.5 43.4254 29.35 43.3254 29.175 43.3254C29.125 43.3254 29.075 43.3254 29.05 43.3504L27.875 43.6754L28.825 41.3004C29.5 41.8004 30.3 42.1254 31.175 42.2754L30.225 44.6004ZM34.95 43.3504C34.725 43.3004 34.5 43.3754 34.4 43.5754L33.775 44.6004L32.85 42.2504C33.725 42.1254 34.525 41.7754 35.2 41.2754L36.15 43.6504L34.95 43.3504Z" fill="#668D00"/>
<path d="M28.9 36.4003L30.075 37.5503L29.8 39.1753C29.775 39.3503 29.85 39.5503 30 39.6753C30.15 39.7753 30.35 39.8003 30.525 39.7253L32 38.9503L33.475 39.7253C33.55 39.7753 33.625 39.7753 33.7 39.7753C33.8 39.7753 33.9 39.7503 34 39.6753C34.15 39.5753 34.225 39.3753 34.2 39.1753L33.925 37.5503L35.1 36.4003C35.225 36.2753 35.275 36.0753 35.225 35.8753C35.175 35.7003 35 35.5503 34.825 35.5253L33.175 35.3003L32.45 33.8253C32.375 33.6503 32.2 33.5503 32 33.5503C31.8 33.5503 31.625 33.6503 31.55 33.8253L30.825 35.3003L29.175 35.5253C28.975 35.5503 28.825 35.6753 28.775 35.8753C28.725 36.0753 28.775 36.2753 28.9 36.4003ZM31.225 36.2753C31.4 36.2503 31.525 36.1503 31.6 36.0003L32 35.2003L32.4 36.0003C32.475 36.1503 32.625 36.2503 32.775 36.2753L33.675 36.4003L33.025 37.0253C32.9 37.1503 32.85 37.3003 32.875 37.4753L33.025 38.3503L32.225 37.9253C32.15 37.8753 32.075 37.8753 32 37.8753C31.925 37.8753 31.85 37.9003 31.775 37.9253L30.975 38.3503L31.125 37.4753C31.15 37.3003 31.1 37.1503 30.975 37.0253L30.325 36.4003L31.225 36.2753Z" fill="#668D00"/>
</svg>
