<svg width="64" height="64" viewBox="0 0 64 64" fill="none" xmlns="http://www.w3.org/2000/svg">
<rect width="64" height="64" rx="12" fill="#FFEFF6"/>
<g clip-path="url(#clip0_2160_7813)">
<path d="M51.576 39.483L48.23 30.7185C48.0686 30.2936 47.7502 29.9569 47.3334 29.7707C46.9172 29.5846 46.455 29.5719 46.033 29.7341L42.1385 31.2184C41.4804 31.4715 41.068 32.0926 41.0459 32.7576C40.0643 32.4922 38.5923 32.141 37.1296 31.9162C34.6235 31.5312 33.019 31.6344 32.2254 32.2319C32.1494 32.2819 32.0749 32.3315 32.0006 32.3812C31.9209 32.3277 31.8466 32.2787 31.7736 32.2312C30.9788 31.6343 29.374 31.5313 26.8688 31.9163C25.4046 32.1413 23.9337 32.4924 22.9533 32.7577C22.9321 32.0925 22.519 31.4714 21.8581 31.218L17.9679 29.7345C17.5438 29.5719 17.0812 29.5849 16.6654 29.771C16.2495 29.9572 15.9315 30.2937 15.7704 30.7179L12.4239 39.4837C12.091 40.3604 12.5321 41.3465 13.408 41.6822L17.2982 43.1657C17.4953 43.2412 17.7006 43.2789 17.9057 43.2789C18.1423 43.2789 18.3786 43.2288 18.6015 43.129C18.8644 43.0113 19.0881 42.8332 19.2584 42.6107C19.8946 43.1957 20.5637 43.8268 21.2648 44.4884C22.9297 46.0594 24.6512 47.6839 26.1483 48.8847C28.4846 50.7597 30.4235 51.6905 32.0124 51.6904C32.657 51.6904 33.244 51.5372 33.7764 51.2317C34.7602 51.6114 36.0356 51.5866 37.0749 49.831C37.7382 50.1126 38.4913 50.113 39.17 49.817C39.8903 49.5029 40.4228 48.9002 40.6472 48.1649C41.4187 48.0534 42.0988 47.587 42.4764 46.8902C42.8638 46.18 42.8981 45.2717 42.5928 44.5512L44.7394 42.6089C44.9095 42.8322 45.1334 43.0111 45.3972 43.1293C45.6199 43.229 45.856 43.279 46.0924 43.279C46.2972 43.279 46.5023 43.2414 46.6988 43.1661L50.5935 41.6819C51.4679 41.3455 51.9088 40.3595 51.576 39.4831V39.483ZM32.7821 32.9853C33.8788 32.1395 38.429 32.956 41.3028 33.8015L44.3256 41.7198L42.0302 43.7968C41.8934 43.6558 41.7451 43.5022 41.5871 43.3387C40.1063 41.8053 37.8685 39.4879 36.1644 38.216C34.378 36.8836 33.7563 37.1737 32.5202 37.9571C32.3301 38.0776 32.1147 38.2141 31.8724 38.3552C29.5525 39.7087 28.8733 38.9464 28.646 38.6761C28.3744 38.314 28.2781 37.9305 28.3514 37.5042C28.4938 36.6766 29.3731 35.2245 32.7531 33.0059C32.7631 32.9994 32.7728 32.9925 32.7821 32.9852V32.9853ZM18.2187 42.274C18.0314 42.3578 17.8236 42.3637 17.6328 42.2907L13.7425 40.8072C13.3482 40.6561 13.1496 40.2116 13.2994 39.8172L16.6459 31.0512C16.7182 30.8607 16.8611 30.7096 17.0482 30.6259C17.1484 30.5811 17.2544 30.5586 17.3606 30.5586C17.4527 30.5586 17.5449 30.5754 17.6335 30.6094L21.5237 32.0929C21.7146 32.1661 21.8661 32.3097 21.9501 32.4972C22.0339 32.6844 22.0399 32.8922 21.9671 33.0823C21.9671 33.0826 21.9669 33.0827 21.9668 33.083L18.6231 41.8476C18.5499 42.0386 18.4062 42.19 18.2187 42.274ZM41.6535 46.4426C41.4055 46.9001 40.9486 47.1973 40.4362 47.246C37.2494 44.4613 35.6568 43.0689 35.6568 43.0689C35.4621 42.8985 35.1661 42.9184 34.996 43.1132C34.8256 43.3079 34.8455 43.6038 35.0403 43.774C35.0403 43.774 36.6097 45.1462 39.7506 47.8909C39.6053 48.3657 39.2614 48.7551 38.7957 48.9583C38.258 49.1928 37.6486 49.1399 37.162 48.8179C33.8123 46.0592 32.136 44.6808 32.136 44.6808C31.936 44.5164 31.641 44.5452 31.4767 44.745C31.3124 44.9448 31.3412 45.2399 31.541 45.4042C31.541 45.4042 33.1255 46.7072 36.2917 49.3148C35.4817 50.7179 34.6442 50.6015 33.9838 50.3033L28.9242 46.2579C28.7221 46.0963 28.4274 46.1292 28.266 46.3312C28.1044 46.5333 28.1373 46.828 28.3393 46.9895L32.8689 50.6113C31.4172 51.083 29.3588 50.26 26.7346 48.154C25.2668 46.9766 23.5592 45.3652 21.9078 43.8069C21.124 43.0672 20.3797 42.3651 19.674 41.7207L22.6949 33.8021C25.5295 32.9667 29.9997 32.1596 31.1732 32.9534C28.8806 34.6011 27.6523 36.0437 27.4282 37.3452C27.3095 38.0351 27.4704 38.6762 27.9064 39.251C27.9111 39.2571 27.9159 39.2631 27.9208 39.269C28.8464 40.3722 30.3347 40.3369 32.3444 39.1645C32.6015 39.0147 32.8248 38.8732 33.0218 38.7483C33.509 38.4395 33.8309 38.2356 34.1387 38.2331C34.4706 38.2274 34.9205 38.4568 35.6042 38.9669C37.2473 40.1933 39.4535 42.4777 40.9133 43.9894C41.187 44.2729 41.4314 44.5259 41.6382 44.7367C41.9263 45.2014 41.9352 45.9262 41.6535 46.4426V46.4426ZM50.2585 40.8069L46.3644 42.291C46.1744 42.3638 45.9668 42.3579 45.7799 42.2742C45.5928 42.1904 45.45 42.0394 45.3774 41.8482L42.0314 33.0837C41.8815 32.6889 42.0804 32.2444 42.4735 32.0932L46.368 30.6089C46.5569 30.5362 46.7641 30.5422 46.9511 30.6258C47.1388 30.7097 47.282 30.8608 47.3546 31.0519L50.7005 39.8164C50.8504 40.2112 50.6515 40.6557 50.2585 40.8069ZM29.5331 17.8877L29.0076 20.4808C28.9712 20.6605 29.043 20.845 29.1913 20.9527C29.3397 21.0605 29.5374 21.0718 29.697 20.9816L32.0001 19.6811L34.3032 20.9816C34.3749 21.0222 34.4543 21.0422 34.5335 21.0422C34.6305 21.0422 34.7271 21.0121 34.8088 20.9527C34.9571 20.845 35.0289 20.6605 34.9925 20.4808L34.467 17.8876L36.4137 16.0999C36.5488 15.9759 36.599 15.7845 36.5423 15.6101C36.4856 15.4358 36.3324 15.3105 36.1503 15.2895L33.525 14.9876L32.4258 12.5837C32.3496 12.4169 32.1831 12.3101 31.9999 12.3101C31.8166 12.3101 31.6501 12.4169 31.5739 12.5837L30.4747 14.9875L27.8473 15.2895C27.6651 15.3104 27.5119 15.4358 27.4553 15.6101C27.3986 15.7845 27.4489 15.976 27.5841 16.1L29.5328 17.8876L29.5331 17.8877ZM30.8445 15.888C31.0074 15.8693 31.1488 15.7667 31.217 15.6175L32.0002 13.9048L32.7834 15.6175C32.8516 15.7666 32.9928 15.8693 33.1558 15.888L35.0255 16.1031L33.6388 17.3765C33.518 17.4875 33.464 17.6537 33.4966 17.8144L33.871 19.6617L32.2305 18.7354C32.0876 18.6547 31.9128 18.6547 31.7699 18.7354L30.1294 19.6617L30.5038 17.8144C30.5363 17.6535 30.4824 17.4872 30.3613 17.3763L28.9735 16.1031L30.8445 15.888ZM35.566 26.4218C35.5093 26.2474 35.3561 26.122 35.1739 26.1012L33.2374 25.8788L32.4261 24.104C32.3499 23.9373 32.1835 23.8304 32.0001 23.8304C31.8167 23.8304 31.6503 23.9374 31.5741 24.104L30.7628 25.8788L28.8263 26.1012C28.6442 26.1221 28.491 26.2473 28.4343 26.4217C28.3776 26.5961 28.4279 26.7875 28.5629 26.9115L29.9983 28.2298L29.6121 30.1433C29.5758 30.323 29.6477 30.5073 29.796 30.6151C29.8777 30.6744 29.9743 30.7044 30.0712 30.7044C30.1503 30.7044 30.2298 30.6844 30.3015 30.6439L32 29.6844L33.6985 30.6439C33.8582 30.734 34.0559 30.7228 34.2042 30.615C34.3526 30.5072 34.4244 30.3227 34.3879 30.143L33.9999 28.2299L35.437 26.9118C35.5721 26.7878 35.6225 26.5964 35.5659 26.4219L35.566 26.4218ZM33.1717 27.7183C33.0507 27.8293 32.9967 27.9956 33.0293 28.1565L33.266 29.3235L32.2306 28.7386C32.0876 28.6579 31.9128 28.6579 31.7699 28.7386L30.7331 29.3242L30.9689 28.1562C31.0013 27.9954 30.9474 27.8294 30.8267 27.7185L29.9517 26.9148L31.1324 26.7793C31.2954 26.7606 31.4368 26.6579 31.505 26.5087L32.0003 25.4253L32.4955 26.5087C32.5637 26.6579 32.705 26.7606 32.8681 26.7793L34.048 26.9147L33.1719 27.7183L33.1717 27.7183ZM21.3992 23.6319L21.1237 24.9943C21.0874 25.1739 21.1592 25.3583 21.3074 25.466C21.4557 25.5737 21.6531 25.5851 21.8128 25.4951L23.0243 24.8122L24.2337 25.495C24.3054 25.5355 24.3848 25.5554 24.4639 25.5554C24.5609 25.5554 24.6575 25.5254 24.7392 25.4661C24.8875 25.3583 24.9593 25.174 24.9231 24.9943L24.6476 23.6319L25.6713 22.6901C25.8063 22.5661 25.8563 22.3747 25.7996 22.2004C25.7428 22.0261 25.5896 21.9009 25.4076 21.8801L24.0273 21.7219L23.4506 20.4589C23.3746 20.2922 23.2081 20.1852 23.0249 20.1851H23.0246C22.8414 20.1851 22.6751 20.2919 22.5988 20.4584L22.02 21.7219L20.6393 21.88C20.4572 21.9008 20.304 22.026 20.2473 22.2003C20.1905 22.3745 20.2406 22.5659 20.3756 22.6901L21.3993 23.6319L21.3992 23.6319ZM22.3891 22.6226C22.552 22.6039 22.6933 22.5014 22.7616 22.3522L23.0238 21.7797L23.2849 22.3517C23.3531 22.5011 23.4946 22.6038 23.6577 22.6225L24.2833 22.6941L23.8191 23.1212C23.6985 23.2322 23.6446 23.3981 23.6771 23.5587L23.8018 24.1752L23.2549 23.8664C23.112 23.7857 22.9374 23.7856 22.7946 23.8662L22.2449 24.1761L22.3698 23.5587C22.4023 23.3981 22.3485 23.2322 22.2278 23.1212L21.7636 22.6941L22.3892 22.6225L22.3891 22.6226ZM39.3523 23.6319L39.0751 24.9937C39.0385 25.1733 39.1102 25.3579 39.2585 25.4658C39.4067 25.5736 39.6042 25.5851 39.7641 25.4951L40.9757 24.8119L42.1874 25.4951C42.259 25.5354 42.3383 25.5554 42.4174 25.5554C42.5144 25.5554 42.611 25.5253 42.6928 25.4658C42.841 25.3581 42.9128 25.1738 42.8765 24.9941L42.601 23.6318L43.6248 22.69C43.7597 22.5659 43.8098 22.3745 43.7531 22.2002C43.6963 22.0259 43.5431 21.9008 43.361 21.8799L41.9803 21.7218L41.4016 20.4583C41.3253 20.2918 41.1589 20.185 40.9757 20.185H40.9755C40.7922 20.1851 40.6258 20.2921 40.5497 20.4588L39.9731 21.7218L38.5906 21.8799C38.4084 21.9008 38.2552 22.026 38.1984 22.2004C38.1416 22.3747 38.1919 22.5662 38.327 22.6902L39.3522 23.6318L39.3523 23.6319ZM40.3425 22.6226C40.5056 22.6039 40.6471 22.5012 40.7153 22.3518L40.9765 21.7798L41.2387 22.3523C41.307 22.5015 41.4483 22.604 41.6112 22.6226L42.2368 22.6943L41.7726 23.1214C41.652 23.2323 41.5981 23.3983 41.6306 23.5589L41.7555 24.1762L41.2059 23.8664C41.1345 23.8262 41.0552 23.8061 40.9759 23.8061C40.8966 23.8061 40.8173 23.8262 40.7459 23.8664L40.1978 24.1754L40.3231 23.5595C40.3559 23.3986 40.302 23.2322 40.181 23.1212L39.7162 22.6943L40.3426 22.6226L40.3425 22.6226Z" fill="#BB0052"/>
</g>
<defs>
<clipPath id="clip0_2160_7813">
<rect width="40" height="40" fill="white" transform="translate(12 12)"/>
</clipPath>
</defs>
</svg>
