<svg width="64" height="64" viewBox="0 0 64 64" fill="none" xmlns="http://www.w3.org/2000/svg">
<rect width="64" height="64" rx="12" fill="#FFF9F3"/>
<g clip-path="url(#clip0_2160_7806)">
<path d="M51.2969 35.4256V33.9907C51.2963 33.4403 51.0774 32.9127 50.6882 32.5235C50.2991 32.1343 49.7714 31.9154 49.221 31.9148H40.9891C40.4387 31.9154 39.911 32.1343 39.5218 32.5234C39.1326 32.9126 38.9137 33.4403 38.9131 33.9907V35.4256C38.9136 35.7131 38.9739 35.9973 39.0902 36.2603C39.2064 36.5232 39.3761 36.7591 39.5885 36.9529C39.3756 37.1471 39.2056 37.3835 39.0893 37.6471C38.973 37.9107 38.913 38.1956 38.9131 38.4837V39.9186C38.9133 40.2061 38.9734 40.4905 39.0896 40.7536C39.2057 41.0167 39.3754 41.2527 39.5877 41.4467C39.3751 41.6408 39.2053 41.8771 39.0891 42.1406C38.9729 42.404 38.913 42.6888 38.9131 42.9767V44.4115C38.9133 44.6991 38.9734 44.9835 39.0896 45.2466C39.2057 45.5097 39.3754 45.7457 39.5877 45.9396C39.3751 46.1338 39.2053 46.3701 39.0891 46.6336C38.9729 46.897 38.913 47.1818 38.9131 47.4697V48.9045C38.9136 49.4549 39.1325 49.9826 39.5218 50.3718C39.911 50.761 40.4387 50.9799 40.9891 50.9805H49.221C49.7714 50.9799 50.2991 50.761 50.6883 50.3718C51.0775 49.9826 51.2964 49.4549 51.2969 48.9045V47.4697C51.297 47.1818 51.2371 46.897 51.1209 46.6336C51.0048 46.3701 50.8349 46.1338 50.6223 45.9396C50.8346 45.7457 51.0043 45.5097 51.1204 45.2466C51.2366 44.9835 51.2967 44.6991 51.2969 44.4115V42.9764C51.297 42.6885 51.2371 42.4038 51.121 42.1404C51.0048 41.8769 50.835 41.6406 50.6224 41.4465C50.8347 41.2526 51.0043 41.0166 51.1204 40.7535C51.2366 40.4905 51.2967 40.2061 51.2969 39.9186V38.4837C51.297 38.1958 51.2371 37.9111 51.121 37.6477C51.0048 37.3842 50.835 37.1479 50.6225 36.9538C50.8348 36.7598 51.0044 36.5238 51.1205 36.2607C51.2366 35.9976 51.2967 35.7132 51.2969 35.4256ZM50.2032 48.9045C50.2029 49.1649 50.0993 49.4146 49.9152 49.5987C49.731 49.7829 49.4814 49.8864 49.221 49.8868H40.9891C40.7287 49.8865 40.479 49.7829 40.2949 49.5987C40.1107 49.4146 40.0071 49.1649 40.0068 48.9045V47.4697C40.0071 47.2093 40.1107 46.9596 40.2949 46.7755C40.479 46.5913 40.7287 46.4878 40.9891 46.4875H49.221C49.4814 46.4878 49.731 46.5914 49.9152 46.7755C50.0993 46.9597 50.2029 47.2093 50.2032 47.4697V48.9045ZM49.221 45.3937H40.9891C40.9868 45.3937 40.9847 45.3937 40.9825 45.3937H40.9797C40.7211 45.3905 40.4741 45.2857 40.2921 45.1019C40.11 44.9182 40.0076 44.6702 40.0068 44.4115V42.9764C40.0071 42.716 40.1107 42.4664 40.2949 42.2822C40.479 42.0981 40.7287 41.9945 40.9891 41.9943H49.221C49.4814 41.9946 49.731 42.0981 49.9151 42.2823C50.0993 42.4664 50.2029 42.716 50.2032 42.9764V44.4113C50.2024 44.67 50.0999 44.918 49.9178 45.1017C49.7357 45.2855 49.4887 45.3903 49.23 45.3935H49.2273L49.221 45.3937ZM49.221 40.9007H40.9891H40.983H40.9798C40.7212 40.8975 40.4742 40.7927 40.2921 40.609C40.1101 40.4252 40.0076 40.1772 40.0068 39.9186V38.4837C40.0071 38.2233 40.1107 37.9736 40.2949 37.7895C40.479 37.6054 40.7287 37.5018 40.9891 37.5015H49.221C49.4814 37.5018 49.731 37.6054 49.9151 37.7895C50.0993 37.9737 50.2029 38.2233 50.2032 38.4837V39.9186C50.2024 40.1773 50.0998 40.4254 49.9176 40.6092C49.7355 40.793 49.4883 40.8977 49.2295 40.9007H49.2265H49.221ZM49.221 36.4078H40.9891C40.9857 36.4078 40.9824 36.4078 40.9789 36.4078C40.9772 36.4078 40.9756 36.4078 40.9739 36.4078C40.7164 36.4027 40.4711 36.2972 40.2904 36.1136C40.1097 35.9301 40.0079 35.6832 40.0068 35.4257V33.9907C40.0071 33.7303 40.1107 33.4807 40.2949 33.2965C40.479 33.1124 40.7287 33.0088 40.9891 33.0086H49.221C49.4814 33.0088 49.731 33.1124 49.9152 33.2966C50.0993 33.4807 50.2029 33.7303 50.2032 33.9907V35.4256C50.2024 35.6844 50.0999 35.9325 49.9177 36.1163C49.7354 36.3001 49.4882 36.4048 49.2294 36.4078H49.2268H49.221ZM27.06 28.5261L13.568 38.17C13.45 38.2532 13.3038 38.2863 13.1614 38.2621C13.019 38.238 12.892 38.1584 12.808 38.0409C12.724 37.9234 12.6899 37.7775 12.7132 37.635C12.7364 37.4924 12.8151 37.3649 12.9321 37.2801L26.4243 27.6363C26.881 27.3063 27.4415 27.1524 28.0026 27.203C28.5638 27.2535 29.0878 27.505 29.4782 27.9113L32.4653 30.988C32.6809 31.2107 32.9713 31.3457 33.2805 31.3671C33.5897 31.3885 33.8959 31.2948 34.1402 31.1039L43.8259 23.5566L41.3686 23.2921C41.2968 23.2849 41.2271 23.2636 41.1636 23.2293C41.1001 23.1951 41.044 23.1486 40.9985 23.0926C40.953 23.0365 40.9191 22.9721 40.8986 22.9029C40.8782 22.8336 40.8716 22.7611 40.8793 22.6893C40.8871 22.6176 40.9089 22.5481 40.9437 22.4848C40.9784 22.4215 41.0253 22.3658 41.0817 22.3207C41.138 22.2756 41.2028 22.2422 41.2721 22.2223C41.3415 22.2024 41.4141 22.1964 41.4858 22.2046L45.2925 22.6144C45.365 22.6222 45.4351 22.6444 45.4989 22.6797C45.5626 22.715 45.6187 22.7627 45.6637 22.82C45.7088 22.8772 45.742 22.9429 45.7613 23.0132C45.7806 23.0834 45.7857 23.1569 45.7762 23.2291L45.2461 27.2794C45.226 27.4221 45.1504 27.551 45.0357 27.6383C44.921 27.7255 44.7765 27.7639 44.6337 27.7453C44.4908 27.7266 44.3611 27.6522 44.2727 27.5385C44.1843 27.4247 44.1444 27.2806 44.1617 27.1375L44.5196 24.4032L34.8125 31.9667C34.3558 32.3235 33.7832 32.4987 33.205 32.4587C32.6268 32.4187 32.0838 32.1662 31.6806 31.7499L28.6936 28.6732C28.4847 28.4558 28.2044 28.3213 27.9042 28.2942C27.6041 28.2672 27.3042 28.3496 27.06 28.5261ZM36.4517 37.4182L34.1652 35.6646C34.0697 35.5913 33.9527 35.5516 33.8324 35.5516C33.712 35.5516 33.5951 35.5913 33.4996 35.6646L31.2131 37.4182C31.1465 37.4693 31.0926 37.535 31.0554 37.6103C31.0183 37.6855 30.999 37.7683 30.999 37.8522V50.4336C30.999 50.5787 31.0566 50.7178 31.1592 50.8203C31.2618 50.9229 31.4009 50.9805 31.5459 50.9805H36.1189C36.264 50.9805 36.4031 50.9229 36.5056 50.8203C36.6082 50.7178 36.6658 50.5787 36.6658 50.4336V37.8522C36.6658 37.7683 36.6465 37.6855 36.6094 37.6103C36.5722 37.535 36.5183 37.4693 36.4517 37.4182ZM35.5721 49.887H32.0928V38.122L33.8324 36.7877L35.5721 38.122V49.887ZM28.7495 35.5414L26.463 33.7877C26.3675 33.7145 26.2505 33.6748 26.1302 33.6748C26.0099 33.6748 25.8929 33.7145 25.7974 33.7877L23.5109 35.5414C23.4443 35.5924 23.3904 35.6581 23.3533 35.7334C23.3161 35.8086 23.2968 35.8914 23.2968 35.9753V50.4336C23.2968 50.5787 23.3545 50.7178 23.457 50.8203C23.5596 50.9229 23.6987 50.9805 23.8437 50.9805H28.4167C28.5617 50.9805 28.7008 50.9229 28.8034 50.8203C28.9059 50.7178 28.9636 50.5787 28.9636 50.4336V35.9753C28.9635 35.8914 28.9442 35.8086 28.9071 35.7334C28.87 35.6581 28.8161 35.5924 28.7495 35.5414ZM27.8698 49.8868H24.3907V36.245L26.1303 34.9108L27.8699 36.245L27.8698 49.8868ZM21.0473 41.3987L18.7607 39.645C18.6653 39.5717 18.5483 39.5321 18.428 39.5321C18.3076 39.5321 18.1907 39.5717 18.0952 39.645L15.8086 41.3987C15.7421 41.4498 15.6881 41.5155 15.651 41.5907C15.6139 41.6659 15.5946 41.7487 15.5946 41.8326V50.4336C15.5946 50.5787 15.6522 50.7178 15.7547 50.8203C15.8573 50.9229 15.9964 50.9805 16.1414 50.9805H20.7145C20.7863 50.9805 20.8574 50.9664 20.9238 50.9389C20.9901 50.9114 21.0504 50.8711 21.1012 50.8203C21.152 50.7696 21.1923 50.7093 21.2197 50.6429C21.2472 50.5766 21.2614 50.5055 21.2614 50.4336V41.8326C21.2614 41.7487 21.242 41.6659 21.2049 41.5907C21.1678 41.5155 21.1139 41.4498 21.0473 41.3987ZM20.1676 49.8868H16.6883V42.1024L18.4279 40.7681L20.1676 42.1024V49.8868ZM32.7519 26.2534C34.2824 26.2525 35.7652 25.7209 36.9477 24.7492C38.1302 23.7776 38.9392 22.426 39.2369 20.9248C39.5346 19.4235 39.3026 17.8655 38.5804 16.5161C37.8582 15.1668 36.6904 14.1096 35.2761 13.5247C33.8618 12.9397 32.2885 12.8633 30.8241 13.3083C29.3598 13.7534 28.095 14.6924 27.2454 15.9654C26.3957 17.2384 26.0138 18.7666 26.1645 20.2896C26.3153 21.8127 26.9895 23.2363 28.0722 24.318C28.6863 24.9329 29.4159 25.4204 30.219 25.7526C31.0221 26.0847 31.8829 26.2549 32.7519 26.2534ZM28.8452 15.7312C29.6179 14.9585 30.6023 14.4323 31.674 14.2191C32.7458 14.0059 33.8567 14.1154 34.8662 14.5335C35.8758 14.9517 36.7386 15.6598 37.3457 16.5684C37.9528 17.477 38.2769 18.5452 38.2769 19.6379C38.2769 20.7306 37.9528 21.7988 37.3457 22.7074C36.7386 23.616 35.8758 24.3241 34.8662 24.7423C33.8567 25.1604 32.7458 25.2698 31.674 25.0566C30.6023 24.8435 29.6179 24.3173 28.8452 23.5446C28.3301 23.0327 27.9214 22.424 27.6424 21.7535C27.3635 21.0831 27.2199 20.3641 27.2199 19.6379C27.2199 18.9117 27.3635 18.1927 27.6424 17.5222C27.9214 16.8518 28.3301 16.2431 28.8452 15.7312ZM30.278 21.1657C30.2619 21.0957 30.2598 21.0232 30.2717 20.9524C30.2836 20.8815 30.3094 20.8138 30.3475 20.7529C30.3856 20.692 30.4354 20.6393 30.4939 20.5976C30.5524 20.556 30.6185 20.5262 30.6885 20.5102C30.7585 20.4941 30.831 20.4919 30.9018 20.5039C30.9726 20.5158 31.0404 20.5415 31.1013 20.5797C31.1622 20.6178 31.2149 20.6675 31.2566 20.726C31.2982 20.7845 31.3279 20.8507 31.344 20.9207C31.5369 21.7599 32.4186 22.0321 33.2076 21.9293C33.6418 21.8729 33.9849 21.6501 34.1032 21.3482C34.1911 21.1241 34.1409 20.8824 33.9621 20.6676C33.6565 20.3004 33.3314 20.2518 32.8391 20.1781C32.5153 20.1393 32.1964 20.0666 31.8878 19.9612C31.882 19.9592 31.8764 19.957 31.8707 19.9547C31.0306 19.6143 30.5357 18.9542 30.5471 18.1891C30.5589 17.4087 31.0873 16.7114 31.8937 16.4124C32.0083 16.37 32.1254 16.3351 32.2445 16.3078V15.739C32.2445 15.594 32.3021 15.4549 32.4047 15.3523C32.5072 15.2498 32.6463 15.1921 32.7914 15.1921C32.9364 15.1921 33.0755 15.2498 33.1781 15.3523C33.2806 15.4549 33.3382 15.594 33.3382 15.739V16.2943C34.1479 16.4679 34.8347 17.0539 35.1736 17.9485C35.2233 18.0838 35.2177 18.2332 35.1578 18.3643C35.098 18.4955 34.9888 18.5977 34.854 18.6487C34.7192 18.6998 34.5697 18.6955 34.438 18.6369C34.3063 18.5783 34.2031 18.4701 34.1507 18.3358C33.8341 17.4999 33.0797 17.1389 32.2739 17.4374C31.9 17.5761 31.6456 17.8845 31.6411 18.205C31.6367 18.5082 31.8611 18.7679 32.2734 18.9372C32.5102 19.0144 32.7542 19.0676 33.0017 19.0961C33.5779 19.1825 34.231 19.2804 34.8029 19.9675C35.2357 20.4871 35.355 21.1524 35.1219 21.7469C34.854 22.4305 34.1914 22.904 33.3492 23.0136C33.3456 23.0141 33.3421 23.0142 33.3386 23.0146V23.5365C33.3386 23.6816 33.281 23.8207 33.1785 23.9232C33.0759 24.0258 32.9368 24.0834 32.7918 24.0834C32.6467 24.0834 32.5076 24.0258 32.4051 23.9232C32.3025 23.8207 32.2449 23.6816 32.2449 23.5365V22.9827C31.2513 22.785 30.4976 22.1205 30.278 21.1657Z" fill="#E3790F" stroke="#E3790F" stroke-width="0.5"/>
</g>
<defs>
<clipPath id="clip0_2160_7806">
<rect width="40" height="40" fill="white" transform="translate(12 12)"/>
</clipPath>
</defs>
</svg>
