<svg width="64" height="64" viewBox="0 0 64 64" fill="none" xmlns="http://www.w3.org/2000/svg">
<rect width="64" height="64" rx="12" fill="#E7F8F9"/>
<path d="M37.1175 13.2031C32.5152 13.2031 28.7842 16.9341 28.7842 21.5365C28.7842 26.1388 32.5152 29.8698 37.1175 29.8698C41.7198 29.8698 45.4508 26.1388 45.4508 21.5365C45.4508 16.9341 41.7198 13.2031 37.1175 13.2031ZM37.1175 28.6793C33.1726 28.6793 29.9746 25.4813 29.9746 21.5365C29.9746 17.5916 33.1726 14.3936 37.1175 14.3936C41.0624 14.3936 44.2604 17.5916 44.2604 21.5365C44.2604 25.4813 41.0624 28.6793 37.1175 28.6793Z" fill="#00929A"/>
<path fill-rule="evenodd" clip-rule="evenodd" d="M42.8715 21.5426C42.8683 19.9482 41.6171 18.652 40.0771 18.652C39.4354 18.652 38.7329 19.0016 37.9917 19.6914C37.6422 20.0153 37.3343 20.3681 37.1097 20.6471C37.1096 20.6473 37.1093 20.6473 37.1092 20.6471C36.3104 19.7007 35.2293 18.6519 34.1611 18.6519C32.8944 18.6581 31.8201 19.5385 31.4816 20.735C31.4816 20.7352 31.4815 20.7354 31.4814 20.7356C31.456 20.7997 31.4437 20.8447 31.4405 20.8591C31.3924 21.074 31.3635 21.2986 31.3635 21.5296C31.3635 23.1241 32.6147 24.4203 34.158 24.4203C34.7996 24.4203 35.5022 24.0706 36.2433 23.3809C36.593 23.0569 36.901 22.704 37.1255 22.4249C37.1255 22.4216 37.1287 22.4216 37.1287 22.4184C37.9307 23.3649 39.012 24.414 40.0803 24.414C41.3641 24.4077 42.4489 23.5089 42.7716 22.2876C42.7851 22.2496 42.7922 22.2233 42.7945 22.2132C42.8426 21.9982 42.8715 21.7736 42.8715 21.5426ZM35.4957 22.5307C34.8381 23.1403 34.405 23.2719 34.1611 23.2719C33.2371 23.2719 32.4864 22.4954 32.4864 21.5362C32.4864 20.5865 33.2372 19.8102 34.1611 19.8005C34.2145 19.8005 34.2677 19.8106 34.3167 19.8319C34.8663 20.0701 35.3216 20.4456 35.4475 20.5673C35.9246 21.0315 36.3729 21.563 36.3715 21.5651C36.1566 21.8346 35.8519 22.2003 35.4957 22.5307ZM37.8666 21.5042C37.8665 21.5041 37.8664 21.504 37.8663 21.5037C38.0811 21.2346 38.3846 20.8707 38.7393 20.5416C39.397 19.9256 39.8269 19.8005 40.074 19.8005C40.998 19.8005 41.7486 20.5769 41.7486 21.5362C41.7486 22.4859 40.9979 23.2622 40.074 23.2719C40.0576 23.2719 40.04 23.2707 40.0216 23.2691C39.4276 23.0386 38.9244 22.6279 38.7906 22.4987C38.3157 22.0335 37.8666 21.5042 37.8666 21.5042Z" fill="#00929A"/>
<path d="M46.4446 50.5557H17.5557C15.35 50.5557 13.5557 48.7614 13.5557 46.5557V29.3335C13.5557 27.1278 15.35 25.3335 17.5557 25.3335H27.9231C28.2912 25.3335 28.5898 25.6319 28.5898 26.0002C28.5898 26.3684 28.2912 26.6668 27.9231 26.6668H17.5557C16.0852 26.6668 14.889 27.8631 14.889 29.3335V46.5557C14.889 48.0261 16.0852 49.2224 17.5557 49.2224H46.4446C47.9149 49.2224 49.1112 48.0261 49.1112 46.5557V29.3335C49.1112 27.8631 47.9149 26.6668 46.4446 26.6668C46.0764 26.6668 45.7779 26.3684 45.7779 26.0002C45.7779 25.6319 46.0764 25.3335 46.4446 25.3335C48.6502 25.3335 50.4446 27.1278 50.4446 29.3335V46.5557C50.4446 48.7614 48.6502 50.5557 46.4446 50.5557Z" fill="#00929A"/>
<path d="M22.8889 46.6665C22.5208 46.6665 22.2222 46.3679 22.2222 45.9998V39.222H19.4444V45.9998C19.4444 46.3679 19.1459 46.6665 18.7778 46.6665C18.4096 46.6665 18.1111 46.3679 18.1111 45.9998V38.5553C18.1111 38.1872 18.4096 37.8887 18.7778 37.8887H22.8889C23.257 37.8887 23.5555 38.1872 23.5555 38.5553V45.9998C23.5555 46.3679 23.257 46.6665 22.8889 46.6665Z" fill="#00929A"/>
<path d="M30.3334 46.6666C29.9653 46.6666 29.6668 46.3681 29.6668 45.9999V37.5555H26.889V45.9999C26.889 46.3681 26.5904 46.6666 26.2223 46.6666C25.8542 46.6666 25.5557 46.3681 25.5557 45.9999V36.8888C25.5557 36.5207 25.8542 36.2222 26.2223 36.2222H30.3334C30.7016 36.2222 31.0001 36.5207 31.0001 36.8888V45.9999C31.0001 46.3681 30.7016 46.6666 30.3334 46.6666Z" fill="#00929A"/>
<path d="M37.7778 46.6667C37.4097 46.6667 37.1111 46.3681 37.1111 46V35.3333H34.3333V46C34.3333 46.3681 34.0348 46.6667 33.6667 46.6667C33.2986 46.6667 33 46.3681 33 46V34.6667C33 34.2986 33.2986 34 33.6667 34H37.7778C38.1459 34 38.4444 34.2986 38.4444 34.6667V46C38.4444 46.3681 38.1459 46.6667 37.7778 46.6667Z" fill="#00929A"/>
<path d="M45.2221 46.6665C44.854 46.6665 44.5554 46.3679 44.5554 45.9998V33.222H41.7777V45.9998C41.7777 46.3679 41.4791 46.6665 41.111 46.6665C40.7429 46.6665 40.4443 46.3679 40.4443 45.9998V32.5553C40.4443 32.1872 40.7429 31.8887 41.111 31.8887H45.2221C45.5902 31.8887 45.8888 32.1872 45.8888 32.5553V45.9998C45.8888 46.3679 45.5902 46.6665 45.2221 46.6665Z" fill="#00929A"/>
</svg>
