<svg width="40" height="40" viewBox="0 0 40 40" fill="none" xmlns="http://www.w3.org/2000/svg">
<path d="M25.1175 1.20312C20.5152 1.20312 16.7842 4.93413 16.7842 9.53646C16.7842 14.1388 20.5152 17.8698 25.1175 17.8698C29.7198 17.8698 33.4508 14.1388 33.4508 9.53646C33.4508 4.93413 29.7198 1.20312 25.1175 1.20312ZM25.1175 16.6793C21.1726 16.6793 17.9746 13.4813 17.9746 9.53646C17.9746 5.59157 21.1726 2.39357 25.1175 2.39357C29.0624 2.39357 32.2604 5.59157 32.2604 9.53646C32.2604 13.4813 29.0624 16.6793 25.1175 16.6793Z" fill="#00929A"/>
<path fill-rule="evenodd" clip-rule="evenodd" d="M30.8715 9.54263C30.8683 7.94819 29.6171 6.65197 28.0771 6.65197C27.4354 6.65197 26.7329 7.00163 25.9917 7.69141C25.6422 8.0153 25.3343 8.36808 25.1097 8.64708C25.1096 8.6473 25.1093 8.6473 25.1092 8.64708C24.3104 7.70074 23.2293 6.65186 22.1611 6.65186C20.8944 6.65808 19.8201 7.53852 19.4816 8.73497C19.4816 8.73519 19.4815 8.73541 19.4814 8.73563C19.456 8.79974 19.4437 8.84474 19.4405 8.85908C19.3924 9.07397 19.3635 9.29863 19.3635 9.52963C19.3635 11.1241 20.6147 12.4203 22.158 12.4203C22.7996 12.4203 23.5022 12.0706 24.2433 11.3809C24.593 11.0569 24.901 10.704 25.1255 10.4249C25.1255 10.4216 25.1287 10.4216 25.1287 10.4184C25.9307 11.3649 27.012 12.414 28.0803 12.414C29.3641 12.4077 30.4489 11.5089 30.7716 10.2876C30.7851 10.2496 30.7922 10.2233 30.7945 10.2132C30.8426 9.99819 30.8715 9.77363 30.8715 9.54263ZM23.4957 10.5307C22.8381 11.1403 22.405 11.2719 22.1611 11.2719C21.2371 11.2719 20.4864 10.4954 20.4864 9.53619C20.4864 8.58652 21.2372 7.81019 22.1611 7.80052C22.2145 7.80052 22.2677 7.81063 22.3167 7.83186C22.8663 8.07008 23.3216 8.44563 23.4475 8.5673C23.9246 9.03152 24.3729 9.56297 24.3715 9.56508C24.1566 9.83463 23.8519 10.2003 23.4957 10.5307ZM25.8666 9.50419C25.8665 9.50408 25.8664 9.50397 25.8663 9.50374C26.0811 9.23463 26.3846 8.87074 26.7393 8.54163C27.397 7.92563 27.8269 7.80052 28.074 7.80052C28.998 7.80052 29.7486 8.57686 29.7486 9.53619C29.7486 10.4859 28.9979 11.2622 28.074 11.2719C28.0576 11.2719 28.04 11.2707 28.0216 11.2691C27.4276 11.0386 26.9244 10.6279 26.7906 10.4987C26.3157 10.0335 25.8666 9.50419 25.8666 9.50419Z" fill="#00929A"/>
<path d="M34.4446 38.5557H5.55566C3.35 38.5557 1.55566 36.7614 1.55566 34.5557V17.3335C1.55566 15.1278 3.35 13.3335 5.55566 13.3335H15.9231C16.2912 13.3335 16.5898 13.6319 16.5898 14.0002C16.5898 14.3684 16.2912 14.6668 15.9231 14.6668H5.55566C4.08522 14.6668 2.889 15.8631 2.889 17.3335V34.5557C2.889 36.0261 4.08522 37.2224 5.55566 37.2224H34.4446C35.9149 37.2224 37.1112 36.0261 37.1112 34.5557V17.3335C37.1112 15.8631 35.9149 14.6668 34.4446 14.6668C34.0764 14.6668 33.7779 14.3684 33.7779 14.0002C33.7779 13.6319 34.0764 13.3335 34.4446 13.3335C36.6502 13.3335 38.4446 15.1278 38.4446 17.3335V34.5557C38.4446 36.7614 36.6502 38.5557 34.4446 38.5557Z" fill="#00929A"/>
<path d="M10.8889 34.6665C10.5208 34.6665 10.2222 34.3679 10.2222 33.9998V27.222H7.44442V33.9998C7.44442 34.3679 7.14586 34.6665 6.77775 34.6665C6.40964 34.6665 6.11108 34.3679 6.11108 33.9998V26.5553C6.11108 26.1872 6.40964 25.8887 6.77775 25.8887H10.8889C11.257 25.8887 11.5555 26.1872 11.5555 26.5553V33.9998C11.5555 34.3679 11.257 34.6665 10.8889 34.6665Z" fill="#00929A"/>
<path d="M18.3334 34.6666C17.9653 34.6666 17.6668 34.3681 17.6668 33.9999V25.5555H14.889V33.9999C14.889 34.3681 14.5904 34.6666 14.2223 34.6666C13.8542 34.6666 13.5557 34.3681 13.5557 33.9999V24.8888C13.5557 24.5207 13.8542 24.2222 14.2223 24.2222H18.3334C18.7016 24.2222 19.0001 24.5207 19.0001 24.8888V33.9999C19.0001 34.3681 18.7016 34.6666 18.3334 34.6666Z" fill="#00929A"/>
<path d="M25.7778 34.6667C25.4097 34.6667 25.1111 34.3681 25.1111 34V23.3333H22.3333V34C22.3333 34.3681 22.0348 34.6667 21.6667 34.6667C21.2986 34.6667 21 34.3681 21 34V22.6667C21 22.2986 21.2986 22 21.6667 22H25.7778C26.1459 22 26.4444 22.2986 26.4444 22.6667V34C26.4444 34.3681 26.1459 34.6667 25.7778 34.6667Z" fill="#00929A"/>
<path d="M33.2221 34.6665C32.854 34.6665 32.5554 34.3679 32.5554 33.9998V21.222H29.7777V33.9998C29.7777 34.3679 29.4791 34.6665 29.111 34.6665C28.7429 34.6665 28.4443 34.3679 28.4443 33.9998V20.5553C28.4443 20.1872 28.7429 19.8887 29.111 19.8887H33.2221C33.5902 19.8887 33.8888 20.1872 33.8888 20.5553V33.9998C33.8888 34.3679 33.5902 34.6665 33.2221 34.6665Z" fill="#00929A"/>
</svg>
