<svg width="40" height="40" viewBox="0 0 40 40" fill="none" xmlns="http://www.w3.org/2000/svg">
<path d="M2.25 26.6V20.025C2.25 19.1 2.9 18.3 3.775 18.125L5.55 17.625L6.575 17.325C6.7 17.3 6.8 17.175 6.8 17.05V15.85L6.75 15.8C6.225 15.4 5.9 14.775 5.825 14.125C5.8 13.9 5.8 13.725 5.775 13.625H5.575C5.375 13.625 5.2 13.475 5.175 13.3L5 12.25C4.95 11.95 5.2 11.675 5.5 11.675L5.55 9.75C5.55 8.575 6.525 7.6 7.725 7.6H9.125C10.325 7.6 11.3 8.55 11.3 9.75L11.35 11.675C11.65 11.675 11.9 11.95 11.85 12.25L11.7 13.25C11.675 13.45 11.5 13.575 11.3 13.575H11.1C11.075 13.675 11.075 13.875 11.05 14.075C11 14.725 10.65 15.35 10.125 15.75L10.05 15.8V17C10.05 17.15 10.15 17.25 10.275 17.275L11.075 17.5C11.525 17.225 12 17 12.525 16.9H12.55L11.025 16.475V16.25C11.55 15.725 11.875 15.075 11.975 14.375C12.325 14.175 12.6 13.8 12.65 13.4L12.8 12.4C12.875 11.975 12.75 11.525 12.45 11.2C12.4 11.15 12.35 11.075 12.3 11.05L12.325 9.75C12.325 8.025 10.9 6.625 9.15 6.625H7.75C6 6.625 4.575 8.025 4.575 9.75L4.55 11.05C4.5 11.1 4.45 11.15 4.375 11.225C4.1 11.55 3.975 12 4.025 12.425L4.175 13.425C4.25 13.85 4.5 14.2 4.85 14.425C4.95 15.15 5.3 15.8 5.8 16.3V16.5L5.275 16.65L3.525 17.15C2.2 17.45 1.25 18.65 1.25 20.025V26.6V27.175L1.75 27.475L8.9 31.7V30.55L2.25 26.6Z" fill="#668D00" stroke="#668D00" stroke-width="0.5"/>
<path d="M36.4499 17.175L34.1749 16.525V16.3C34.6749 15.8 35.0249 15.125 35.1249 14.425C35.4749 14.225 35.7249 13.875 35.7999 13.425L35.9499 12.425C36.0249 12 35.8999 11.55 35.5999 11.225C35.5499 11.175 35.4999 11.1 35.4499 11.05L35.4249 9.75C35.4249 8.025 33.9999 6.625 32.2499 6.625H30.8499C29.0999 6.625 27.6749 8.025 27.6749 9.75L27.6499 11.05C27.5999 11.1 27.5499 11.15 27.4999 11.2C27.2249 11.525 27.0999 11.975 27.1499 12.4L27.2999 13.4C27.3749 13.825 27.6249 14.2 27.9749 14.4C28.0749 15.1 28.4249 15.775 28.9249 16.275V16.5L28.3999 16.65L27.4499 16.925C27.9749 17.05 28.4749 17.25 28.9249 17.55L29.6749 17.325C29.7999 17.3 29.8999 17.175 29.8999 17.05V15.85L29.8249 15.8C29.2999 15.4 28.9499 14.775 28.8999 14.125C28.8749 13.9 28.8499 13.7 28.8499 13.625H28.6499C28.4499 13.625 28.2749 13.475 28.2499 13.3L28.0999 12.3C28.0499 12 28.2999 11.725 28.5999 11.725L28.6499 9.8C28.6499 8.625 29.6249 7.675 30.8249 7.675H32.2249C33.4249 7.675 34.4 8.625 34.4 9.8L34.4499 11.725C34.7499 11.725 34.9999 12 34.9499 12.3L34.7999 13.3C34.7749 13.5 34.6 13.625 34.4 13.625H34.1999C34.1749 13.725 34.175 13.925 34.15 14.125C34.1 14.775 33.7499 15.4 33.2249 15.8L33.15 15.85V17.05C33.15 17.175 33.2499 17.3 33.3749 17.325L36.1749 18.125C37.0749 18.3 37.6999 19.1 37.6999 20.025V26.6L31.0749 30.5V31.65L38.1999 27.45L38.6999 27.15V26.575V20.05C38.7499 18.675 37.7999 17.475 36.4499 17.175Z" fill="#668D00" stroke="#668D00" stroke-width="0.5"/>
<path d="M16.85 7.5002C17.55 7.5002 18.15 7.1252 18.475 6.5002L18.5 6.4502C19.125 7.1002 20 7.4752 20.925 7.4752H23.65V6.5752V6.4752H20.925C20.075 6.4752 19.275 6.0002 18.875 5.2752L18.425 4.4502L17.6 6.0252C17.45 6.3002 17.175 6.4752 16.85 6.4752H16.375L16.35 7.5002H16.85Z" fill="#668D00"/>
<path d="M27.275 17.6752L23.45 16.5752V16.2752V15.6252C24.3 14.8502 24.825 13.8002 24.925 12.6502C25.45 12.4502 25.825 11.9752 25.925 11.4002L26.175 9.8752C26.25 9.3752 26.1 8.8502 25.775 8.4752C25.675 8.3502 25.55 8.2502 25.425 8.1502L25.375 5.9252C25.375 3.6002 23.45 1.7002 21.075 1.7002H18.95C16.575 1.7002 14.65 3.6002 14.65 5.9252L14.6 8.1502C14.475 8.2502 14.35 8.3502 14.25 8.4752C13.925 8.8502 13.775 9.3752 13.85 9.8752L14.1 11.4002C14.2 11.9752 14.575 12.4252 15.1 12.6252C15.2 13.7752 15.75 14.8252 16.575 15.6002V16.5502L15.4 16.8752L12.75 17.6252C10.95 18.0002 9.67505 19.6252 9.67505 21.4752V31.4252V32.0002L10.175 32.3002L19.675 37.9252L20.2 38.2252L20.7 37.9252L29.9501 32.3002L30.425 32.0002V31.4252V21.5252C30.375 19.6752 29.075 18.0752 27.275 17.6752ZM29.375 31.4752L20.125 37.1002L10.625 31.4752V21.5252C10.625 20.1252 11.6 18.9252 12.95 18.6502L15.65 17.8752L17.2 17.4252C17.4 17.3752 17.55 17.2002 17.55 17.0002V16.3752L17.625 16.4252C18.15 16.7752 18.75 16.9752 19.375 16.9752H19.875V15.9752H19.375C18.95 15.9752 18.55 15.8502 18.2 15.6002L17.55 15.1502L17.45 15.0752C16.65 14.4502 16.15 13.5252 16.05 12.5252C16.025 12.2002 16 11.9002 15.975 11.7502H15.65C15.35 11.7502 15.1 11.5252 15.05 11.2502L14.8 9.7252C14.725 9.2752 15.075 8.8502 15.55 8.8502L15.625 5.9252C15.625 4.1252 17.1 2.6752 18.925 2.6752H21.05C22.875 2.6752 24.35 4.1252 24.35 5.9252L24.425 8.8502C24.9 8.8502 25.25 9.2502 25.175 9.7252L24.925 11.2502C24.875 11.5502 24.625 11.7502 24.325 11.7502H24C23.975 11.9002 23.95 12.2002 23.925 12.5252C23.85 13.5252 23.325 14.4502 22.525 15.0752L22.425 15.1502V16.2752V17.0002V18.8752H23.425V17.6002L27 18.6252C28.35 18.9002 29.3251 20.1002 29.3251 21.5002V31.4752H29.375Z" fill="#668D00" stroke="#668D00" stroke-width="0.5"/>
<path d="M25.425 32.2504L23.975 28.6004C24.875 27.6254 25.425 26.3504 25.425 24.9254C25.425 21.9504 22.975 19.5254 19.975 19.5254C16.975 19.5254 14.525 21.9504 14.525 24.9254C14.525 26.3504 15.075 27.6254 15.975 28.6004L14.575 32.2504C14.5 32.4254 14.55 32.6254 14.675 32.7754C14.8 32.9254 15 32.9754 15.175 32.9254L16.95 32.4254L17.9 33.9754C18 34.1254 18.15 34.2254 18.325 34.2254H18.375C18.575 34.2004 18.725 34.0754 18.8 33.9004L20 30.8504L21.2 33.9004C21.275 34.0754 21.425 34.2004 21.625 34.2254H21.675C21.85 34.2254 22 34.1254 22.1 33.9754L23.05 32.4254L24.825 32.9254C25 32.9754 25.2 32.9254 25.325 32.7754C25.45 32.6254 25.5 32.4254 25.425 32.2504ZM24.45 24.9254C24.45 27.3504 22.45 29.3254 20 29.3254C17.55 29.3254 15.55 27.3504 15.55 24.9254C15.55 22.5004 17.55 20.5254 20 20.5254C22.45 20.5254 24.45 22.5004 24.45 24.9254ZM18.225 32.6004L17.6 31.5754C17.5 31.4254 17.35 31.3254 17.175 31.3254C17.125 31.3254 17.075 31.3254 17.05 31.3504L15.875 31.6754L16.825 29.3004C17.5 29.8004 18.3 30.1254 19.175 30.2754L18.225 32.6004ZM22.95 31.3504C22.725 31.3004 22.5 31.3754 22.4 31.5754L21.775 32.6004L20.85 30.2504C21.725 30.1254 22.525 29.7754 23.2 29.2754L24.15 31.6504L22.95 31.3504Z" fill="#668D00"/>
<path d="M16.9 24.4003L18.075 25.5503L17.8 27.1753C17.775 27.3503 17.85 27.5503 18 27.6753C18.15 27.7753 18.35 27.8003 18.525 27.7253L20 26.9503L21.475 27.7253C21.55 27.7753 21.625 27.7753 21.7 27.7753C21.8 27.7753 21.9 27.7503 22 27.6753C22.15 27.5753 22.225 27.3753 22.2 27.1753L21.925 25.5503L23.1 24.4003C23.225 24.2753 23.275 24.0753 23.225 23.8753C23.175 23.7003 23 23.5503 22.825 23.5253L21.175 23.3003L20.45 21.8253C20.375 21.6503 20.2 21.5503 20 21.5503C19.8 21.5503 19.625 21.6503 19.55 21.8253L18.825 23.3003L17.175 23.5253C16.975 23.5503 16.825 23.6753 16.775 23.8753C16.725 24.0753 16.775 24.2753 16.9 24.4003ZM19.225 24.2753C19.4 24.2503 19.525 24.1503 19.6 24.0003L20 23.2003L20.4 24.0003C20.475 24.1503 20.625 24.2503 20.775 24.2753L21.675 24.4003L21.025 25.0253C20.9 25.1503 20.85 25.3003 20.875 25.4753L21.025 26.3503L20.225 25.9253C20.15 25.8753 20.075 25.8753 20 25.8753C19.925 25.8753 19.85 25.9003 19.775 25.9253L18.975 26.3503L19.125 25.4753C19.15 25.3003 19.1 25.1503 18.975 25.0253L18.325 24.4003L19.225 24.2753Z" fill="#668D00"/>
</svg>
