<svg width="40" height="40" viewBox="0 0 40 40" fill="none" xmlns="http://www.w3.org/2000/svg">
<g clip-path="url(#clip0_2160_7807)">
<path d="M39.2969 23.4256V21.9907C39.2963 21.4403 39.0774 20.9127 38.6882 20.5235C38.2991 20.1343 37.7714 19.9154 37.221 19.9148H28.9891C28.4387 19.9154 27.911 20.1343 27.5218 20.5234C27.1326 20.9126 26.9137 21.4403 26.9131 21.9907V23.4256C26.9136 23.7131 26.9739 23.9973 27.0902 24.2603C27.2064 24.5232 27.3761 24.7591 27.5885 24.9529C27.3756 25.1471 27.2056 25.3835 27.0893 25.6471C26.973 25.9107 26.913 26.1956 26.9131 26.4837V27.9186C26.9133 28.2061 26.9734 28.4905 27.0896 28.7536C27.2057 29.0167 27.3754 29.2527 27.5877 29.4467C27.3751 29.6408 27.2053 29.8771 27.0891 30.1406C26.9729 30.404 26.913 30.6888 26.9131 30.9767V32.4115C26.9133 32.6991 26.9734 32.9835 27.0896 33.2466C27.2057 33.5097 27.3754 33.7457 27.5877 33.9396C27.3751 34.1338 27.2053 34.3701 27.0891 34.6336C26.9729 34.897 26.913 35.1818 26.9131 35.4697V36.9045C26.9136 37.4549 27.1325 37.9826 27.5218 38.3718C27.911 38.761 28.4387 38.9799 28.9891 38.9805H37.221C37.7714 38.9799 38.2991 38.761 38.6883 38.3718C39.0775 37.9826 39.2964 37.4549 39.2969 36.9045V35.4697C39.297 35.1818 39.2371 34.897 39.1209 34.6336C39.0048 34.3701 38.8349 34.1338 38.6223 33.9396C38.8346 33.7457 39.0043 33.5097 39.1204 33.2466C39.2366 32.9835 39.2967 32.6991 39.2969 32.4115V30.9764C39.297 30.6885 39.2371 30.4038 39.121 30.1404C39.0048 29.8769 38.835 29.6406 38.6224 29.4465C38.8347 29.2526 39.0043 29.0166 39.1204 28.7535C39.2366 28.4905 39.2967 28.2061 39.2969 27.9186V26.4837C39.297 26.1958 39.2371 25.9111 39.121 25.6477C39.0048 25.3842 38.835 25.1479 38.6225 24.9538C38.8348 24.7598 39.0044 24.5238 39.1205 24.2607C39.2366 23.9976 39.2967 23.7132 39.2969 23.4256ZM38.2032 36.9045C38.2029 37.1649 38.0993 37.4146 37.9152 37.5987C37.731 37.7829 37.4814 37.8864 37.221 37.8868H28.9891C28.7287 37.8865 28.479 37.7829 28.2949 37.5987C28.1107 37.4146 28.0071 37.1649 28.0068 36.9045V35.4697C28.0071 35.2093 28.1107 34.9596 28.2949 34.7755C28.479 34.5913 28.7287 34.4878 28.9891 34.4875H37.221C37.4814 34.4878 37.731 34.5914 37.9152 34.7755C38.0993 34.9597 38.2029 35.2093 38.2032 35.4697V36.9045ZM37.221 33.3937H28.9891C28.9868 33.3937 28.9847 33.3937 28.9825 33.3937H28.9797C28.7211 33.3905 28.4741 33.2857 28.2921 33.1019C28.11 32.9182 28.0076 32.6702 28.0068 32.4115V30.9764C28.0071 30.716 28.1107 30.4664 28.2949 30.2822C28.479 30.0981 28.7287 29.9945 28.9891 29.9943H37.221C37.4814 29.9946 37.731 30.0981 37.9151 30.2823C38.0993 30.4664 38.2029 30.716 38.2032 30.9764V32.4113C38.2024 32.67 38.0999 32.918 37.9178 33.1017C37.7357 33.2855 37.4887 33.3903 37.23 33.3935H37.2273L37.221 33.3937ZM37.221 28.9007H28.9891H28.983H28.9798C28.7212 28.8975 28.4742 28.7927 28.2921 28.609C28.1101 28.4252 28.0076 28.1772 28.0068 27.9186V26.4837C28.0071 26.2233 28.1107 25.9736 28.2949 25.7895C28.479 25.6054 28.7287 25.5018 28.9891 25.5015H37.221C37.4814 25.5018 37.731 25.6054 37.9151 25.7895C38.0993 25.9737 38.2029 26.2233 38.2032 26.4837V27.9186C38.2024 28.1773 38.0998 28.4254 37.9176 28.6092C37.7355 28.793 37.4883 28.8977 37.2295 28.9007H37.2265H37.221ZM37.221 24.4078H28.9891C28.9857 24.4078 28.9824 24.4078 28.9789 24.4078C28.9772 24.4078 28.9756 24.4078 28.9739 24.4078C28.7164 24.4027 28.4711 24.2972 28.2904 24.1136C28.1097 23.9301 28.0079 23.6832 28.0068 23.4257V21.9907C28.0071 21.7303 28.1107 21.4807 28.2949 21.2965C28.479 21.1124 28.7287 21.0088 28.9891 21.0086H37.221C37.4814 21.0088 37.731 21.1124 37.9152 21.2966C38.0993 21.4807 38.2029 21.7303 38.2032 21.9907V23.4256C38.2024 23.6844 38.0999 23.9325 37.9177 24.1163C37.7354 24.3001 37.4882 24.4048 37.2294 24.4078H37.2268H37.221ZM15.06 16.5261L1.56801 26.17C1.44996 26.2532 1.30379 26.2863 1.16141 26.2621C1.01902 26.238 0.891974 26.1584 0.808001 26.0409C0.724027 25.9234 0.689942 25.7775 0.713186 25.635C0.73643 25.4924 0.815115 25.3649 0.932068 25.2801L14.4243 15.6363C14.881 15.3063 15.4415 15.1524 16.0026 15.203C16.5638 15.2535 17.0878 15.505 17.4782 15.9113L20.4653 18.988C20.6809 19.2107 20.9713 19.3457 21.2805 19.3671C21.5897 19.3885 21.8959 19.2948 22.1402 19.1039L31.8259 11.5566L29.3686 11.2921C29.2968 11.2849 29.2271 11.2636 29.1636 11.2293C29.1001 11.1951 29.044 11.1486 28.9985 11.0926C28.953 11.0365 28.9191 10.9721 28.8986 10.9029C28.8782 10.8336 28.8716 10.7611 28.8793 10.6893C28.8871 10.6176 28.9089 10.5481 28.9437 10.4848C28.9784 10.4215 29.0253 10.3658 29.0817 10.3207C29.138 10.2756 29.2028 10.2422 29.2721 10.2223C29.3415 10.2024 29.4141 10.1964 29.4858 10.2046L33.2925 10.6144C33.365 10.6222 33.4351 10.6444 33.4989 10.6797C33.5626 10.715 33.6187 10.7627 33.6637 10.82C33.7088 10.8772 33.742 10.9429 33.7613 11.0132C33.7806 11.0834 33.7857 11.1569 33.7762 11.2291L33.2461 15.2794C33.226 15.4221 33.1504 15.551 33.0357 15.6383C32.921 15.7255 32.7765 15.7639 32.6337 15.7453C32.4908 15.7266 32.3611 15.6522 32.2727 15.5385C32.1843 15.4247 32.1444 15.2806 32.1617 15.1375L32.5196 12.4032L22.8125 19.9667C22.3558 20.3235 21.7832 20.4987 21.205 20.4587C20.6268 20.4187 20.0838 20.1662 19.6806 19.7499L16.6936 16.6732C16.4847 16.4558 16.2044 16.3213 15.9042 16.2942C15.6041 16.2672 15.3042 16.3496 15.06 16.5261ZM24.4517 25.4182L22.1652 23.6646C22.0697 23.5913 21.9527 23.5516 21.8324 23.5516C21.712 23.5516 21.5951 23.5913 21.4996 23.6646L19.2131 25.4182C19.1465 25.4693 19.0926 25.535 19.0554 25.6103C19.0183 25.6855 18.999 25.7683 18.999 25.8522V38.4336C18.999 38.5787 19.0566 38.7178 19.1592 38.8203C19.2618 38.9229 19.4009 38.9805 19.5459 38.9805H24.1189C24.264 38.9805 24.4031 38.9229 24.5056 38.8203C24.6082 38.7178 24.6658 38.5787 24.6658 38.4336V25.8522C24.6658 25.7683 24.6465 25.6855 24.6094 25.6103C24.5722 25.535 24.5183 25.4693 24.4517 25.4182ZM23.5721 37.887H20.0928V26.122L21.8324 24.7877L23.5721 26.122V37.887ZM16.7495 23.5414L14.463 21.7877C14.3675 21.7145 14.2505 21.6748 14.1302 21.6748C14.0099 21.6748 13.8929 21.7145 13.7974 21.7877L11.5109 23.5414C11.4443 23.5924 11.3904 23.6581 11.3533 23.7334C11.3161 23.8086 11.2968 23.8914 11.2968 23.9753V38.4336C11.2968 38.5787 11.3545 38.7178 11.457 38.8203C11.5596 38.9229 11.6987 38.9805 11.8437 38.9805H16.4167C16.5617 38.9805 16.7008 38.9229 16.8034 38.8203C16.9059 38.7178 16.9636 38.5787 16.9636 38.4336V23.9753C16.9635 23.8914 16.9442 23.8086 16.9071 23.7334C16.87 23.6581 16.8161 23.5924 16.7495 23.5414ZM15.8698 37.8868H12.3907V24.245L14.1303 22.9108L15.8699 24.245L15.8698 37.8868ZM9.0473 29.3987L6.76074 27.645C6.66526 27.5717 6.54829 27.5321 6.42797 27.5321C6.30764 27.5321 6.19068 27.5717 6.09519 27.645L3.80863 29.3987C3.74206 29.4498 3.68812 29.5155 3.651 29.5907C3.61388 29.6659 3.59457 29.7487 3.59457 29.8326V38.4336C3.59457 38.5787 3.65218 38.7178 3.75474 38.8203C3.8573 38.9229 3.9964 38.9805 4.14144 38.9805H8.71449C8.78631 38.9805 8.85742 38.9664 8.92377 38.9389C8.99012 38.9114 9.05041 38.8711 9.10119 38.8203C9.15197 38.7696 9.19225 38.7093 9.21974 38.6429C9.24722 38.5766 9.26136 38.5055 9.26136 38.4336V29.8326C9.26136 29.7487 9.24205 29.6659 9.20493 29.5907C9.16781 29.5155 9.11388 29.4498 9.0473 29.3987ZM8.16761 37.8868H4.68832V30.1024L6.42793 28.7681L8.16761 30.1024V37.8868ZM20.7519 14.2534C22.2824 14.2525 23.7652 13.7209 24.9477 12.7492C26.1302 11.7776 26.9392 10.426 27.2369 8.92477C27.5346 7.42352 27.3026 5.86549 26.5804 4.51613C25.8582 3.16677 24.6904 2.10957 23.2761 1.52465C21.8618 0.939734 20.2885 0.863289 18.8241 1.30834C17.3598 1.75339 16.095 2.69241 15.2454 3.96539C14.3957 5.23838 14.0138 6.76658 14.1645 8.28962C14.3153 9.81266 14.9895 11.2363 16.0722 12.318C16.6863 12.9329 17.4159 13.4204 18.219 13.7526C19.0221 14.0847 19.8829 14.2549 20.7519 14.2534ZM16.8452 3.73121C17.6179 2.95853 18.6023 2.43232 19.674 2.21914C20.7458 2.00595 21.8567 2.11536 22.8662 2.53352C23.8758 2.95169 24.7386 3.65983 25.3457 4.5684C25.9528 5.47697 26.2769 6.54516 26.2769 7.63789C26.2769 8.73062 25.9528 9.79881 25.3457 10.7074C24.7386 11.616 23.8758 12.3241 22.8662 12.7423C21.8567 13.1604 20.7458 13.2698 19.674 13.0566C18.6023 12.8435 17.6179 12.3173 16.8452 11.5446C16.3301 11.0327 15.9214 10.424 15.6424 9.75353C15.3635 9.08307 15.2199 8.36406 15.2199 7.63789C15.2199 6.91172 15.3635 6.19271 15.6424 5.52225C15.9214 4.85178 16.3301 4.2431 16.8452 3.73121ZM18.278 9.16566C18.2619 9.09567 18.2598 9.02319 18.2717 8.95237C18.2836 8.88154 18.3094 8.81376 18.3475 8.75289C18.3856 8.69202 18.4354 8.63926 18.4939 8.59761C18.5524 8.55596 18.6185 8.52624 18.6885 8.51016C18.7585 8.49407 18.831 8.49193 18.9018 8.50385C18.9726 8.51577 19.0404 8.54153 19.1013 8.57965C19.1622 8.61777 19.2149 8.6675 19.2566 8.72602C19.2982 8.78453 19.3279 8.85067 19.344 8.92066C19.5369 9.75988 20.4186 10.0321 21.2076 9.92934C21.6418 9.87285 21.9849 9.65012 22.1032 9.34816C22.1911 9.1241 22.1409 8.88238 21.9621 8.66762C21.6565 8.30043 21.3314 8.25184 20.8391 8.17809C20.5153 8.13927 20.1964 8.06658 19.8878 7.96121C19.882 7.95918 19.8764 7.95699 19.8707 7.95473C19.0306 7.61426 18.5357 6.95418 18.5471 6.1891C18.5589 5.40871 19.0873 4.71137 19.8937 4.41238C20.0083 4.37 20.1254 4.33506 20.2445 4.30777V3.73902C20.2445 3.59398 20.3021 3.45488 20.4047 3.35232C20.5072 3.24977 20.6463 3.19215 20.7914 3.19215C20.9364 3.19215 21.0755 3.24977 21.1781 3.35232C21.2806 3.45488 21.3382 3.59398 21.3382 3.73902V4.29434C22.1479 4.46793 22.8347 5.05387 23.1736 5.94848C23.2233 6.08375 23.2177 6.2332 23.1578 6.36433C23.098 6.49546 22.9888 6.59766 22.854 6.64871C22.7192 6.69976 22.5697 6.69552 22.438 6.63693C22.3063 6.57834 22.2031 6.47012 22.1507 6.33582C21.8341 5.49988 21.0797 5.13887 20.2739 5.43738C19.9 5.57606 19.6456 5.88449 19.6411 6.20496C19.6367 6.50816 19.8611 6.76793 20.2734 6.93723C20.5102 7.01436 20.7542 7.06757 21.0017 7.09606C21.5779 7.18246 22.231 7.28043 22.8029 7.96746C23.2357 8.48715 23.355 9.15238 23.1219 9.74691C22.854 10.4305 22.1914 10.904 21.3492 11.0136C21.3456 11.0141 21.3421 11.0142 21.3386 11.0146V11.5365C21.3386 11.6816 21.281 11.8207 21.1785 11.9232C21.0759 12.0258 20.9368 12.0834 20.7918 12.0834C20.6467 12.0834 20.5076 12.0258 20.4051 11.9232C20.3025 11.8207 20.2449 11.6816 20.2449 11.5365V10.9827C19.2513 10.785 18.4976 10.1205 18.278 9.16566Z" fill="#E3790F" stroke="#E3790F" stroke-width="0.5"/>
</g>
<defs>
<clipPath id="clip0_2160_7807">
<rect width="40" height="40" fill="white"/>
</clipPath>
</defs>
</svg>
