<svg width="40" height="40" viewBox="0 0 40 40" fill="none" xmlns="http://www.w3.org/2000/svg">
<path d="M39.576 27.483L36.23 18.7185C36.0686 18.2936 35.7502 17.9569 35.3334 17.7707C34.9172 17.5846 34.455 17.5719 34.033 17.7341L30.1385 19.2184C29.4804 19.4715 29.068 20.0926 29.0459 20.7576C28.0643 20.4922 26.5923 20.141 25.1296 19.9162C22.6235 19.5312 21.019 19.6344 20.2254 20.2319C20.1494 20.2819 20.0749 20.3315 20.0006 20.3812C19.9209 20.3277 19.8466 20.2787 19.7736 20.2312C18.9788 19.6343 17.374 19.5313 14.8688 19.9163C13.4046 20.1413 11.9337 20.4924 10.9533 20.7577C10.9321 20.0925 10.519 19.4714 9.85815 19.218L5.96791 17.7345C5.54377 17.5719 5.08119 17.5849 4.66541 17.771C4.24947 17.9572 3.9315 18.2937 3.77041 18.7179L0.423927 27.4837C0.0909581 28.3604 0.532052 29.3465 1.40799 29.6822L5.29822 31.1657C5.49525 31.2412 5.70057 31.2789 5.90572 31.2789C6.14229 31.2789 6.37861 31.2288 6.6015 31.129C6.8644 31.0113 7.08807 30.8332 7.25838 30.6107C7.89463 31.1957 8.56369 31.8268 9.26479 32.4884C10.9297 34.0594 12.6512 35.6839 14.1483 36.8847C16.4846 38.7597 18.4235 39.6905 20.0124 39.6904C20.657 39.6904 21.244 39.5372 21.7764 39.2317C22.7602 39.6114 24.0356 39.5866 25.0749 37.831C25.7382 38.1126 26.4913 38.113 27.17 37.817C27.8903 37.5029 28.4228 36.9002 28.6472 36.1649C29.4187 36.0534 30.0988 35.587 30.4764 34.8902C30.8638 34.18 30.8981 33.2717 30.5928 32.5512L32.7394 30.6089C32.9095 30.8322 33.1334 31.0111 33.3972 31.1293C33.6199 31.229 33.856 31.279 34.0924 31.279C34.2972 31.279 34.5023 31.2414 34.6988 31.1661L38.5935 29.6819C39.4679 29.3455 39.9088 28.3595 39.576 27.4831V27.483ZM20.7821 20.9853C21.8788 20.1395 26.429 20.956 29.3028 21.8015L32.3256 29.7198L30.0302 31.7968C29.8934 31.6558 29.7451 31.5022 29.5871 31.3387C28.1063 29.8053 25.8685 27.4879 24.1644 26.216C22.378 24.8836 21.7563 25.1737 20.5202 25.9571C20.3301 26.0776 20.1147 26.2141 19.8724 26.3552C17.5525 27.7087 16.8733 26.9464 16.646 26.6761C16.3744 26.314 16.2781 25.9305 16.3514 25.5042C16.4938 24.6766 17.3731 23.2245 20.7531 21.0059C20.7631 20.9994 20.7728 20.9925 20.7821 20.9852V20.9853ZM6.21869 30.274C6.03143 30.3578 5.82361 30.3637 5.63275 30.2907L1.74252 28.8072C1.34822 28.6561 1.14955 28.2116 1.2994 27.8172L4.64588 19.0512C4.71822 18.8607 4.86111 18.7096 5.04822 18.6259C5.14838 18.5811 5.2544 18.5586 5.36065 18.5586C5.45268 18.5586 5.54486 18.5754 5.63346 18.6094L9.52369 20.0929C9.71463 20.1661 9.86611 20.3097 9.9501 20.4972C10.0339 20.6844 10.0399 20.8922 9.96705 21.0823C9.96705 21.0826 9.9669 21.0827 9.96682 21.083L6.62307 29.8476C6.54986 30.0386 6.40619 30.19 6.21869 30.274ZM29.6535 34.4426C29.4055 34.9001 28.9486 35.1973 28.4362 35.246C25.2494 32.4613 23.6568 31.0689 23.6568 31.0689C23.4621 30.8985 23.1661 30.9184 22.996 31.1132C22.8256 31.3079 22.8455 31.6038 23.0403 31.774C23.0403 31.774 24.6097 33.1462 27.7506 35.8909C27.6053 36.3657 27.2614 36.7551 26.7957 36.9583C26.258 37.1928 25.6486 37.1399 25.162 36.8179C21.8123 34.0592 20.136 32.6808 20.136 32.6808C19.936 32.5164 19.641 32.5452 19.4767 32.745C19.3124 32.9448 19.3412 33.2399 19.541 33.4042C19.541 33.4042 21.1255 34.7072 24.2917 37.3148C23.4817 38.7179 22.6442 38.6015 21.9838 38.3033L16.9242 34.2579C16.7221 34.0963 16.4274 34.1292 16.266 34.3312C16.1044 34.5333 16.1373 34.828 16.3393 34.9895L20.8689 38.6113C19.4172 39.083 17.3588 38.26 14.7346 36.154C13.2668 34.9766 11.5592 33.3652 9.90783 31.8069C9.12401 31.0672 8.37971 30.3651 7.674 29.7207L10.6949 21.8021C13.5295 20.9667 17.9997 20.1596 19.1732 20.9534C16.8806 22.6011 15.6523 24.0437 15.4282 25.3452C15.3095 26.0351 15.4704 26.6762 15.9064 27.251C15.9111 27.2571 15.9159 27.2631 15.9208 27.269C16.8464 28.3722 18.3347 28.3369 20.3444 27.1645C20.6015 27.0147 20.8248 26.8732 21.0218 26.7483C21.509 26.4395 21.8309 26.2356 22.1387 26.2331C22.4706 26.2274 22.9205 26.4568 23.6042 26.9669C25.2473 28.1933 27.4535 30.4777 28.9133 31.9894C29.187 32.2729 29.4314 32.5259 29.6382 32.7367C29.9263 33.2014 29.9352 33.9262 29.6535 34.4426V34.4426ZM38.2585 28.8069L34.3644 30.291C34.1744 30.3638 33.9668 30.3579 33.7799 30.2742C33.5928 30.1904 33.45 30.0394 33.3774 29.8482L30.0314 21.0837C29.8815 20.6889 30.0804 20.2444 30.4735 20.0932L34.368 18.6089C34.5569 18.5362 34.7641 18.5422 34.9511 18.6258C35.1388 18.7097 35.282 18.8608 35.3546 19.0519L38.7005 27.8164C38.8504 28.2112 38.6515 28.6557 38.2585 28.8069ZM17.5331 5.88771L17.0076 8.48076C16.9712 8.66053 17.043 8.84498 17.1913 8.95271C17.3397 9.06053 17.5374 9.07178 17.697 8.98162L20.0001 7.68107L22.3032 8.98162C22.3749 9.02217 22.4543 9.04217 22.5335 9.04217C22.6305 9.04217 22.7271 9.01209 22.8088 8.95271C22.9571 8.84498 23.0289 8.66053 22.9925 8.48076L22.467 5.88756L24.4137 4.0999C24.5488 3.97592 24.599 3.78451 24.5423 3.61014C24.4856 3.43576 24.3324 3.31053 24.1503 3.28951L21.525 2.98756L20.4258 0.583652C20.3496 0.416934 20.1831 0.310059 19.9999 0.310059C19.8166 0.310059 19.6501 0.416934 19.5739 0.583652L18.4747 2.98748L15.8473 3.28951C15.6651 3.31045 15.5119 3.43576 15.4553 3.61014C15.3986 3.78451 15.4489 3.976 15.5841 4.09998L17.5328 5.88764L17.5331 5.88771ZM18.8445 3.88803C19.0074 3.86928 19.1488 3.7667 19.217 3.61748L20.0002 1.90482L20.7834 3.61748C20.8516 3.76662 20.9928 3.86928 21.1558 3.88803L23.0255 4.10311L21.6388 5.37646C21.518 5.48748 21.464 5.65365 21.4966 5.81443L21.871 7.6617L20.2305 6.73537C20.0876 6.65467 19.9128 6.65467 19.7699 6.73537L18.1294 7.6617L18.5038 5.81443C18.5363 5.6535 18.4824 5.48725 18.3613 5.37631L16.9735 4.10311L18.8445 3.88803ZM23.566 14.4218C23.5093 14.2474 23.3561 14.122 23.1739 14.1012L21.2374 13.8788L20.4261 12.104C20.3499 11.9373 20.1835 11.8304 20.0001 11.8304C19.8167 11.8304 19.6503 11.9374 19.5741 12.104L18.7628 13.8788L16.8263 14.1012C16.6442 14.1221 16.491 14.2473 16.4343 14.4217C16.3776 14.5961 16.4279 14.7875 16.5629 14.9115L17.9983 16.2298L17.6121 18.1433C17.5758 18.323 17.6477 18.5073 17.796 18.6151C17.8777 18.6744 17.9743 18.7044 18.0712 18.7044C18.1503 18.7044 18.2298 18.6844 18.3015 18.6439L20 17.6844L21.6985 18.6439C21.8582 18.734 22.0559 18.7228 22.2042 18.615C22.3526 18.5072 22.4244 18.3227 22.3879 18.143L21.9999 16.2299L23.437 14.9118C23.5721 14.7878 23.6225 14.5964 23.5659 14.4219L23.566 14.4218ZM21.1717 15.7183C21.0507 15.8293 20.9967 15.9956 21.0293 16.1565L21.266 17.3235L20.2306 16.7386C20.0876 16.6579 19.9128 16.6579 19.7699 16.7386L18.7331 17.3242L18.9689 16.1562C19.0013 15.9954 18.9474 15.8294 18.8267 15.7185L17.9517 14.9148L19.1324 14.7793C19.2954 14.7606 19.4368 14.6579 19.505 14.5087L20.0003 13.4253L20.4955 14.5087C20.5637 14.6579 20.705 14.7606 20.8681 14.7793L22.048 14.9147L21.1719 15.7183L21.1717 15.7183ZM9.39916 11.6319L9.12369 12.9943C9.08736 13.1739 9.15916 13.3583 9.30744 13.466C9.45572 13.5737 9.65315 13.5851 9.81283 13.4951L11.0243 12.8122L12.2337 13.495C12.3054 13.5355 12.3848 13.5554 12.4639 13.5554C12.5609 13.5554 12.6575 13.5254 12.7392 13.4661C12.8875 13.3583 12.9593 13.174 12.9231 12.9943L12.6476 11.6319L13.6713 10.6901C13.8063 10.5661 13.8563 10.3747 13.7996 10.2004C13.7428 10.0261 13.5896 9.90092 13.4076 9.88006L12.0273 9.72193L11.4506 8.45889C11.3746 8.29217 11.2081 8.18521 11.0249 8.18506H11.0246C10.8414 8.18506 10.6751 8.29186 10.5988 8.45842L10.02 9.72186L8.63932 9.87998C8.45721 9.90084 8.30401 10.026 8.24729 10.2003C8.19049 10.3745 8.24065 10.5659 8.37557 10.6901L9.39932 11.6319L9.39916 11.6319ZM10.3891 10.6226C10.552 10.6039 10.6933 10.5014 10.7616 10.3522L11.0238 9.77975L11.2849 10.3517C11.3531 10.5011 11.4946 10.6038 11.6577 10.6225L12.2833 10.6941L11.8191 11.1212C11.6985 11.2322 11.6446 11.3981 11.6771 11.5587L11.8018 12.1752L11.2549 11.8664C11.112 11.7857 10.9374 11.7856 10.7946 11.8662L10.2449 12.1761L10.3698 11.5587C10.4023 11.3981 10.3485 11.2322 10.2278 11.1212L9.76361 10.6941L10.3892 10.6225L10.3891 10.6226ZM27.3523 11.6319L27.0751 12.9937C27.0385 13.1733 27.1102 13.3579 27.2585 13.4658C27.4067 13.5736 27.6042 13.5851 27.7641 13.4951L28.9757 12.8119L30.1874 13.4951C30.259 13.5354 30.3383 13.5554 30.4174 13.5554C30.5144 13.5554 30.611 13.5253 30.6928 13.4658C30.841 13.3581 30.9128 13.1738 30.8765 12.9941L30.601 11.6318L31.6248 10.69C31.7597 10.5659 31.8098 10.3745 31.7531 10.2002C31.6963 10.0259 31.5431 9.90076 31.361 9.8799L29.9803 9.72178L29.4016 8.45834C29.3253 8.29178 29.1589 8.18498 28.9757 8.18498H28.9755C28.7922 8.18506 28.6258 8.29209 28.5497 8.45881L27.9731 9.72178L26.5906 9.8799C26.4084 9.90076 26.2552 10.026 26.1984 10.2004C26.1416 10.3747 26.1919 10.5662 26.327 10.6902L27.3522 11.6318L27.3523 11.6319ZM28.3425 10.6226C28.5056 10.6039 28.6471 10.5012 28.7153 10.3518L28.9765 9.77982L29.2387 10.3523C29.307 10.5015 29.4483 10.604 29.6112 10.6226L30.2368 10.6943L29.7726 11.1214C29.652 11.2323 29.5981 11.3983 29.6306 11.5589L29.7555 12.1762L29.2059 11.8664C29.1345 11.8262 29.0552 11.8061 28.9759 11.8061C28.8966 11.8061 28.8173 11.8262 28.7459 11.8664L28.1978 12.1754L28.3231 11.5595C28.3559 11.3986 28.302 11.2322 28.181 11.1212L27.7162 10.6943L28.3426 10.6226L28.3425 10.6226Z" fill="#BB0052"/>
</svg>
