<svg width="155" height="56" viewBox="0 0 155 56" fill="none" xmlns="http://www.w3.org/2000/svg">
<path d="M0 27.9998C0 36.1343 34.6982 42.7291 77.5 42.7291C120.302 42.7291 155 36.1343 155 27.9998C155 19.8654 120.301 13.2705 77.5 13.2705C34.6994 13.2705 0 19.8654 0 27.9998Z" fill="url(#paint0_radial_2228_623)"/>
<path d="M77.5 41.6354C118.629 41.6354 151.973 35.5301 151.973 27.9998C151.973 20.4687 118.629 14.3643 77.5 14.3643C36.3705 14.3643 3.02734 20.4687 3.02734 27.9998C3.02734 35.5301 36.3705 41.6354 77.5 41.6354Z" fill="#777BB3"/>
<path d="M42.1068 29.6903C45.489 29.6903 48.0126 29.465 49.6098 29.021C51.1913 28.5808 52.2823 27.8192 52.8551 26.7569C53.3879 25.7638 53.1845 25.0708 52.2497 24.6963C51.2954 24.3139 49.2308 24.1201 46.1138 24.1201H40.7082L37.7136 29.6903H42.1068ZM24.4284 36.5517C24.3043 36.5516 24.1819 36.5416 24.0698 36.5224C23.9577 36.5033 23.8588 36.4754 23.7801 36.4407C23.7013 36.4061 23.6448 36.3656 23.6145 36.3222C23.5843 36.2787 23.581 36.2334 23.6049 36.1894L31.545 21.429C31.5826 21.36 31.6851 21.2979 31.8353 21.2531C31.9854 21.2084 32.1738 21.1838 32.3685 21.1836H49.4839C54.8629 21.1836 58.8662 21.7112 61.3838 22.752C63.9122 23.7977 64.6945 25.2607 63.7051 27.0986C63.3019 27.8472 62.6092 28.5423 61.6465 29.1653C60.6447 29.8062 59.366 30.3852 57.8587 30.8803C56.0048 31.5068 53.9062 31.9618 51.626 32.2292C49.3834 32.4934 46.5013 32.6273 43.0647 32.6273H36.1333L34.1546 36.3058C34.1173 36.375 34.0144 36.4374 33.8638 36.4823C33.7131 36.5271 33.524 36.5516 33.3288 36.5517H24.4284Z" fill="black"/>
<path d="M41.4019 24.4241H46.1137C49.8761 24.4241 51.1827 24.7224 51.6271 24.9005C52.3621 25.1954 52.5026 25.8179 52.0279 26.6995C51.4963 27.6869 50.5106 28.3874 49.0974 28.7803C47.6516 29.1828 45.2975 29.3866 42.1067 29.3866H38.733L41.4019 24.4241ZM49.4837 20.8803H32.3696C31.9793 20.8803 31.6011 20.9293 31.2998 21.019C30.9985 21.1086 30.7928 21.2333 30.7178 21.3716L22.7777 36.1324C22.7308 36.2204 22.7383 36.311 22.7995 36.3977C22.8607 36.4845 22.9742 36.5653 23.1319 36.6344C23.2895 36.7035 23.4875 36.7591 23.7116 36.7974C23.9357 36.8356 24.1804 36.8555 24.4282 36.8556H33.3286C33.7189 36.8555 34.0968 36.8064 34.3979 36.7167C34.699 36.627 34.9044 36.5023 34.9791 36.3639L36.8258 32.9313H43.0633C46.5896 32.9313 49.5588 32.7921 51.8874 32.5183C54.2815 32.2374 56.4842 31.7609 58.4338 31.1021C60.0039 30.5856 61.3361 29.982 62.3802 29.314C63.3865 28.6634 64.1106 27.9372 64.5296 27.1567C65.571 25.2216 64.7246 23.6724 62.0157 22.5524C59.3323 21.4425 55.1158 20.8799 49.4837 20.8799V20.8803ZM36.6926 29.9939H42.1067C45.6951 29.9942 48.3672 29.7499 50.1231 29.2611C51.879 28.7728 53.0649 27.9575 53.6808 26.815C54.2686 25.7178 54.0001 24.9437 52.8756 24.4928C51.7494 24.0418 49.4954 23.8164 46.1137 23.8164H40.0154L36.6926 29.9939ZM49.4849 21.4867C54.6339 21.4867 58.389 21.9749 60.7503 22.9514C63.1116 23.9279 63.822 25.2909 62.8815 27.0403C62.4924 27.7613 61.8365 28.4202 60.9138 29.0169C59.9894 29.6143 58.7821 30.1607 57.2919 30.6563C55.5158 31.2571 53.5412 31.6851 51.3679 31.9403C49.1955 32.1958 46.4277 32.3234 43.0646 32.3231H35.4405L33.3298 36.2475H24.4294L32.3708 21.4867H49.4849Z" fill="white"/>
<path d="M84.1105 32.6278C83.9864 32.6279 83.8638 32.618 83.7515 32.5989C83.6392 32.5798 83.54 32.552 83.4611 32.5174C83.3821 32.4828 83.3254 32.4423 83.2948 32.3988C83.2643 32.3554 83.2609 32.31 83.2846 32.266L86.7964 25.735C87.1318 25.1138 87.0494 24.6684 86.5663 24.4794C86.2696 24.3643 85.3808 24.1714 82.7518 24.1714H76.3871L71.9721 32.3824C71.9342 32.4515 71.831 32.5138 71.6801 32.5585C71.5292 32.6031 71.3401 32.6275 71.145 32.6274H62.3173C62.1932 32.6274 62.0707 32.6175 61.9585 32.5985C61.8463 32.5794 61.7471 32.5516 61.6681 32.5171C61.5891 32.4826 61.5322 32.4421 61.5014 32.3987C61.4706 32.3553 61.4668 32.31 61.4902 32.266L69.4315 17.5052C69.4691 17.4361 69.572 17.3738 69.7227 17.329C69.8733 17.2842 70.0623 17.2598 70.2574 17.2598H79.0851C79.2091 17.2597 79.3316 17.2696 79.4438 17.2887C79.5561 17.3077 79.6552 17.3355 79.7342 17.3701C79.8133 17.4046 79.8702 17.445 79.901 17.4884C79.9317 17.5318 79.9355 17.5771 79.9122 17.6211L77.9965 21.1841H84.8419C90.0574 21.1841 93.5933 21.5158 95.6531 22.1996C97.7517 22.8965 98.408 24.0108 97.6003 25.5128L93.9058 32.3824C93.8679 32.4515 93.7649 32.5136 93.6143 32.5583C93.4637 32.603 93.2748 32.6274 93.0799 32.6274L84.1105 32.6278Z" fill="black"/>
<path d="M79.0864 16.9551H70.2575C69.867 16.9551 69.4888 17.0042 69.1874 17.0939C68.8861 17.1836 68.6805 17.3084 68.6058 17.4468L60.6656 32.2072C60.6186 32.2952 60.6258 32.3858 60.687 32.4726C60.7481 32.5594 60.8615 32.6403 61.0192 32.7094C61.1769 32.7786 61.375 32.8343 61.5992 32.8725C61.8234 32.9108 62.0682 32.9307 62.3162 32.9308H71.1451C71.5356 32.9308 71.9138 32.8817 72.2152 32.792C72.5165 32.7023 72.7221 32.5775 72.7968 32.4391L77.0799 24.4744H82.7495C85.3748 24.4744 85.927 24.677 85.9476 24.6861C86.1074 24.7474 86.3169 25.034 85.9706 25.6766L82.4589 32.2072C82.4118 32.2952 82.4191 32.3859 82.4803 32.4727C82.5415 32.5596 82.655 32.6405 82.8129 32.7096C82.9707 32.7788 83.1689 32.8344 83.3932 32.8727C83.6176 32.9109 83.8625 32.9308 84.1106 32.9308H93.0812C93.4715 32.9307 93.8495 32.8816 94.1505 32.7919C94.4516 32.7022 94.6571 32.5775 94.7318 32.4391L98.4263 25.5703C99.2921 23.9577 98.551 22.7485 96.2224 21.9754C93.9991 21.2378 90.2767 20.8795 84.842 20.8795H79.0174L80.7382 17.6791C80.7855 17.5911 80.7783 17.5004 80.7172 17.4135C80.6561 17.3266 80.5426 17.2456 80.3847 17.1764C80.2269 17.1072 80.0286 17.0515 79.8042 17.0132C79.5797 16.975 79.3346 16.9551 79.0864 16.9551ZM79.0864 17.5632L76.9758 21.4867H84.842C89.7915 21.4867 93.2052 21.7988 95.0829 22.423C96.9623 23.0465 97.5266 24.0572 96.7758 25.4548L93.08 32.3231H84.1106L87.6235 25.7921C88.0232 25.0493 87.8758 24.5426 87.1816 24.2723C86.4873 24.0022 85.0107 23.8671 82.7519 23.8671H75.6934L71.1451 32.3227H62.3149L70.2563 17.5619H79.0864V17.5632Z" fill="white"/>
<path d="M111.571 29.6903C114.953 29.6903 117.478 29.465 119.076 29.021C120.655 28.5808 121.748 27.8192 122.32 26.7569C122.853 25.7638 122.651 25.0708 121.715 24.6963C120.761 24.3139 118.696 24.1201 115.579 24.1201H110.175L107.178 29.6903H111.571ZM93.8961 36.5517C93.7719 36.5517 93.6492 36.5418 93.5368 36.5227C93.4244 36.5036 93.3251 36.4757 93.2462 36.4411C93.1672 36.4064 93.1104 36.3659 93.08 36.3224C93.0496 36.2789 93.0463 36.2334 93.0703 36.1894L101.01 21.429C101.048 21.3599 101.151 21.2976 101.302 21.2528C101.452 21.2081 101.641 21.1836 101.836 21.1836H118.95C124.329 21.1836 128.333 21.7112 130.849 22.752C133.379 23.7977 134.16 25.2607 133.17 27.0986C132.792 27.8225 132.097 28.5201 131.113 29.1653C130.111 29.8062 128.833 30.3852 127.325 30.8803C125.473 31.5068 123.372 31.9618 121.093 32.2292C118.85 32.4934 115.968 32.6273 112.53 32.6273H105.6L103.622 36.3058C103.585 36.3751 103.482 36.4375 103.331 36.4824C103.18 36.5273 102.991 36.5517 102.795 36.5517H93.8961Z" fill="black"/>
<path d="M110.867 24.4241H115.579C119.341 24.4241 120.648 24.7224 121.091 24.9005C121.83 25.1954 121.968 25.8179 121.494 26.6995C120.962 27.6869 119.976 28.3874 118.563 28.7803C117.116 29.1828 114.762 29.3866 111.572 29.3866H108.198L110.867 24.4241ZM118.949 20.8803H101.835C101.445 20.8804 101.067 20.9295 100.766 21.0191C100.465 21.1087 100.259 21.2333 100.184 21.3716L92.2431 36.1324C92.1961 36.2204 92.2036 36.311 92.2649 36.3978C92.3262 36.4846 92.4398 36.5655 92.5976 36.6346C92.7554 36.7037 92.9535 36.7593 93.1777 36.7975C93.402 36.8357 93.6468 36.8556 93.8948 36.8556H102.795C103.185 36.8555 103.563 36.8064 103.864 36.7167C104.166 36.627 104.371 36.5023 104.446 36.3639L106.292 32.9313H112.529C116.054 32.9313 119.024 32.7921 121.352 32.5183C123.747 32.2374 125.949 31.7609 127.9 31.1016C129.47 30.5853 130.802 29.9818 131.846 29.314C132.853 28.6634 133.575 27.9372 133.995 27.1567C135.036 25.2216 134.191 23.6724 131.481 22.5524C128.798 21.4425 124.582 20.8799 118.948 20.8799L118.949 20.8803ZM106.158 29.9939H111.571C115.159 29.9942 117.832 29.7499 119.59 29.2611C121.346 28.7728 122.531 27.9575 123.145 26.815C123.735 25.7178 123.467 24.9437 122.34 24.4928C121.213 24.0418 118.959 23.8164 115.579 23.8164H109.482L106.158 29.9939ZM118.949 21.4867C124.098 21.4867 127.853 21.9749 130.214 22.9514C132.576 23.9279 133.286 25.2909 132.344 27.0403C131.957 27.7613 131.301 28.4202 130.378 29.0169C129.454 29.6143 128.247 30.1607 126.755 30.6563C124.979 31.2571 123.004 31.6851 120.831 31.9403C118.659 32.1958 115.892 32.3234 112.529 32.3231H104.906L102.793 36.2475H93.8923L101.834 21.4867H118.949Z" fill="white"/>
<defs>
<radialGradient id="paint0_radial_2228_623" cx="0" cy="0" r="1" gradientUnits="userSpaceOnUse" gradientTransform="translate(46.5315 18.4488) scale(101.769 36.7681)">
<stop stop-color="#AEB2D5"/>
<stop offset="0.3" stop-color="#AEB2D5"/>
<stop offset="0.75" stop-color="#484C89"/>
<stop offset="1" stop-color="#484C89"/>
</radialGradient>
</defs>
</svg>
