<svg width="65" height="64" viewBox="0 0 65 64" fill="none" xmlns="http://www.w3.org/2000/svg">
<path d="M0.5 0H64.5V64H0.5V0Z" fill="#F7DF1E"/>
<path d="M16.5002 39.3336L20.1733 37.1106C20.8821 38.367 21.5267 39.4301 23.073 39.4301C24.5552 39.4301 25.4899 38.8504 25.4899 36.5951V21.258H30.0006V36.6589C30.0006 41.3308 27.2619 43.4574 23.2663 43.4574C19.6579 43.4574 17.5633 41.5886 16.5 39.3332M32.4506 38.8502L36.1234 36.7238C37.0903 38.3027 38.3469 39.4626 40.5699 39.4626C42.4391 39.4626 43.6309 38.5281 43.6309 37.2392C43.6309 35.6927 42.4065 35.1448 40.3444 34.2429L39.2169 33.7592C35.9625 32.3741 33.8038 30.6341 33.8038 26.961C33.8038 23.5778 36.3814 21 40.4091 21C43.2767 21 45.3388 21.999 46.8208 24.6088L43.3086 26.8644C42.5351 25.479 41.6978 24.9313 40.4089 24.9313C39.0877 24.9313 38.25 25.7691 38.25 26.8644C38.25 28.2176 39.0878 28.7657 41.0209 29.6034L42.1485 30.0866C45.9829 31.7301 48.1416 33.4054 48.1416 37.1749C48.1416 41.235 44.9518 43.458 40.6665 43.458C36.4779 43.458 33.7714 41.4604 32.4504 38.8504" fill="black"/>
</svg>
