<svg width="57" height="36" viewBox="0 0 57 36" fill="none" xmlns="http://www.w3.org/2000/svg">
<path d="M28.1839 35.0732C27.9944 35.0732 27.8174 35.0227 27.653 34.9342L25.9718 33.9356C25.7189 33.7965 25.8454 33.746 25.9213 33.7207C26.2625 33.607 26.3257 33.5816 26.6797 33.3795C26.7176 33.3541 26.7683 33.3668 26.8061 33.392L28.0955 34.1631C28.1461 34.1884 28.2093 34.1884 28.2471 34.1631L33.2909 31.243C33.3415 31.2178 33.3669 31.1671 33.3669 31.104V25.2765C33.3669 25.2132 33.3415 25.1628 33.2909 25.1374L28.2471 22.23C28.1966 22.2046 28.1334 22.2046 28.0955 22.23L23.0517 25.1374C23.0012 25.1627 22.9758 25.2259 22.9758 25.2764V31.1039C22.9758 31.1545 23.0012 31.2177 23.0517 31.243L24.4296 32.0394C25.1754 32.4186 25.6431 31.9762 25.6431 31.5338V25.782C25.6431 25.7063 25.7063 25.6303 25.7948 25.6303H26.4395C26.5154 25.6303 26.5912 25.6936 26.5912 25.782V31.5338C26.5912 32.5323 26.0476 33.1139 25.0995 33.1139C24.8088 33.1139 24.5813 33.1139 23.9365 32.7978L22.6093 32.0394C22.2806 31.8498 22.0784 31.4958 22.0784 31.1166V25.2891C22.0784 24.9099 22.2806 24.5558 22.6093 24.3663L27.653 21.4462C27.9691 21.2692 28.3989 21.2692 28.7149 21.4462L33.7586 24.3663C34.0873 24.5558 34.2896 24.9099 34.2896 25.2891V31.1166C34.2896 31.4958 34.0873 31.8498 33.7586 32.0394L28.7149 34.9595C28.5505 35.0354 28.3609 35.0732 28.1839 35.0732ZM29.7389 31.0661C27.5268 31.0661 27.0717 30.0548 27.0717 29.1952C27.0717 29.1193 27.1349 29.0435 27.2234 29.0435H27.8807C27.9565 29.0435 28.0197 29.094 28.0197 29.1699C28.1209 29.8399 28.4116 30.1685 29.7516 30.1685C30.8134 30.1685 31.2686 29.9283 31.2686 29.3595C31.2686 29.0308 31.1421 28.7907 29.4861 28.6263C28.1082 28.4872 27.2486 28.1839 27.2486 27.0842C27.2486 26.0602 28.1083 25.4534 29.5493 25.4534C31.1673 25.4534 31.9638 26.0097 32.065 27.2231C32.065 27.2611 32.0523 27.299 32.027 27.3369C32.0016 27.3622 31.9638 27.3875 31.9258 27.3875H31.2685C31.2053 27.3875 31.1421 27.3369 31.1295 27.2737C30.9778 26.5785 30.5859 26.3509 29.5493 26.3509C28.3864 26.3509 28.2472 26.7555 28.2472 27.0588C28.2472 27.4254 28.4116 27.5392 29.9791 27.7414C31.5339 27.9437 32.2672 28.2345 32.2672 29.3215C32.2545 30.434 31.3444 31.0661 29.7389 31.0661Z" fill="#539E43"/>
<path d="M12.5342 12.281C12.5342 12.0535 12.4078 11.8385 12.2055 11.7247L6.84571 8.64037C6.75712 8.58973 6.65605 8.56446 6.55499 8.55178H6.50435C6.40329 8.55178 6.30212 8.58973 6.21363 8.64037L0.853818 11.7247C0.651475 11.8385 0.525146 12.0534 0.525146 12.281L0.537834 20.5735C0.537834 20.6873 0.601053 20.801 0.702115 20.8517C0.803287 20.9149 0.929615 20.9149 1.01821 20.8517L4.20376 19.0313C4.40599 18.9176 4.53243 18.7027 4.53243 18.4752V14.5943C4.53243 14.3668 4.65876 14.1519 4.8611 14.0381L6.21363 13.2544C6.3148 13.1911 6.42855 13.1658 6.5423 13.1658C6.65605 13.1658 6.7698 13.1911 6.8584 13.2544L8.21093 14.0381C8.41327 14.1519 8.5396 14.3667 8.5396 14.5943V18.4752C8.5396 18.7027 8.66604 18.9176 8.86827 19.0313L12.0538 20.8517C12.103 20.8826 12.16 20.8991 12.2182 20.8991C12.2763 20.8991 12.3333 20.8826 12.3825 20.8517C12.4837 20.801 12.5469 20.6873 12.5469 20.5735L12.5342 12.281ZM38.2967 0.866105C38.1957 0.815465 38.0692 0.815465 37.9806 0.866105C37.8796 0.929324 37.8163 1.03039 37.8163 1.14414V9.36093C37.8163 9.43673 37.7785 9.51253 37.7026 9.56317C37.6268 9.60101 37.5509 9.60101 37.4751 9.56317L36.1351 8.79207C36.0369 8.73617 35.9258 8.70678 35.8128 8.70678C35.6997 8.70678 35.5886 8.73617 35.4904 8.79207L30.1306 11.8891C29.9283 12.0029 29.8019 12.2178 29.8019 12.4453V18.6267C29.8019 18.8542 29.9283 19.0693 30.1306 19.183L35.4904 22.2801C35.5886 22.336 35.6997 22.3654 35.8128 22.3654C35.9258 22.3654 36.0369 22.336 36.1351 22.2801L41.4949 19.183C41.6972 19.0693 41.8236 18.8544 41.8236 18.6267V3.21734C41.8236 2.97715 41.6972 2.76234 41.4949 2.64848L38.2967 0.866105ZM37.8038 16.5916C37.8038 16.6548 37.7785 16.7054 37.7279 16.7306L35.8949 17.7924C35.8694 17.805 35.8412 17.8115 35.8128 17.8115C35.7843 17.8115 35.7561 17.805 35.7306 17.7924L33.8977 16.7306C33.847 16.7054 33.8217 16.6421 33.8217 16.5916V14.4679C33.8217 14.4047 33.847 14.3541 33.8977 14.3289L35.7306 13.2669C35.7561 13.2544 35.7843 13.2479 35.8128 13.2479C35.8412 13.2479 35.8694 13.2544 35.8949 13.2669L37.7279 14.3289C37.7785 14.354 37.8038 14.4173 37.8038 14.4679V16.5916ZM56.1333 14.4173C56.3356 14.3036 56.4494 14.0887 56.4494 13.8611V12.3568C56.4494 12.1293 56.3229 11.9144 56.1333 11.8007L50.8114 8.71628C50.7132 8.66037 50.6021 8.63098 50.489 8.63098C50.376 8.63098 50.2649 8.66037 50.1666 8.71628L44.8068 11.8132C44.6045 11.927 44.4782 12.1419 44.4782 12.3694V18.5509C44.4782 18.7784 44.6046 18.9934 44.8068 19.1071L50.1287 22.141C50.331 22.2547 50.5712 22.2547 50.7609 22.141L53.9843 20.3461C54.0854 20.2955 54.1487 20.1817 54.1487 20.068C54.1487 19.9542 54.0854 19.8405 53.9843 19.7898L48.5992 16.6928C48.498 16.6296 48.4348 16.5285 48.4348 16.4147V14.4807C48.4348 14.3669 48.498 14.2532 48.5992 14.2025L50.2804 13.2418C50.3296 13.2108 50.3866 13.1944 50.4447 13.1944C50.5029 13.1944 50.5598 13.2108 50.6091 13.2418L52.2904 14.2025C52.3915 14.2657 52.4547 14.3668 52.4547 14.4807V15.9976C52.4547 16.1113 52.5179 16.2251 52.619 16.2756C52.6683 16.3066 52.7252 16.323 52.7834 16.323C52.8415 16.323 52.8985 16.3066 52.9477 16.2756L56.1333 14.4173Z" fill="#333333"/>
<path d="M50.4069 14.1264C50.4257 14.114 50.4476 14.1074 50.4701 14.1074C50.4926 14.1074 50.5146 14.114 50.5333 14.1264L51.5573 14.7205C51.5952 14.7459 51.6204 14.7837 51.6204 14.8343V16.0226C51.6204 16.0732 51.5953 16.1111 51.5573 16.1364L50.5333 16.7305C50.5146 16.7429 50.4926 16.7495 50.4701 16.7495C50.4476 16.7495 50.4257 16.7429 50.4069 16.7305L49.383 16.1364C49.3451 16.1111 49.3198 16.0732 49.3198 16.0226V14.8344C49.3198 14.7837 49.345 14.7458 49.383 14.7206L50.4069 14.1264Z" fill="#539E43"/>
<path d="M21.4967 8.74152C21.3985 8.68563 21.2874 8.65625 21.1744 8.65625C21.0614 8.65625 20.9503 8.68563 20.8521 8.74152L15.5302 11.8131C15.3279 11.9268 15.2141 12.1418 15.2141 12.3693V18.5255C15.2141 18.753 15.3405 18.968 15.5302 19.0817L20.8521 22.1535C20.9503 22.2094 21.0614 22.2388 21.1744 22.2388C21.2874 22.2388 21.3985 22.2094 21.4967 22.1535L26.8187 19.0817C27.0209 18.968 27.1348 18.753 27.1348 18.5255V12.3694C27.1348 12.1419 27.0082 11.927 26.8187 11.8132L21.4967 8.74152Z" fill="url(#paint0_linear_2228_633)"/>
<mask id="mask0_2228_633" style="mask-type:luminance" maskUnits="userSpaceOnUse" x="15" y="8" width="13" height="15">
<path d="M21.4967 8.74152C21.3985 8.68563 21.2874 8.65625 21.1744 8.65625C21.0614 8.65625 20.9503 8.68563 20.8521 8.74152L15.5302 11.8131C15.3279 11.9268 15.2141 12.1418 15.2141 12.3693V18.5255C15.2141 18.753 15.3405 18.968 15.5302 19.0817L20.8521 22.1535C20.9503 22.2094 21.0614 22.2388 21.1744 22.2388C21.2874 22.2388 21.3985 22.2094 21.4967 22.1535L26.8187 19.0817C27.0209 18.968 27.1348 18.753 27.1348 18.5255V12.3694C27.1348 12.1419 27.0082 11.927 26.8187 11.8132L21.4967 8.74152Z" fill="white"/>
</mask>
<g mask="url(#mask0_2228_633)">
<path d="M26.8313 11.8136L21.4842 8.74193C21.4316 8.71538 21.3766 8.6942 21.3198 8.67871L15.3279 18.9433C15.3775 19.0039 15.4375 19.0553 15.505 19.095L20.8521 22.1668C21.0038 22.2553 21.1808 22.2806 21.345 22.2299L26.9704 11.9402C26.9325 11.8896 26.8818 11.8515 26.8313 11.8136Z" fill="url(#paint1_linear_2228_633)"/>
</g>
<mask id="mask1_2228_633" style="mask-type:luminance" maskUnits="userSpaceOnUse" x="15" y="8" width="13" height="15">
<path d="M21.4967 8.74152C21.3985 8.68563 21.2874 8.65625 21.1744 8.65625C21.0614 8.65625 20.9503 8.68563 20.8521 8.74152L15.5302 11.8131C15.3279 11.9268 15.2141 12.1418 15.2141 12.3693V18.5255C15.2141 18.753 15.3405 18.968 15.5302 19.0817L20.8521 22.1535C20.9503 22.2094 21.0614 22.2388 21.1744 22.2388C21.2874 22.2388 21.3985 22.2094 21.4967 22.1535L26.8187 19.0817C27.0209 18.968 27.1348 18.753 27.1348 18.5255V12.3694C27.1348 12.1419 27.0082 11.927 26.8187 11.8132L21.4967 8.74152Z" fill="white"/>
</mask>
<g mask="url(#mask1_2228_633)">
<path fill-rule="evenodd" clip-rule="evenodd" d="M26.8439 19.082C26.9956 18.9935 27.1093 18.8418 27.16 18.6776L21.2943 8.6658C21.1426 8.64054 20.9782 8.65311 20.8393 8.7416L15.53 11.8008L21.2564 22.2423C21.3397 22.2288 21.4206 22.2032 21.4965 22.1665L26.8439 19.082Z" fill="url(#paint2_linear_2228_633)"/>
<path fill-rule="evenodd" clip-rule="evenodd" d="M26.844 19.0812L21.5095 22.153C21.4341 22.1914 21.353 22.217 21.2693 22.2288L21.3705 22.4185L27.2864 18.9928V18.9169L27.1347 18.6641C27.1095 18.841 26.9957 18.9927 26.844 19.0812Z" fill="url(#paint3_linear_2228_633)"/>
<path fill-rule="evenodd" clip-rule="evenodd" d="M26.844 19.0812L21.5095 22.153C21.4341 22.1914 21.353 22.217 21.2693 22.2288L21.3705 22.4185L27.2864 18.9928V18.9169L27.1347 18.6641C27.1095 18.841 26.9957 18.9927 26.844 19.0812Z" fill="url(#paint4_linear_2228_633)"/>
</g>
<defs>
<linearGradient id="paint0_linear_2228_633" x1="828.061" y1="246.174" x2="244.739" y2="1162.75" gradientUnits="userSpaceOnUse">
<stop stop-color="#41873F"/>
<stop offset="0.3288" stop-color="#418B3D"/>
<stop offset="0.6352" stop-color="#419637"/>
<stop offset="0.9319" stop-color="#3FA92D"/>
<stop offset="1" stop-color="#3FAE2A"/>
</linearGradient>
<linearGradient id="paint1_linear_2228_633" x1="519.182" y1="757.712" x2="1980.1" y2="-36.0094" gradientUnits="userSpaceOnUse">
<stop offset="0.1376" stop-color="#41873F"/>
<stop offset="0.4032" stop-color="#54A044"/>
<stop offset="0.7136" stop-color="#66B848"/>
<stop offset="0.9081" stop-color="#6CC04A"/>
</linearGradient>
<linearGradient id="paint2_linear_2228_633" x1="-35.5138" y1="688.014" x2="1195.96" y2="688.014" gradientUnits="userSpaceOnUse">
<stop offset="0.09192" stop-color="#6CC04A"/>
<stop offset="0.2864" stop-color="#66B848"/>
<stop offset="0.5968" stop-color="#54A044"/>
<stop offset="0.8624" stop-color="#41873F"/>
</linearGradient>
<linearGradient id="paint3_linear_2228_633" x1="-603.679" y1="207.417" x2="627.781" y2="207.417" gradientUnits="userSpaceOnUse">
<stop offset="0.09192" stop-color="#6CC04A"/>
<stop offset="0.2864" stop-color="#66B848"/>
<stop offset="0.5968" stop-color="#54A044"/>
<stop offset="0.8624" stop-color="#41873F"/>
</linearGradient>
<linearGradient id="paint4_linear_2228_633" x1="807.188" y1="-773.775" x2="495.212" y2="860.974" gradientUnits="userSpaceOnUse">
<stop stop-color="#41873F"/>
<stop offset="0.3288" stop-color="#418B3D"/>
<stop offset="0.6352" stop-color="#419637"/>
<stop offset="0.9319" stop-color="#3FA92D"/>
<stop offset="1" stop-color="#3FAE2A"/>
</linearGradient>
</defs>
</svg>
