<svg width="57" height="56" viewBox="0 0 57 56" fill="none" xmlns="http://www.w3.org/2000/svg">
<path d="M43.375 0H13.625C6.37626 0 0.5 5.87626 0.5 13.125V42.875C0.5 50.1237 6.37626 56 13.625 56H43.375C50.6237 56 56.5 50.1237 56.5 42.875V13.125C56.5 5.87626 50.6237 0 43.375 0Z" fill="#F4F2ED"/>
<path d="M7.99219 13.3711L28.3523 6.125L49.2484 13.2589L45.8714 40.1844L28.3523 49.875L11.1177 40.3102L7.99219 13.3711Z" fill="#E23237"/>
<path d="M49.2484 13.2591L28.3523 6.125V49.875L45.8713 40.1844L49.2484 13.2591Z" fill="#B52E31"/>
<path d="M28.3838 11.2383L15.6963 39.457L20.4309 39.3612L22.9874 32.9849H34.3351L37.1132 39.4107L41.6276 39.5063L28.3838 11.2383ZM28.4151 20.2972L32.708 29.262H24.6718L28.4275 20.2972H28.4151Z" fill="white"/>
</svg>
