<svg width="57" height="56" viewBox="0 0 57 56" fill="none" xmlns="http://www.w3.org/2000/svg">
<path d="M28.5 32.3291C30.9162 32.3291 32.875 30.3703 32.875 27.9541C32.875 25.5379 30.9162 23.5791 28.5 23.5791C26.0838 23.5791 24.125 25.5379 24.125 27.9541C24.125 30.3703 26.0838 32.3291 28.5 32.3291Z" fill="#00D8FF"/>
<path d="M28.5 37.9851C23.2415 38.1118 17.9962 37.403 12.96 35.8851C10.6336 35.1476 8.46379 33.9858 6.56025 32.4586C5.83363 31.9371 5.22854 31.2644 4.78659 30.4868C4.34463 29.7092 4.07629 28.8452 4 27.9541C4 25.0613 7.178 22.2263 12.5015 20.3713C17.6726 18.729 23.075 17.9324 28.5 18.0123C33.8527 17.9383 39.1828 18.7205 44.2885 20.3293C46.5287 21.0444 48.6247 22.1499 50.48 23.5948C51.1932 24.093 51.7885 24.7415 52.2239 25.4947C52.6593 26.2479 52.9242 27.0874 53 27.9541C53 30.9606 49.4475 34.0073 43.725 35.9008C38.7864 37.3697 33.6517 38.0726 28.5 37.9851ZM28.5 20.1053C23.3098 20.0375 18.1418 20.7947 13.1892 22.3488C8.28925 24.0586 6.093 26.3966 6.093 27.9488C6.093 29.5728 8.45375 32.1261 13.6372 33.8988C18.4551 35.3443 23.4716 36.0171 28.5 35.8921C33.4287 35.9802 38.3419 35.3133 43.0688 33.9146C48.45 32.1313 50.9 29.5746 50.9 27.9541C50.8114 27.3981 50.6086 26.8664 50.3044 26.3927C50.0002 25.9189 49.6012 25.5133 49.1325 25.2013C47.4729 23.919 45.6004 22.9392 43.6007 22.3068C38.7163 20.7745 33.6186 20.0313 28.5 20.1053Z" fill="#00D8FF"/>
<path d="M18.56 49.7752C17.7437 49.7938 16.937 49.5957 16.2221 49.2012C13.7161 47.7557 12.8481 43.5872 13.8998 38.0484C15.0608 32.7482 17.0699 27.6703 19.8498 23.0107C22.4592 18.337 25.7989 14.1105 29.7425 10.4912C31.4811 8.90759 33.486 7.64389 35.6645 6.7584C36.453 6.3901 37.3126 6.19922 38.1828 6.19922C39.053 6.19922 39.9126 6.3901 40.701 6.7584C43.3068 8.2599 44.1696 12.8589 42.9533 18.7617C41.758 23.7747 39.8009 28.5747 37.1503 32.9944C34.633 37.613 31.3984 41.8028 27.5673 45.4072C25.7662 47.0535 23.6759 48.3523 21.4021 49.2379C20.492 49.5766 19.531 49.7583 18.56 49.7752ZM21.6628 24.0502C19.0114 28.5122 17.0857 33.3671 15.9578 38.4334C14.9901 43.5347 15.9193 46.6024 17.2703 47.3829C18.6703 48.1932 22.0688 47.4249 26.1953 43.8199C29.853 40.3672 32.9404 36.3567 35.3426 31.9374C37.8817 27.7121 39.759 23.1229 40.9093 18.3294C42.0538 12.7732 41.0651 9.37115 39.6616 8.56265C39.1355 8.36141 38.5734 8.27136 38.0107 8.29816C37.4481 8.32497 36.8971 8.46806 36.3925 8.7184C34.4531 9.51895 32.67 10.6552 31.125 12.0749C27.3575 15.542 24.1674 19.5881 21.6751 24.0607L21.6628 24.0502Z" fill="#00D8FF"/>
<path d="M38.4348 49.7985C36.0636 49.7985 33.0518 48.3634 29.9158 45.6667C25.9035 42.014 22.5074 37.7374 19.8586 33.002C17.113 28.4068 15.1197 23.4022 13.9541 18.1777C13.4497 15.8789 13.3561 13.5091 13.6776 11.1777C13.7531 10.3131 14.0169 9.47556 14.4504 8.72372C14.8839 7.97189 15.4767 7.32398 16.1871 6.82545C18.7893 5.3187 23.2046 6.86745 27.7108 10.868C31.4568 14.4068 34.638 18.4992 37.1433 23.0025C39.8874 27.4903 41.9016 32.3853 43.1108 37.5047C43.6378 39.8877 43.719 42.3476 43.3506 44.7602C43.2632 45.65 42.9843 46.5104 42.533 47.2822C42.0817 48.054 41.4687 48.719 40.7361 49.2315C40.0325 49.6204 39.2385 49.8161 38.4348 49.7985ZM21.6698 31.9485C24.2111 36.4739 27.4552 40.5668 31.2808 44.0742C35.2166 47.4604 38.3386 48.1884 39.6808 47.3992C41.0808 46.5854 42.1133 43.264 41.0493 37.8897C39.8839 33.0017 37.9519 28.3291 35.3251 24.0455C32.9343 19.7354 29.8979 15.8167 26.3213 12.4255C22.0793 8.65945 18.6388 7.8177 17.2371 8.6297C16.8004 8.98496 16.442 9.42678 16.1845 9.92735C15.927 10.4279 15.7759 10.9764 15.7408 11.5382C15.4628 13.6174 15.5534 15.7293 16.0086 17.777C17.1301 22.7731 19.0418 27.5583 21.6716 31.952L21.6698 31.9485Z" fill="#00D8FF"/>
</svg>
