<svg width="36" height="36" viewBox="0 0 36 36" fill="none" xmlns="http://www.w3.org/2000/svg">
<rect x="0.5" y="0.5" width="35" height="35" rx="17.5" stroke="#0A40C6"/>
<path d="M16.25 17.4375C17.5938 17.8125 18.25 18.8438 18.25 20.2188C18.25 22.4688 16.375 23.4375 14.3438 23.4375H9V12.375H14.2188C16.0938 12.375 17.75 12.9062 17.75 15.125C17.75 16.2188 17.2188 16.9375 16.25 17.4375ZM11.4062 14.25V16.8438H13.875C14.75 16.8438 15.375 16.4688 15.375 15.5312C15.375 14.5 14.5938 14.25 13.7188 14.25H11.4062ZM14.0312 21.5625C15 21.5625 15.8125 21.2188 15.8125 20.0938C15.8125 18.9688 15.1562 18.5 14.0625 18.5H11.4062V21.5625H14.0312ZM25.2188 14.0312H20.75V12.9375H25.2188V14.0312ZM27 19.5625C27 19.6875 26.9688 19.8438 26.9688 19.9688H21.1875C21.1875 21.25 21.875 22 23.1562 22C23.8125 22 24.6875 21.6562 24.9062 20.9688H26.8438C26.25 22.7812 25 23.6562 23.0938 23.6562C20.5625 23.6562 18.9688 21.9375 18.9688 19.4375C18.9688 17.0312 20.625 15.1875 23.0938 15.1875C25.5938 15.1875 27 17.1875 27 19.5625ZM21.1875 18.5625H24.7812C24.6875 17.5 24.125 16.875 23 16.875C21.9688 16.875 21.25 17.5312 21.1875 18.5625Z" fill="#0A40C6"/>
</svg>
