<svg width="36" height="36" viewBox="0 0 36 36" fill="none" xmlns="http://www.w3.org/2000/svg">
<rect x="0.5" y="0.5" width="35" height="35" rx="17.5" stroke="#0A40C6"/>
<path d="M25 16.5625H24.9688C23.5312 16.5625 22.2188 16.125 21.1562 15.3438V20.9375C21.1562 23.75 18.875 26 16.0625 26C13.25 26 11 23.75 11 20.9375C11 18.125 13.25 15.8438 16.0625 15.8438C16.3125 15.8438 16.5312 15.875 16.7812 15.9062V18.7188C16.5312 18.625 16.3125 18.5938 16.0625 18.5938C14.7812 18.5938 13.7188 19.6562 13.7188 20.9375C13.7188 22.2188 14.7812 23.2812 16.0625 23.2812C17.3438 23.2812 18.4062 22.2188 18.4062 20.9375V10H21.1562C21.1562 10.0312 21.1562 10.0312 21.1562 10.0625C21.1562 10.2812 21.1562 10.5 21.2188 10.7188C21.4062 11.75 22.0312 12.6562 22.9062 13.2188C23.5 13.625 24.2188 13.8438 24.9688 13.8438C24.9688 13.8438 24.9688 13.8438 25 13.8438V16.5625Z" fill="#0A40C6"/>
</svg>
