<svg width="36" height="36" viewBox="0 0 36 36" fill="none" xmlns="http://www.w3.org/2000/svg">
<rect x="0.5" y="0.5" width="35" height="35" rx="17.5" stroke="#0A40C6"/>
<path d="M25.75 18C25.75 21.875 22.9062 25.0938 19.1875 25.6562V20.25H21L21.3438 18H19.1875V16.5625C19.1875 15.9375 19.5 15.3438 20.4688 15.3438H21.4375V13.4375C21.4375 13.4375 20.5625 13.2812 19.6875 13.2812C17.9375 13.2812 16.7812 14.375 16.7812 16.3125V18H14.8125V20.25H16.7812V25.6562C13.0625 25.0938 10.25 21.875 10.25 18C10.25 13.7188 13.7188 10.25 18 10.25C22.2812 10.25 25.75 13.7188 25.75 18Z" fill="#0A40C6"/>
</svg>
