<svg width="36" height="36" viewBox="0 0 36 36" fill="none" xmlns="http://www.w3.org/2000/svg">
<rect x="0.5" y="0.5" width="35" height="35" rx="17.5" stroke="#0A40C6"/>
<path d="M18.375 10.2188C21.3125 10.2188 24 12.25 24 15.3438C24 18.25 22.5 21.5 19.1875 21.5C18.375 21.5 17.4062 21.0938 17 20.375C16.3125 23.1875 16.3438 23.625 14.7812 25.7812C14.625 25.8438 14.6562 25.8438 14.5625 25.7188C14.5 25.125 14.4375 24.5625 14.4375 23.9688C14.4375 22.0625 15.3125 19.2812 15.75 17.4375C15.5 16.9375 15.4375 16.375 15.4375 15.8438C15.4375 13.3438 18.375 12.9688 18.375 15.0312C18.375 16.25 17.5312 17.4062 17.5312 18.5938C17.5312 19.375 18.2188 19.9375 19 19.9375C21.1562 19.9375 21.8125 16.8438 21.8125 15.1875C21.8125 12.9688 20.25 11.75 18.0938 11.75C15.625 11.75 13.7188 13.5312 13.7188 16.0312C13.7188 17.25 14.4688 17.875 14.4688 18.1562C14.4688 18.4062 14.2812 19.25 13.9688 19.25C13.2188 19.25 12 18 12 15.8125C12 12.3438 15.1562 10.2188 18.375 10.2188Z" fill="#0A40C6"/>
</svg>
