<svg width="316" height="67" viewBox="0 0 316 67" fill="none" xmlns="http://www.w3.org/2000/svg">
<path d="M54.7998 30.4179C54.242 23.5587 52.499 17.0149 47.3646 11.4925C42.5092 6.27551 35.2782 3.12128 28.1867 2.95605H26.618C20.6022 3.1413 14.6561 5.31422 9.90021 9.37968C3.79973 14.6017 0.209159 22.3621 0.0248999 30.3929C0.00995997 30.6182 0 30.8485 0 31.0738V65.9957H16.175V30.5131C16.175 19.1979 32.6089 14.8871 37.4893 25.4813C38.7791 28.2851 38.8041 31.4894 38.8041 34.5835C38.8041 45.0526 38.814 55.5267 38.819 65.9957H54.994V45.333C54.994 40.3663 55.1982 35.3095 54.7998 30.4129V30.4179ZM50.1485 40.5816C50.1883 49.8641 50.1783 61.1192 50.1385 61.1192H43.6695C43.6695 54.8257 43.6695 48.5273 43.7093 42.2338C43.7392 36.446 44.6605 29.8772 42.4245 24.3848C38.9833 15.9385 28.7993 11.9882 20.5574 15.9535C13.6103 19.293 11.3544 26.1873 11.3195 33.3719C11.2747 42.6193 11.3195 51.8718 11.3195 61.1242H4.85051V31.0788C4.85051 30.9637 4.85051 30.8535 4.86047 30.7384L4.87043 30.5681C5.38834 19.8838 12.2707 10.7065 22.7934 8.19309C35.7463 5.09893 48.7242 15.7482 49.9991 28.6406C50.0787 29.4316 50.1236 34.5986 50.1534 40.5866L50.1485 40.5816Z" fill="#0A40C6"/>
<path d="M84.4456 12.3839C78.4846 6.25564 70.5116 2.87109 62.0008 2.87109L44.1924 2.91115C44.1924 2.91115 44.2173 2.92617 44.2272 2.93618C46.3886 4.293 48.3756 5.92019 50.1634 7.74764H62.0058C69.1969 7.74764 75.9398 10.6115 80.9795 15.7985C85.8699 20.8302 88.5491 27.4241 88.5491 34.4285C88.5491 34.6338 88.5491 34.844 88.5392 35.0443C88.2155 49.4286 76.0494 61.1193 61.4281 61.1193H59.6104V65.9959H61.4281C70.0485 65.9959 77.9417 62.5412 83.7335 56.9537C89.5252 51.3662 93.1954 43.6609 93.3897 35.1545C93.5839 26.603 90.4067 18.5121 84.4456 12.3789V12.3839ZM78.8381 33.2469C79.1519 37.8731 77.5682 42.3291 74.3562 45.7837C71.0494 49.3535 66.3583 51.4013 61.5078 51.4013H59.6054V56.2778H61.5078C67.7029 56.2778 73.6789 53.6693 77.9069 49.1132C82.0403 44.6472 84.092 38.8945 83.6737 32.9064C82.8968 21.5061 73.3801 12.5791 62.0008 12.5791H54.0528C55.0786 14.1262 55.9701 15.7584 56.722 17.4557H62.0058C70.8353 17.4557 78.2356 24.39 78.8431 33.2369L78.8381 33.2469Z" fill="#0A40C6"/>
<path d="M130.919 42.2542L128.892 36.5215H120.899L118.902 42.2542H115.7L123.429 21.4863H126.571L134.211 42.2542H130.919ZM121.81 33.893H127.981L124.868 25.0862L121.81 33.893Z" fill="#0A40C6"/>
<path d="M152.751 34.5739C152.751 39.7759 149.315 42.6097 145.226 42.6097C142.671 42.6097 140.789 41.4582 139.464 39.2402V42.2542H136.586V21.4863H139.524V29.6673C140.874 27.5695 142.816 26.3579 145.226 26.3579C149.31 26.3579 152.751 29.1066 152.751 34.5689V34.5739ZM149.668 34.5138C149.668 30.7638 147.612 28.9614 144.908 28.9614C142.203 28.9614 140.117 31.2945 139.469 34.4287V34.5739C140.117 37.7332 142.084 40.0112 144.908 40.0112C147.731 40.0112 149.668 38.0035 149.668 34.5138Z" fill="#0A40C6"/>
<path d="M179.085 26.7432L173.03 42.254L170.181 42.224L166.536 30.5533L162.452 42.254L159.544 42.224L154.081 26.7432H157.402L161.107 38.5891L165.131 26.7432H168.129L171.804 38.6191L175.888 26.7432H179.09H179.085Z" fill="#0A40C6"/>
<path d="M193.422 26.7439H196.361V42.2548H193.422V39.2107C192.098 41.4286 190.25 42.5802 187.72 42.5802C183.607 42.5802 180.166 39.7414 180.166 34.5144C180.166 29.2873 183.547 26.3584 187.72 26.3584C190.22 26.3584 192.098 27.4799 193.422 29.4876V26.7389V26.7439ZM193.422 34.5144V34.3942C192.805 31.2049 190.599 28.9569 187.984 28.9569C185.37 28.9569 183.253 30.7293 183.253 34.4793C183.253 37.964 185.28 39.9767 187.984 39.9767C190.833 39.9767 192.745 37.6736 193.422 34.5093V34.5144Z" fill="#0A40C6"/>
<path d="M216.963 34.5739C216.963 39.7759 213.527 42.6097 209.438 42.6097C206.883 42.6097 205.001 41.4582 203.676 39.2402V42.2542H200.798V21.4863H203.736V29.6673C205.086 27.5695 207.028 26.3579 209.438 26.3579C213.522 26.3579 216.963 29.1066 216.963 34.5689V34.5739ZM213.88 34.5138C213.88 30.7638 211.824 28.9614 209.119 28.9614C206.415 28.9614 204.329 31.2945 203.681 34.4287V34.5739C204.329 37.7332 206.296 40.0112 209.119 40.0112C211.943 40.0112 213.88 38.0035 213.88 34.5138Z" fill="#0A40C6"/>
<path d="M241.763 31.8853C241.763 38.3239 237.296 42.2542 231.271 42.2542H225.364V21.4863H231.271C237.326 21.4863 241.763 25.4767 241.763 31.8853ZM231.3 39.5656C235.533 39.5656 238.616 36.8169 238.616 32.0005C238.616 27.184 235.474 24.1699 231.33 24.1699H228.392V39.5606H231.3V39.5656Z" fill="#0A40C6"/>
<path d="M246.788 20.0996C247.844 20.0996 248.755 20.8957 248.755 22.0222C248.755 23.1487 247.874 23.9698 246.788 23.9698C245.757 23.9698 244.851 23.1437 244.851 22.0222C244.851 20.9007 245.732 20.0996 246.788 20.0996ZM245.319 42.2544V26.7435H248.257V42.2544H245.319Z" fill="#0A40C6"/>
<path d="M264.98 26.7439H267.918V42.1346C267.918 46.155 264.363 48.7835 259.781 48.7835C257.281 48.7835 254.432 48.0425 252.729 46.8359L253.227 44.1473C255.11 45.419 257.814 46.0949 259.811 46.0949C262.605 46.0949 264.985 44.678 264.985 41.8692V39.0304C263.66 41.1282 261.783 42.1346 259.253 42.1346C255.169 42.1346 251.728 39.5361 251.728 34.3341C251.728 29.1321 255.11 26.3584 259.253 26.3584C261.753 26.3584 263.66 27.4799 264.985 29.5176V26.7389L264.98 26.7439ZM264.98 34.4593V34.3391C264.333 31.2099 262.186 28.9619 259.512 28.9619C256.838 28.9619 254.781 30.559 254.781 34.279C254.781 37.7036 256.838 39.5361 259.542 39.5361C262.246 39.5361 264.303 37.5835 264.98 34.4543V34.4593Z" fill="#0A40C6"/>
<path d="M273.824 20.0996C274.88 20.0996 275.791 20.8957 275.791 22.0222C275.791 23.1487 274.91 23.9698 273.824 23.9698C272.794 23.9698 271.887 23.1437 271.887 22.0222C271.887 20.9007 272.769 20.0996 273.824 20.0996ZM272.355 42.2544V26.7435H275.294V42.2544H272.355Z" fill="#0A40C6"/>
<path d="M290.134 41.5487C288.839 42.1996 287.519 42.5851 285.756 42.5851C282.848 42.5851 280.702 40.9279 280.702 37.0577V29.112H277.968V26.7488H280.702V22.2578H283.64V26.7488H289.372V29.112H283.64V36.4369C283.64 39.0954 284.815 39.9816 286.404 39.9816C287.46 39.9816 288.55 39.7463 289.546 39.2156L290.134 41.5487Z" fill="#0A40C6"/>
<path d="M304.476 26.7439H307.414V42.2548H304.476V39.2107C303.152 41.4286 301.304 42.5802 298.774 42.5802C294.661 42.5802 291.219 39.7414 291.219 34.5144C291.219 29.2873 294.601 26.3584 298.774 26.3584C301.274 26.3584 303.152 27.4799 304.476 29.4876V26.7389V26.7439ZM304.476 34.5144V34.3942C303.859 31.2049 301.653 28.9569 299.038 28.9569C296.424 28.9569 294.307 30.7293 294.307 34.4793C294.307 37.964 296.334 39.9767 299.038 39.9767C301.887 39.9767 303.799 37.6736 304.476 34.5093V34.5144Z" fill="#0A40C6"/>
<path d="M311.852 42.2542V21.4863H314.79V42.2542H311.852Z" fill="#0A40C6"/>
</svg>
