<svg width="182" height="182" viewBox="0 0 182 182" fill="none" xmlns="http://www.w3.org/2000/svg">
<path d="M33.3086 161.974L90.1836 179.037C90.7151 179.2 91.2839 179.196 91.8132 179.026L91.8165 179.037L148.691 161.974C149.277 161.799 149.791 161.439 150.156 160.948C150.521 160.457 150.719 159.862 150.719 159.25V116.682L162.784 113.665C163.272 113.543 163.719 113.294 164.08 112.943C164.44 112.591 164.7 112.151 164.835 111.666C164.969 111.181 164.972 110.669 164.844 110.182C164.715 109.695 164.46 109.252 164.104 108.896L147.042 91.8333C146.649 91.4486 146.153 91.1866 145.613 91.0795L145.617 91.0613L111.492 83.877L110.32 89.4422L131.228 93.8439L91 102.313L50.7722 93.8439L71.6797 89.4422L70.5078 83.877L36.3828 91.0613L36.3865 91.0784C35.8471 91.1858 35.3507 91.4482 34.9582 91.8334L17.8957 108.896C17.5397 109.252 17.2845 109.695 17.1561 110.182C17.0278 110.669 17.0309 111.181 17.1652 111.666C17.2995 112.151 17.5601 112.591 17.9204 112.943C18.2808 113.294 18.7279 113.544 19.2162 113.666L31.2813 116.682V159.25C31.2813 159.862 31.4786 160.457 31.8438 160.948C32.209 161.439 32.7226 161.799 33.3086 161.974ZM144.109 96.9445L156.531 109.365L106.407 121.897L95.842 107.106L144.109 96.9445ZM93.8438 114.093L102.904 126.777C103.236 127.242 103.7 127.596 104.236 127.794C104.772 127.991 105.355 128.022 105.909 127.884L145.031 118.104V157.134L93.8438 172.49V114.093ZM88.1563 172.49L36.9688 157.134V118.104L76.0912 127.884C76.6452 128.022 77.2281 127.991 77.764 127.793C78.2999 127.596 78.764 127.242 79.096 126.777L88.1563 114.093V172.49ZM25.4688 109.365L37.8908 96.9445L86.1581 107.106L75.5926 121.897L25.4688 109.365Z" fill="white" fill-opacity="0.1"/>
<path d="M69.6719 29.5321H78.9446C79.6988 29.532 80.4221 29.2324 80.9554 28.6991C81.4887 28.1658 81.7883 27.4425 81.7884 26.6883C81.751 24.8584 82.2595 23.0589 83.249 21.5191C84.2385 19.9794 85.6642 18.7693 87.3443 18.0431C89.0243 17.3168 90.8826 17.1075 92.6821 17.4416C94.4816 17.7757 96.1408 18.6383 97.4481 19.9192C98.7555 21.2001 99.6517 22.8414 100.022 24.6337C100.393 26.426 100.222 28.2882 99.5301 29.9827C98.8383 31.6772 97.6575 33.1273 96.1383 34.148C94.6191 35.1687 92.8303 35.7139 91 35.7139C89.0264 35.7066 87.1305 36.4824 85.7282 37.8712C84.3259 39.26 83.5317 41.1483 83.5199 43.1218V68.2504C83.5199 69.0046 83.8195 69.7279 84.3528 70.2612C84.8861 70.7945 85.6094 71.0941 86.3636 71.0941H95.6378C96.392 71.0941 97.1153 70.7945 97.6486 70.2612C98.1819 69.7279 98.4815 69.0046 98.4815 68.2504V49.3619C103.293 47.8149 107.494 44.7919 110.49 40.7219C113.486 36.652 115.124 31.7418 115.172 26.6883C115.085 20.3346 112.5 14.2705 107.977 9.80806C103.453 5.34563 97.3543 2.84375 91 2.84375C84.6457 2.84375 78.5469 5.34563 74.0232 9.80806C69.4995 14.2705 66.9148 20.3346 66.8281 26.6883C66.8282 27.4425 67.1278 28.1658 67.6611 28.6991C68.1944 29.2324 68.9177 29.532 69.6719 29.5321ZM91 8.53162C95.8571 8.49415 100.531 10.3846 103.996 13.7884C107.461 17.1921 109.435 21.8313 109.484 26.6883C109.436 30.8425 107.98 34.8575 105.354 38.0769C102.728 41.2963 99.0879 43.5296 95.0282 44.4118C94.395 44.5507 93.8284 44.9018 93.422 45.4069C93.0157 45.9119 92.7941 46.5406 92.794 47.1888V65.4066H89.2074V43.1218C89.2177 42.6562 89.4122 42.2136 89.7482 41.8911C90.0842 41.5686 90.5344 41.3925 91 41.4014C92.9476 41.4257 94.8807 41.0632 96.6872 40.3347C98.4936 39.6062 100.137 38.5264 101.523 37.1577C102.909 35.7891 104.01 34.1589 104.761 32.3617C105.512 30.5645 105.898 28.6361 105.898 26.6883C105.898 24.7405 105.512 22.8121 104.761 21.0149C104.01 19.2177 102.909 17.5875 101.523 16.2189C100.137 14.8502 98.4936 13.7704 96.6872 13.0419C94.8807 12.3134 92.9476 11.9509 91 11.9752C87.568 11.9639 84.2376 13.1394 81.5732 15.3025C78.9087 17.4657 77.074 20.4835 76.38 23.8446H72.742C73.4774 19.5426 75.7166 15.6417 79.0606 12.8372C82.4045 10.0326 86.6358 8.50677 91 8.53162Z" fill="white" fill-opacity="0.1"/>
<path d="M99.5313 82.4688C99.5313 80.7814 99.0309 79.132 98.0935 77.729C97.156 76.3261 95.8236 75.2326 94.2648 74.5869C92.7059 73.9412 90.9905 73.7722 89.3356 74.1014C87.6807 74.4306 86.1606 75.2431 84.9675 76.4362C83.7744 77.6294 82.9619 79.1495 82.6327 80.8044C82.3035 82.4593 82.4724 84.1746 83.1182 85.7335C83.7639 87.2924 84.8573 88.6248 86.2603 89.5622C87.6633 90.4997 89.3127 91 91 91C93.2619 90.9975 95.4304 90.0979 97.0298 88.4985C98.6292 86.8991 99.5288 84.7306 99.5313 82.4688ZM88.1563 82.4688C88.1563 81.9063 88.323 81.3565 88.6355 80.8889C88.948 80.4212 89.3921 80.0567 89.9118 79.8415C90.4314 79.6262 91.0032 79.5699 91.5548 79.6796C92.1064 79.7894 92.6131 80.0602 93.0108 80.4579C93.4085 80.8556 93.6794 81.3623 93.7891 81.914C93.8988 82.4656 93.8425 83.0374 93.6273 83.557C93.412 84.0766 93.0476 84.5208 92.5799 84.8332C92.1123 85.1457 91.5624 85.3125 91 85.3125C90.2461 85.3115 89.5233 85.0116 88.9903 84.4785C88.4572 83.9454 88.1572 83.2227 88.1563 82.4688Z" fill="white" fill-opacity="0.1"/>
<path d="M159.772 54.1744C159.895 54.6739 160.151 55.1307 160.513 55.4962C160.875 55.8617 161.329 56.1222 161.827 56.25C162.325 56.3778 162.849 56.3681 163.342 56.2219C163.835 56.0758 164.28 55.7986 164.628 55.42C166.874 52.6209 170.062 50.7349 173.596 50.1143C174.096 49.9915 174.553 49.7356 174.918 49.3737C175.284 49.0118 175.545 48.5575 175.672 48.0592C175.8 47.5609 175.79 47.0373 175.644 46.5441C175.498 46.0509 175.221 45.6066 174.842 45.2586C172.043 43.0125 170.156 39.8246 169.535 36.2899C169.412 35.7903 169.156 35.3334 168.794 34.9678C168.432 34.6022 167.978 34.3417 167.48 34.214C166.981 34.0863 166.458 34.0962 165.964 34.2427C165.471 34.3892 165.027 34.6667 164.679 35.0458C162.433 37.8444 159.245 39.7299 155.711 40.3501C155.211 40.4729 154.754 40.7289 154.389 41.0908C154.023 41.4527 153.762 41.907 153.635 42.4052C153.507 42.9035 153.517 43.4271 153.663 43.9203C153.809 44.4135 154.086 44.8578 154.465 45.2059C157.264 47.4519 159.151 50.6397 159.772 54.1744ZM165.451 42.1232C166.046 43.5211 166.823 44.8345 167.762 46.0292C166.364 46.6254 165.051 47.4027 163.856 48.3412C163.26 46.9434 162.484 45.6301 161.545 44.4352C162.943 43.8393 164.256 43.0619 165.451 42.1232Z" fill="white" fill-opacity="0.1"/>
<path d="M6.98302 44.8894C10.1173 46.6372 12.5086 49.4657 13.7105 52.8471C13.9149 53.3194 14.2436 53.7273 14.6615 54.0276C15.0793 54.3279 15.5708 54.5092 16.0836 54.5523C16.1627 54.5592 16.2419 54.562 16.321 54.562C16.7951 54.562 17.2617 54.4434 17.6783 54.2172C18.0949 53.9909 18.4484 53.6641 18.7065 53.2665C20.455 50.1321 23.2832 47.7402 26.6643 46.5362C27.1363 46.3319 27.544 46.0033 27.8441 45.5856C28.1441 45.1678 28.3253 44.6765 28.3682 44.164C28.4111 43.6514 28.3141 43.1369 28.0877 42.6751C27.8613 42.2133 27.5138 41.8215 27.0823 41.5416C23.9477 39.7948 21.5563 36.9665 20.3548 33.5852C20.1506 33.1128 19.8221 32.7048 19.4042 32.4045C18.9863 32.1042 18.4948 31.9229 17.982 31.88C17.4692 31.8371 16.9544 31.9342 16.4924 32.1608C16.0304 32.3875 15.6386 32.7353 15.3588 33.1671C13.6108 36.3013 10.7823 38.6925 7.40102 39.8947C6.92902 40.099 6.52128 40.4275 6.22123 40.8453C5.92118 41.263 5.74006 41.7543 5.69716 42.2669C5.65427 42.7794 5.7512 43.294 5.97763 43.7558C6.20406 44.2176 6.55155 44.6094 6.98302 44.8894ZM17.2999 40.0183C18.1208 41.2971 19.1064 42.4624 20.2312 43.4841C18.952 44.3045 17.7867 45.2901 16.7654 46.4153C15.9453 45.1355 14.9597 43.9697 13.8341 42.9481C15.1131 42.1281 16.2785 41.143 17.2999 40.0183Z" fill="white" fill-opacity="0.1"/>
<path d="M133.753 63.1245C139.36 58.2489 146.267 55.1134 153.628 54.1017L152.842 48.4697C145.821 49.4213 139.138 52.0696 133.37 56.1853C127.603 60.301 122.926 65.7602 119.743 72.0904L124.82 74.6536C127.023 70.2681 130.057 66.3525 133.753 63.1245Z" fill="white" fill-opacity="0.1"/>
<path d="M58.3149 80.4999L63.733 78.767C61.3355 71.2305 56.9354 64.4871 51.0029 59.2573C45.0705 54.0275 37.8285 50.5077 30.051 49.0742L29.0012 54.6645C35.7705 55.9087 42.0742 58.9699 47.2376 63.5208C52.4011 68.0716 56.2301 73.9405 58.3149 80.4999Z" fill="white" fill-opacity="0.1"/>
</svg>
