<svg width="40" height="41" viewBox="0 0 40 41" fill="none" xmlns="http://www.w3.org/2000/svg">
<rect y="0.5" width="40" height="40" rx="8" fill="white" fill-opacity="0.1"/>
<g clip-path="url(#clip0_2155_7633)">
<path d="M11.5625 21.6562C11.7425 21.6562 11.9223 21.5876 12.0596 21.4503L17.1875 16.3224L19.5029 18.6378C19.7775 18.9124 20.2225 18.9124 20.4971 18.6378L27.7344 11.4005V12.5156C27.7344 12.9042 28.049 13.2188 28.4375 13.2188C28.826 13.2188 29.1406 12.9042 29.1406 12.5156V9.70312C29.1406 9.68005 29.1393 9.6568 29.1371 9.63391C29.136 9.62238 29.1339 9.61121 29.1322 9.60004C29.1306 9.58868 29.1293 9.57733 29.1271 9.56616C29.1245 9.55243 29.1207 9.53925 29.1174 9.52588C29.115 9.51727 29.1132 9.50848 29.1106 9.49988C29.1064 9.48578 29.1013 9.47223 29.0961 9.4585C29.0932 9.45081 29.0908 9.44293 29.0877 9.43542C29.0818 9.42133 29.0751 9.40759 29.0685 9.39404C29.0652 9.38708 29.0621 9.38013 29.0586 9.37335C29.0505 9.35834 29.0417 9.34406 29.0328 9.32977C29.0297 9.32465 29.0269 9.31952 29.0236 9.31458C29.011 9.29572 28.9976 9.2774 28.9833 9.25983C28.9832 9.25964 28.9832 9.25946 28.983 9.25928C28.9526 9.22211 28.9185 9.18805 28.8813 9.15765C28.8812 9.15747 28.881 9.15747 28.8808 9.15729C28.8632 9.14301 28.8449 9.12964 28.826 9.117C28.8211 9.11371 28.816 9.11096 28.8109 9.10785C28.7966 9.09888 28.7823 9.09009 28.7673 9.08203C28.7605 9.07837 28.7535 9.07544 28.7466 9.07214C28.733 9.06537 28.7193 9.05878 28.7052 9.05292C28.6977 9.0498 28.6898 9.04742 28.6821 9.04449C28.6684 9.03937 28.6548 9.03424 28.6407 9.03003C28.6321 9.02747 28.6234 9.02563 28.6147 9.02325C28.6014 9.01996 28.5882 9.01611 28.5745 9.01355C28.5633 9.01135 28.5519 9.01007 28.5406 9.00842C28.5294 9.00677 28.5182 9.00458 28.5067 9.00348C28.4838 9.00128 28.4606 9 28.4375 9H25.625C25.2365 9 24.9219 9.31458 24.9219 9.70312C24.9219 10.0917 25.2365 10.4062 25.625 10.4062H26.7401L20 17.1464L17.6846 14.831C17.41 14.5563 16.965 14.5563 16.6904 14.831L11.0654 20.456C10.7907 20.7307 10.7907 21.1756 11.0654 21.4503C11.2027 21.5876 11.3825 21.6562 11.5625 21.6562Z" fill="white"/>
<path d="M8 32.2969C8 32.6854 8.31458 33 8.70312 33H14.3281C14.7167 33 15.0312 32.6854 15.0312 32.2969V31.3125H8V32.2969Z" fill="white"/>
<path d="M14.3281 28.2188H8.70312C8.31458 28.2188 8 28.5333 8 28.9219V29.9062H15.0312V28.9219C15.0312 28.5333 14.7167 28.2188 14.3281 28.2188Z" fill="white"/>
<path d="M16.4844 32.2969C16.4844 32.6854 16.799 33 17.1875 33H22.8125C23.201 33 23.5156 32.6854 23.5156 32.2969V31.3125H16.4844V32.2969Z" fill="white"/>
<path d="M24.9688 28.2188H32V29.9062H24.9688V28.2188Z" fill="white"/>
<path d="M31.2969 18.9375H25.6719C25.2833 18.9375 24.9688 19.2521 24.9688 19.6406V20.625H32V19.6406C32 19.2521 31.6854 18.9375 31.2969 18.9375Z" fill="white"/>
<path d="M24.9688 22.0312H32V23.7188H24.9688V22.0312Z" fill="white"/>
<path d="M24.9688 25.125H32V26.8125H24.9688V25.125Z" fill="white"/>
<path d="M24.9688 32.2969C24.9688 32.6854 25.2833 33 25.6719 33H31.2969C31.6854 33 32 32.6854 32 32.2969V31.3125H24.9688V32.2969Z" fill="white"/>
<path d="M16.4844 28.2188H23.5156V29.9062H16.4844V28.2188Z" fill="white"/>
<path d="M22.8125 25.125H17.1875C16.799 25.125 16.4844 25.4396 16.4844 25.8281V26.8125H23.5156V25.8281C23.5156 25.4396 23.201 25.125 22.8125 25.125Z" fill="white"/>
</g>
<defs>
<clipPath id="clip0_2155_7633">
<rect width="24" height="24" fill="white" transform="translate(8 9)"/>
</clipPath>
</defs>
</svg>
