<svg width="40" height="41" viewBox="0 0 40 41" fill="none" xmlns="http://www.w3.org/2000/svg">
<rect y="0.5" width="40" height="40" rx="8" fill="white" fill-opacity="0.1"/>
<path d="M22.483 14.3679C23.5927 15.0637 24.3708 16.2411 24.5125 17.6078C24.965 17.8192 25.4673 17.9408 25.9999 17.9408C27.944 17.9408 29.5197 16.3651 29.5197 14.4212C29.5197 12.4771 27.944 10.9014 25.9999 10.9014C24.0743 10.902 22.5123 12.4496 22.483 14.3679ZM20.177 21.5748C22.1212 21.5748 23.6969 19.9988 23.6969 18.0549C23.6969 16.1111 22.1209 14.5354 20.177 14.5354C18.2332 14.5354 16.6565 16.1114 16.6565 18.0552C16.6565 19.9991 18.2332 21.5748 20.177 21.5748ZM21.6701 21.8147H18.6833C16.1983 21.8147 14.1766 23.8367 14.1766 26.3218V29.9744L14.1858 30.0316L14.4374 30.1104C16.809 30.8514 18.8693 31.0984 20.5652 31.0984C23.8775 31.0984 25.7974 30.1541 25.9157 30.0939L26.1508 29.975H26.176V26.3218C26.1769 23.8367 24.1551 21.8147 21.6701 21.8147ZM27.4935 18.181H24.5298C24.4978 19.3668 23.9916 20.4346 23.191 21.2025C25.3999 21.8594 27.0161 23.9077 27.0161 26.3272V27.4528C29.9423 27.3455 31.6286 26.5162 31.7397 26.4605L31.9748 26.3413H32V22.6875C32 20.2028 29.9783 18.181 27.4935 18.181ZM14.0007 17.9414C14.6893 17.9414 15.33 17.7405 15.8727 17.3981C16.0452 16.2728 16.6484 15.2895 17.5101 14.6198C17.5137 14.5539 17.52 14.4886 17.52 14.4221C17.52 12.478 15.944 10.9023 14.0007 10.9023C12.0563 10.9023 10.4809 12.478 10.4809 14.4221C10.4809 16.3654 12.0563 17.9414 14.0007 17.9414ZM17.1618 21.2025C16.3651 20.4385 15.8607 19.3764 15.8239 18.1978C15.714 18.1897 15.6052 18.181 15.4932 18.181H12.5068C10.0217 18.181 8 20.2028 8 22.6875V26.3407L8.00928 26.397L8.26088 26.4764C10.1634 27.0703 11.8613 27.344 13.3361 27.4303V26.3272C13.3367 23.9077 14.9523 21.86 17.1618 21.2025Z" fill="#F4F4F4"/>
</svg>
