<svg width="40" height="41" viewBox="0 0 40 41" fill="none" xmlns="http://www.w3.org/2000/svg">
<rect y="0.5" width="40" height="40" rx="8" fill="white" fill-opacity="0.1"/>
<path d="M30.3893 10.7935C30.3808 10.752 30.3606 10.7139 30.3311 10.6835C30.3016 10.6531 30.2641 10.6317 30.2229 10.6219C27.4775 9.95067 21.1339 12.3427 17.697 15.7782C17.084 16.3862 16.5252 17.0465 16.0268 17.7516C14.967 17.6579 13.9071 17.7361 13.0039 18.1299C10.4553 19.2516 9.71324 22.1785 9.50652 23.4375C9.4948 23.5065 9.49922 23.5772 9.51944 23.6441C9.53967 23.711 9.57514 23.7723 9.62307 23.8232C9.671 23.8741 9.73009 23.9131 9.79567 23.9373C9.86126 23.9615 9.93156 23.9701 10.0011 23.9625L14.0937 23.5111C14.0966 23.8197 14.1153 24.1279 14.1495 24.4346C14.1701 24.6475 14.2646 24.8466 14.4167 24.9971L16.0015 26.5782C16.1522 26.73 16.3511 26.8245 16.564 26.8454C16.869 26.8795 17.1755 26.8981 17.4823 26.9011L17.0332 30.9886C17.0258 31.0581 17.0345 31.1284 17.0587 31.1939C17.0829 31.2594 17.122 31.3185 17.1728 31.3664C17.2237 31.4143 17.285 31.4498 17.3518 31.47C17.4187 31.4903 17.4893 31.4948 17.5582 31.4832C18.815 31.2816 21.747 30.5396 22.8621 27.991C23.2559 27.0877 23.3365 26.033 23.2456 24.9783C23.9524 24.48 24.6144 23.921 25.2242 23.3077C28.6718 19.8774 31.0503 13.6754 30.3893 10.7935ZM21.7845 19.2155C21.4697 18.9009 21.2552 18.5 21.1683 18.0635C21.0814 17.627 21.1258 17.1745 21.2961 16.7633C21.4663 16.3521 21.7547 16.0006 22.1248 15.7533C22.4948 15.506 22.9299 15.374 23.375 15.374C23.82 15.374 24.2551 15.506 24.6251 15.7533C24.9952 16.0006 25.2836 16.3521 25.4538 16.7633C25.6241 17.1745 25.6686 17.627 25.5816 18.0635C25.4947 18.5 25.2802 18.9009 24.9654 19.2155C24.7567 19.4246 24.5088 19.5904 24.2358 19.7036C23.9629 19.8167 23.6704 19.875 23.375 19.875C23.0795 19.875 22.787 19.8167 22.5141 19.7036C22.2412 19.5904 21.9932 19.4246 21.7845 19.2155Z" fill="white"/>
<path d="M15.8937 27.7233C15.6369 27.9806 15.2248 28.0809 14.7289 28.1667C13.6147 28.3566 12.6308 27.3938 12.8309 26.2673C12.9073 25.8403 13.1333 25.2417 13.2739 25.1011C13.3046 25.071 13.3251 25.0319 13.3324 24.9895C13.3397 24.947 13.3334 24.9034 13.3144 24.8647C13.2955 24.8261 13.2649 24.7943 13.2269 24.7741C13.1889 24.7538 13.1455 24.7461 13.1028 24.7519C12.4797 24.8281 11.9001 25.1106 11.4561 25.5544C10.3541 26.6573 10.25 30.75 10.25 30.75C10.25 30.75 14.345 30.6459 15.447 29.543C15.8922 29.0994 16.175 28.5188 16.25 27.8948C16.2673 27.6989 16.0287 27.5822 15.8937 27.7233Z" fill="white"/>
</svg>
