<svg width="1296" height="113" viewBox="0 0 1296 113" fill="none" xmlns="http://www.w3.org/2000/svg">
<rect width="1296" height="113" rx="32" fill="white" fill-opacity="0.1"/>
<path d="M176.116 50.896C174.316 50.896 172.492 49.936 172.492 48.688C172.492 47.896 173.092 47.008 174.34 47.08C174.436 47.2 176.332 49.864 176.476 50.008C178.18 49.888 179.476 48.712 179.476 46.72C179.476 44.896 177.988 43.192 174.82 43.192V41.824L175.66 41.68C178.132 40.72 178.972 39.544 178.972 38.272C178.972 36.856 177.988 36.088 176.812 36.088C175.636 36.088 174.772 36.712 174.076 37.864L173.332 37.576C174.004 35.296 175.588 33.64 177.988 33.64C179.26 33.64 180.292 33.976 181.036 34.624C181.78 35.296 182.14 36.136 182.14 37.168C182.14 39.136 180.604 40.264 178.996 41.008L178.396 41.296V41.368C180.94 41.416 182.956 42.904 182.956 45.424C182.956 48.76 179.284 50.896 176.116 50.896ZM187.18 46V45.592L189.004 45.208L193.636 38.272L189.508 31.432L187.876 31.096V30.712H193.444V31.096L191.716 31.432L194.932 36.904H194.98L198.484 31.456L196.66 31.096V30.712H201.076V31.096L199.468 31.456L195.34 37.6L199.996 45.232L201.844 45.592V46H195.868V45.592L197.716 45.232L194.092 39.04H194.02L189.988 45.208L191.956 45.592V46H187.18Z" fill="white"/>
<path d="M67.3011 84.252C65.7351 84.252 64.9971 83.784 64.9971 82.542C64.9971 82.344 65.0151 82.056 65.1411 81.39H65.4651C65.4651 82.578 65.8071 82.884 67.6791 82.884C69.0471 82.884 69.8391 82.596 70.3431 82.326C70.3431 81.228 69.9651 80.274 67.1211 77.286L67.6791 76.008H68.0031C70.2171 78.834 70.8831 79.968 70.8831 81.192C70.8831 81.822 70.7751 82.488 70.4151 83.406C69.7491 83.928 68.5431 84.252 67.3011 84.252ZM75.6751 83.676L75.3511 84C74.5231 84 73.9471 83.784 73.6231 83.352C73.2811 82.938 73.1011 82.164 73.0831 81.066L72.8671 72.552L73.6951 70.572H74.0191V81.066C74.0191 82.218 74.4511 82.632 75.6751 82.632V83.676ZM77.3249 78.168L76.3349 77.178L77.3249 76.152L78.1709 76.998L78.9809 76.152L80.0069 77.178L78.9809 78.168L78.1709 77.358L77.3249 78.168ZM77.6129 82.38L77.3429 83.424C76.8209 83.802 76.1549 84 75.3449 84V82.956L75.6689 82.632C76.4789 82.632 77.1809 82.398 77.6669 82.02L78.0089 79.482H78.3329V81.156C78.3329 82.308 78.8729 82.632 80.2589 82.632V83.82L79.9529 84C78.5129 84 77.7569 83.388 77.6669 82.38H77.6129ZM87.5108 82.632V83.676L87.1868 84C86.0168 84 84.9548 83.622 84.1448 83.046C82.9928 83.64 81.5168 84 79.9328 84V82.956L80.2568 82.632C81.4088 82.632 82.4348 82.506 83.3168 82.29L82.3268 81.174C81.7328 80.508 81.4808 80.346 81.0488 80.256L81.9308 77.988C82.6328 77.718 83.4068 77.556 84.1268 77.556C85.6568 77.556 86.5928 78.42 86.5928 79.482C86.5928 80.58 86.1068 81.552 85.2608 82.29C85.8548 82.524 86.5928 82.632 87.5108 82.632ZM83.0828 80.346L84.1808 81.552C84.2708 81.678 84.3968 81.786 84.5228 81.876C85.4588 81.426 86.0168 80.832 86.0168 80.13C86.0168 79.428 85.1528 78.96 84.0548 78.96C83.3168 78.96 82.5068 79.104 81.9128 79.374V79.446C82.2188 79.536 82.6148 79.824 83.0828 80.346ZM87.1926 84V82.92L87.5166 82.632C88.0926 82.632 88.7406 82.47 89.1006 82.254C89.4246 80.364 90.5946 78.888 91.6926 78.888C92.4126 78.888 92.7726 79.194 93.5646 80.742L93.9966 81.606C94.3566 82.344 94.7166 82.632 95.5266 82.632V83.676L95.2026 84C94.4826 84 93.9786 83.82 93.5646 83.316L93.2046 84.504C91.6926 84.234 90.0546 83.784 89.0646 83.28C88.5426 83.712 87.8406 84 87.1926 84ZM91.2606 80.4C90.4146 80.4 89.7666 81.066 89.5686 82.002C90.5946 82.452 92.2506 82.92 93.3846 83.064C93.2766 82.902 93.1686 82.722 93.0606 82.506L92.6106 81.624C92.1966 80.814 91.7466 80.4 91.2606 80.4ZM95.2082 84V82.956L95.5322 82.632C95.9462 82.632 96.4682 82.524 97.0622 82.326L96.8102 72.732C96.4142 71.814 96.7022 71.094 97.6742 70.572H97.9982V71.94L98.8982 73.074L97.9982 73.776V81.048C97.9982 81.894 97.8542 82.722 97.4402 83.424C96.8642 83.73 95.9822 84 95.2082 84ZM101.23 84H100.906L100.708 72.552L101.536 70.572H101.86V81.606L101.23 84ZM110.382 88.284C107.88 88.284 106.818 86.862 106.818 84.648C106.818 83.712 107.016 82.632 107.448 81.462L107.754 81.552C107.52 82.398 107.412 83.118 107.412 83.748C107.412 85.566 108.366 86.61 110.508 86.61C112.11 86.61 113.586 86.07 114.612 85.26C114.504 83.982 114.198 82.83 113.28 80.742L113.856 79.482H114.18L114.972 81.228C115.206 81.786 115.44 82.146 115.674 82.344C115.89 82.542 116.214 82.632 116.664 82.632V83.676L116.34 84C115.836 84 115.386 83.874 115.08 83.73L115.188 83.784C115.188 84.972 115.134 85.35 114.846 86.592C113.82 87.618 112.164 88.284 110.382 88.284ZM110.598 82.038L109.608 81.048L110.598 80.04L111.606 81.048L110.598 82.038ZM116.337 84V82.956L116.661 82.632C117.831 82.632 118.461 82.092 118.983 80.994L119.487 79.986C120.189 78.564 120.747 78.114 121.395 78.114C122.439 78.114 123.483 79.608 123.483 80.922C123.483 81.696 123.141 82.668 122.583 83.478C121.521 83.442 119.901 82.812 118.857 82.11C118.119 83.478 117.345 84 116.337 84ZM120.729 79.554C120.297 79.554 119.883 79.932 119.433 80.922C119.883 81.21 120.423 81.462 121.071 81.678C121.701 81.912 122.295 82.074 122.853 82.164C122.745 80.886 121.647 79.554 120.729 79.554ZM132.946 79.392L131.956 78.402L132.946 77.376L133.792 78.222L134.602 77.376L135.628 78.402L134.602 79.392L133.792 78.582L132.946 79.392ZM128.122 81.174C128.122 80.472 128.302 79.608 128.662 78.546L128.986 78.654C128.824 79.248 128.734 79.752 128.734 80.166C128.734 82.02 130.066 82.902 133.324 82.902C135.394 82.902 137.428 82.578 139.138 82.002C139.048 81.372 138.652 80.472 138.058 79.59L138.616 78.33H138.94C139.444 79.356 139.642 80.184 139.642 81.03C139.642 81.822 139.498 82.596 139.21 83.19C137.608 83.856 135.394 84.288 133.144 84.288C129.634 84.288 128.122 83.352 128.122 81.174ZM141.976 84H141.652L141.454 72.552L142.282 70.572H142.606V81.606L141.976 84ZM145.144 87.816L142.174 86.43V86.106C144.964 86.052 146.494 84.9 146.638 83.172C146.206 82.65 145.756 81.84 145.234 80.742L145.81 79.482H146.134L146.926 81.228C147.16 81.786 147.394 82.146 147.61 82.344C147.826 82.542 148.168 82.632 148.618 82.632V83.676L148.294 84C147.808 84 147.376 83.856 147.016 83.55C146.782 84.918 146.17 86.358 145.144 87.816ZM148.294 84V82.956L148.618 82.632C149.788 82.632 150.418 82.092 150.94 80.994L151.444 79.986C152.146 78.564 152.704 78.114 153.352 78.114C154.396 78.114 155.44 79.608 155.44 80.922C155.44 81.696 155.098 82.668 154.54 83.478C153.478 83.442 151.858 82.812 150.814 82.11C150.076 83.478 149.302 84 148.294 84ZM152.686 79.554C152.254 79.554 151.84 79.932 151.39 80.922C151.84 81.21 152.38 81.462 153.028 81.678C153.658 81.912 154.252 82.074 154.81 82.164C154.702 80.886 153.604 79.554 152.686 79.554ZM161.015 87.456C160.097 87.456 159.575 86.88 159.575 86.394C159.575 86.016 159.899 85.71 160.241 85.656C160.565 86.106 160.961 86.556 161.411 86.988C162.221 86.898 162.905 86.61 163.427 86.106C163.949 85.602 164.201 84.972 164.201 84.198C164.201 82.524 162.851 81.624 160.925 81.624V80.904L161.321 80.796C162.743 79.986 163.697 79.05 163.697 77.916C163.697 76.998 162.959 76.314 162.023 76.314C161.159 76.314 160.619 76.908 160.133 77.61L159.881 77.484C160.277 76.404 161.231 75.216 162.635 75.216C164.165 75.216 165.065 76.278 165.065 77.448C165.065 78.726 164.075 79.5 163.067 80.148L162.401 80.58V80.616C163.913 80.76 165.497 81.768 165.497 83.55C165.497 85.602 162.995 87.456 161.015 87.456ZM165.714 84V82.956L166.038 82.632H167.046V83.676L166.722 84H165.714ZM168.822 78.33H169.164C169.65 79.356 169.848 80.184 169.848 81.03C169.848 81.876 169.686 82.758 169.344 83.424C168.75 83.766 167.724 84 166.716 84V82.956L167.04 82.632C168.066 82.632 168.822 82.488 169.344 82.2C169.344 81.552 168.912 80.544 168.264 79.59L168.822 78.33ZM168.066 87.33L167.076 86.34L168.066 85.332L169.074 86.34L168.066 87.33ZM183.17 88.752L179.462 90.21C176.33 90.21 174.332 88.5 174.332 85.836C174.332 84.018 175.394 82.416 177.464 80.958C176.33 80.436 175.79 79.59 175.79 78.582C175.79 76.692 177.284 74.874 178.886 74.874C179.894 74.874 180.686 75.432 181.388 76.962L181.19 77.214C180.182 76.512 179.408 76.278 178.472 76.278C177.392 76.278 176.294 76.89 176.294 78.114C176.294 78.6 176.51 78.996 176.924 79.338C177.77 80.022 179.192 80.31 180.758 80.022L182.198 79.734L181.982 81.174L179.75 81.606C176.942 82.146 174.818 83.658 174.818 85.494C174.818 87.51 177.014 88.77 180.254 88.77C181.172 88.77 182.18 88.644 183.098 88.428L183.17 88.752ZM185.345 88.032L182.375 86.646V86.322C185.237 86.322 186.533 85.098 186.893 83.226L185.633 82.128L186.227 80.796L190.097 79.986V81.138C190.745 82.29 191.339 82.812 192.293 82.812C193.067 82.812 193.535 82.326 193.697 81.372L193.913 80.094H194.237V81.552C194.867 82.2 195.893 82.65 196.613 82.704C196.757 82.218 196.325 81.264 195.659 80.274L196.253 78.87H196.577C197.009 79.824 197.153 80.652 197.153 81.246C197.153 82.128 196.829 83.226 196.181 84C195.173 83.928 194.165 83.514 193.463 82.722L193.409 82.866C193.103 83.676 192.617 84.18 191.915 84.18C190.817 84.18 189.971 83.424 189.017 81.624L187.361 81.966C187.361 84.036 186.767 85.998 185.345 88.032ZM198.483 72.588V72.39L199.131 71.562C198.717 71.202 198.573 70.878 198.573 70.5C198.573 69.78 199.347 68.898 199.941 68.898C200.517 68.898 200.715 69.258 200.715 69.492C200.715 69.762 200.643 69.996 200.571 70.14L199.599 69.744C199.185 69.816 198.897 70.086 198.897 70.23C198.897 70.716 199.815 70.968 200.553 70.716L200.913 70.572V71.4L198.483 72.588ZM199.419 84L199.221 74.784L200.049 72.804H200.373V81.606L199.743 84H199.419Z" fill="#F4F4F4"/>
<rect x="218" y="36.5" width="40" height="40" rx="8" fill="white" fill-opacity="0.1"/>
<path d="M248.389 46.7935C248.381 46.752 248.361 46.7139 248.331 46.6835C248.302 46.6531 248.264 46.6317 248.223 46.6219C245.477 45.9507 239.134 48.3427 235.697 51.7782C235.084 52.3862 234.525 53.0465 234.027 53.7516C232.967 53.6579 231.907 53.7361 231.004 54.1299C228.455 55.2516 227.713 58.1785 227.507 59.4375C227.495 59.5065 227.499 59.5772 227.519 59.6441C227.54 59.711 227.575 59.7723 227.623 59.8232C227.671 59.8741 227.73 59.9131 227.796 59.9373C227.861 59.9615 227.932 59.9701 228.001 59.9625L232.094 59.5111C232.097 59.8197 232.115 60.1279 232.149 60.4346C232.17 60.6475 232.265 60.8466 232.417 60.9971L234.002 62.5782C234.152 62.73 234.351 62.8245 234.564 62.8454C234.869 62.8795 235.175 62.8981 235.482 62.9011L235.033 66.9886C235.026 67.0581 235.034 67.1284 235.059 67.1939C235.083 67.2594 235.122 67.3185 235.173 67.3664C235.224 67.4143 235.285 67.4498 235.352 67.47C235.419 67.4903 235.489 67.4948 235.558 67.4832C236.815 67.2816 239.747 66.5396 240.862 63.991C241.256 63.0877 241.337 62.033 241.246 60.9783C241.952 60.48 242.614 59.921 243.224 59.3077C246.672 55.8774 249.05 49.6754 248.389 46.7935ZM239.784 55.2155C239.47 54.9009 239.255 54.5 239.168 54.0635C239.081 53.627 239.126 53.1745 239.296 52.7633C239.466 52.3521 239.755 52.0006 240.125 51.7533C240.495 51.506 240.93 51.374 241.375 51.374C241.82 51.374 242.255 51.506 242.625 51.7533C242.995 52.0006 243.284 52.3521 243.454 52.7633C243.624 53.1745 243.669 53.627 243.582 54.0635C243.495 54.5 243.28 54.9009 242.965 55.2155C242.757 55.4246 242.509 55.5904 242.236 55.7036C241.963 55.8167 241.67 55.875 241.375 55.875C241.08 55.875 240.787 55.8167 240.514 55.7036C240.241 55.5904 239.993 55.4246 239.784 55.2155Z" fill="white"/>
<path d="M233.894 63.7233C233.637 63.9806 233.225 64.0809 232.729 64.1667C231.615 64.3566 230.631 63.3938 230.831 62.2673C230.907 61.8403 231.133 61.2417 231.274 61.1011C231.305 61.071 231.325 61.0319 231.332 60.9895C231.34 60.947 231.333 60.9034 231.314 60.8647C231.295 60.8261 231.265 60.7943 231.227 60.7741C231.189 60.7538 231.145 60.7461 231.103 60.7519C230.48 60.8281 229.9 61.1106 229.456 61.5544C228.354 62.6573 228.25 66.75 228.25 66.75C228.25 66.75 232.345 66.6459 233.447 65.543C233.892 65.0994 234.175 64.5188 234.25 63.8948C234.267 63.6989 234.029 63.5822 233.894 63.7233Z" fill="white"/>
<path d="M654.017 35.032L652.697 33.712L654.017 32.368L655.361 33.712L654.017 35.032ZM646.793 46.384C641.681 46.384 639.473 45.136 639.473 42.232C639.473 41.296 639.713 40.144 640.193 38.728L640.625 38.872C640.409 39.664 640.289 40.336 640.289 40.888C640.289 43.36 642.233 44.536 646.937 44.536C648.641 44.536 650.513 44.368 652.241 44.104C651.401 43.336 650.945 42.424 650.945 41.44C650.945 39.424 652.745 36.952 654.281 36.952C655.673 36.952 657.017 38.8 657.017 40.696C657.017 41.92 656.537 43 655.577 43.888C656.465 44.08 657.401 44.176 658.409 44.176V45.568L657.977 46C656.345 46 654.857 45.664 653.681 45.064C651.881 45.952 649.601 46.384 646.793 46.384ZM651.617 40.648C651.617 41.896 652.697 42.976 654.497 43.576C655.721 43.168 656.345 42.568 656.345 41.8C656.345 40.216 655.121 38.776 653.657 38.776C652.481 38.776 651.617 39.592 651.617 40.648ZM657.978 46V44.608L658.41 44.176C658.962 44.176 659.658 44.032 660.45 43.768L660.114 30.976C659.586 29.752 659.97 28.792 661.266 28.096H661.698V29.92L662.898 31.432L661.698 32.368V42.064C661.698 43.192 661.506 44.296 660.954 45.232C660.186 45.64 659.01 46 657.978 46ZM664.615 30.784V30.52L665.479 29.416C664.927 28.936 664.735 28.504 664.735 28C664.735 27.04 665.767 25.864 666.559 25.864C667.327 25.864 667.591 26.344 667.591 26.656C667.591 27.016 667.495 27.328 667.399 27.52L666.103 26.992C665.551 27.088 665.167 27.448 665.167 27.64C665.167 28.288 666.391 28.624 667.375 28.288L667.855 28.096V29.2L664.615 30.784ZM665.863 46L665.599 33.712L666.703 31.072H667.135V42.808L666.295 46H665.863ZM676.425 50.896C674.625 50.896 672.801 49.936 672.801 48.688C672.801 47.896 673.401 47.008 674.649 47.08C674.745 47.2 676.641 49.864 676.785 50.008C678.489 49.888 679.785 48.712 679.785 46.72C679.785 44.896 678.297 43.192 675.129 43.192V41.824L675.969 41.68C678.441 40.72 679.281 39.544 679.281 38.272C679.281 36.856 678.297 36.088 677.121 36.088C675.945 36.088 675.081 36.712 674.385 37.864L673.641 37.576C674.313 35.296 675.897 33.64 678.297 33.64C679.569 33.64 680.601 33.976 681.345 34.624C682.089 35.296 682.449 36.136 682.449 37.168C682.449 39.136 680.913 40.264 679.305 41.008L678.705 41.296V41.368C681.249 41.416 683.265 42.904 683.265 45.424C683.265 48.76 679.593 50.896 676.425 50.896ZM691.303 46.36C687.319 46.36 684.775 43.552 684.775 40.144C684.775 36.496 687.775 33.712 691.255 33.712C694.999 33.712 697.759 36.4 697.759 39.928C697.759 43.552 694.807 46.36 691.303 46.36ZM690.559 34.624C689.311 34.624 688.711 36.04 688.711 38.08C688.711 41.32 689.935 45.496 692.023 45.496C693.199 45.496 693.799 44.272 693.799 41.8C693.799 38.44 692.383 34.624 690.559 34.624ZM706.186 46.36C702.202 46.36 699.658 43.552 699.658 40.144C699.658 36.496 702.658 33.712 706.138 33.712C709.882 33.712 712.642 36.4 712.642 39.928C712.642 43.552 709.69 46.36 706.186 46.36ZM705.442 34.624C704.194 34.624 703.594 36.04 703.594 38.08C703.594 41.32 704.818 45.496 706.906 45.496C708.082 45.496 708.682 44.272 708.682 41.8C708.682 38.44 707.266 34.624 705.442 34.624Z" fill="white"/>
<path d="M536.827 90.066H536.503C535.981 84.18 535.819 82.704 535.819 82.452C535.819 80.85 538.375 78.888 540.427 78.888C541.147 78.888 541.543 79.194 542.299 80.742L542.731 81.606C543.109 82.326 543.469 82.632 544.279 82.632V83.676L543.955 84C543.235 84 542.749 83.82 542.317 83.334L541.957 84.504C540.445 84.234 538.825 83.784 537.763 83.262C537.763 82.326 537.979 81.426 538.339 80.706C537.708 80.94 537.133 81.282 536.413 81.858L537.511 87.492L536.827 90.066ZM540.013 80.4C539.167 80.4 538.519 81.066 538.321 82.002C539.347 82.47 540.985 82.92 542.119 83.064C542.011 82.902 541.903 82.722 541.795 82.506L541.363 81.624C540.949 80.814 540.499 80.4 540.013 80.4ZM548.341 87.762C546.667 87.762 545.641 86.376 545.641 84.072C545.641 83.982 545.641 83.892 545.641 83.802C545.083 83.928 544.507 84 543.949 84V82.956L544.273 82.632C544.831 82.632 545.335 82.614 545.821 82.56C546.253 80.742 547.333 78.636 548.287 77.214H548.611C549.223 77.988 549.799 79.482 549.799 80.31C549.799 81.156 549.223 81.984 548.341 82.632H551.221V83.676L550.897 84C550.681 84 550.411 83.982 550.087 83.928C550.447 84.378 550.645 84.936 550.645 85.512C550.645 86.736 549.655 87.762 548.341 87.762ZM549.151 81.12C549.151 80.832 549.025 80.454 548.791 80.004C548.539 79.554 548.251 79.158 547.927 78.798C547.153 80.04 546.613 81.354 546.343 82.506C548.071 82.29 549.151 81.786 549.151 81.12ZM546.145 84.072C546.145 85.53 547.045 86.376 548.413 86.376C549.511 86.376 550.177 85.944 550.177 85.35C550.177 84.414 549.115 83.838 546.505 83.568C546.379 83.604 546.271 83.64 546.163 83.676C546.145 83.802 546.145 83.946 546.145 84.072ZM553.161 82.38L552.891 83.424C552.369 83.802 551.703 84 550.893 84V82.956L551.217 82.632C552.027 82.632 552.729 82.398 553.215 82.02L553.557 79.482H553.881V81.156C553.881 82.308 554.421 82.632 555.807 82.632V83.82L555.501 84C554.061 84 553.305 83.388 553.215 82.38H553.161ZM552.585 87.312L551.595 86.322L552.585 85.296L553.431 86.142L554.241 85.296L555.267 86.322L554.241 87.312L553.431 86.502L552.585 87.312ZM555.481 84V82.956L555.805 82.632C556.219 82.632 556.741 82.524 557.335 82.326L557.083 72.732C556.687 71.814 556.975 71.094 557.947 70.572H558.271V71.94L559.171 73.074L558.271 73.776V81.048C558.271 81.894 558.127 82.722 557.713 83.424C557.137 83.73 556.255 84 555.481 84ZM561.502 84H561.178L560.98 72.552L561.808 70.572H562.132V81.606L561.502 84ZM560.35 88.914V88.716L560.998 87.888C560.584 87.528 560.44 87.204 560.44 86.826C560.44 86.106 561.214 85.224 561.808 85.224C562.384 85.224 562.582 85.584 562.582 85.818C562.582 86.088 562.51 86.322 562.438 86.466L561.466 86.07C561.052 86.142 560.764 86.412 560.764 86.556C560.764 87.042 561.682 87.294 562.42 87.042L562.78 86.898V87.726L560.35 88.914ZM570.51 86.844C568.116 86.844 567.09 85.44 567.09 83.226C567.09 82.29 567.288 81.21 567.72 80.04L568.026 80.13C567.792 80.976 567.684 81.696 567.684 82.326C567.684 84.144 568.584 85.188 570.618 85.188C572.04 85.188 573.39 84.81 574.668 84.054L574.362 72.732C573.984 71.814 574.272 71.094 575.226 70.572H575.55V71.922L576.468 73.074L575.55 73.776V82.56C575.55 83.73 575.514 84.018 575.262 85.152C573.84 86.286 572.256 86.844 570.51 86.844ZM579.358 87.816L576.604 86.43V86.106C579.502 85.908 581.23 85.206 581.806 84H580.024C578.71 84 577.918 83.118 577.918 81.804C577.918 80.13 579.124 78.258 580.33 78.258C581.536 78.258 582.544 80.04 582.544 82.128C582.544 82.29 582.544 82.47 582.526 82.632H583.264V83.676L582.94 84H582.256C581.806 85.422 580.852 86.7 579.358 87.816ZM580.348 82.632H582.022C581.914 81.066 580.978 79.662 579.97 79.662C579.142 79.662 578.422 80.58 578.422 81.516C578.422 82.326 579.178 82.632 580.348 82.632ZM582.938 84V82.956L583.262 82.632C584.576 82.632 585.314 82.236 586.052 81.246L586.682 80.418L586.934 80.616L586.214 81.696C586.592 82.02 586.97 82.272 587.312 82.452C589.598 79.14 591.272 77.646 593 77.646C594.53 77.646 595.664 78.978 595.664 80.688C595.664 81.39 595.466 82.002 595.034 82.812C593.432 83.676 591.038 84.288 589.112 84.288C587.618 84.288 586.52 83.856 585.386 82.794C584.666 83.586 583.892 84 582.938 84ZM592.28 79.014C590.822 79.014 589.454 80.184 587.726 82.632C588.194 82.812 588.716 82.902 589.274 82.902C591.272 82.902 593.378 82.416 595.034 81.642C594.818 80.31 593.594 79.014 592.28 79.014ZM598.623 87.816L595.869 86.43V86.106C598.767 85.908 600.495 85.206 601.071 84H599.289C597.975 84 597.183 83.118 597.183 81.804C597.183 80.13 598.389 78.258 599.595 78.258C600.801 78.258 601.809 80.04 601.809 82.128C601.809 82.29 601.809 82.47 601.791 82.632H602.529V83.676L602.205 84H601.521C601.071 85.422 600.117 86.7 598.623 87.816ZM599.613 82.632H601.287C601.179 81.066 600.243 79.662 599.235 79.662C598.407 79.662 597.687 80.58 597.687 81.516C597.687 82.326 598.443 82.632 599.613 82.632ZM602.203 84V82.956L602.527 82.632C602.941 82.632 603.463 82.524 604.057 82.326L603.805 72.732C603.409 71.814 603.697 71.094 604.669 70.572H604.993V71.94L605.893 73.074L604.993 73.776V81.048C604.993 81.894 604.849 82.722 604.435 83.424C603.859 83.73 602.977 84 602.203 84ZM608.225 84H607.901L607.703 72.552L608.531 70.572H608.855V81.606L608.225 84ZM614.803 90.066H614.479C613.957 84.18 613.795 82.704 613.795 82.452C613.795 80.85 616.351 78.888 618.403 78.888C619.123 78.888 619.519 79.194 620.275 80.742L620.707 81.606C621.085 82.326 621.445 82.632 622.255 82.632V83.676L621.931 84C621.211 84 620.725 83.82 620.293 83.334L619.933 84.504C618.421 84.234 616.801 83.784 615.739 83.262C615.739 82.326 615.955 81.426 616.315 80.706C615.685 80.94 615.109 81.282 614.389 81.858L615.487 87.492L614.803 90.066ZM617.989 80.4C617.143 80.4 616.495 81.066 616.297 82.002C617.323 82.47 618.961 82.92 620.095 83.064C619.987 82.902 619.879 82.722 619.771 82.506L619.339 81.624C618.925 80.814 618.475 80.4 617.989 80.4ZM623.132 77.016L622.142 76.026L623.132 75L623.978 75.846L624.788 75L625.814 76.026L624.788 77.016L623.978 76.206L623.132 77.016ZM624.032 78.33H624.374C624.86 79.356 625.058 80.184 625.058 81.03C625.058 81.876 624.896 82.758 624.554 83.424C623.96 83.766 622.934 84 621.926 84V82.956L622.25 82.632C623.276 82.632 624.032 82.488 624.554 82.2C624.554 81.552 624.122 80.544 623.474 79.59L624.032 78.33ZM632.566 84L628.786 82.956V82.632C629.866 82.632 630.856 82.614 631.774 82.596C632.116 82.074 632.458 81.606 632.782 81.192L632.548 72.678C632.188 71.796 632.476 71.094 633.43 70.572H633.448L633.466 70.518H633.754V71.922L634.672 73.074L633.754 73.776V77.79C633.754 78.852 633.682 79.698 633.412 80.328L633.448 80.346C634.978 78.492 636.256 77.646 637.57 77.646C639.1 77.646 640.234 78.978 640.234 80.688C640.234 81.318 640.072 81.876 639.73 82.578C640.288 82.596 640.864 82.632 641.458 82.632V83.82L641.152 84C639.946 84 638.866 83.82 637.93 83.478C636.562 83.838 634.78 84 632.566 84ZM636.832 79.014C635.392 79.014 634.042 80.166 632.314 82.596C636.148 82.47 638.362 82.164 639.604 81.642C639.388 80.31 638.164 79.014 636.832 79.014ZM648.609 76.926L647.637 75.954L648.609 74.964L649.599 75.954L648.609 76.926ZM647.763 78.78L646.773 77.79L647.763 76.764L648.609 77.61L649.419 76.764L650.445 77.79L649.419 78.78L648.609 77.97L647.763 78.78ZM641.139 84V82.956L641.463 82.632C642.759 82.632 643.497 82.2 644.235 81.246L644.883 80.4L645.135 80.616L644.559 81.498C645.585 82.29 646.395 82.812 647.493 82.812C648.195 82.812 648.573 82.47 648.771 81.372L648.987 80.094H649.311V82.47C649.599 82.578 649.887 82.632 650.175 82.632C650.823 82.632 651.327 82.434 651.615 82.146V82.11L651.957 79.482H652.281V81.156C652.281 82.308 652.839 82.632 654.225 82.632V83.82L653.919 84C652.551 84 651.813 83.46 651.651 82.524H651.615L651.345 83.28C651.075 83.766 650.607 84 649.977 84C649.455 84 648.951 83.838 648.321 83.28C648.087 83.838 647.817 84.18 647.115 84.18C646.809 84.18 646.341 84.036 645.729 83.748C645.099 83.478 644.487 83.046 643.875 82.47C643.065 83.424 642.237 84 641.139 84ZM655.953 76.89L654.963 75.9L655.953 74.892L656.961 75.9L655.953 76.89ZM656.007 78.33H656.349C656.835 79.356 657.033 80.184 657.033 81.03C657.033 81.876 656.871 82.758 656.529 83.424C655.935 83.766 654.909 84 653.901 84V82.956L654.225 82.632C655.251 82.632 656.007 82.488 656.529 82.2C656.529 81.552 656.097 80.544 655.449 79.59L656.007 78.33ZM662.956 90.066H662.632C662.2 85.332 662.092 84.126 662.092 84.054C662.092 81.876 662.938 80.976 664.9 80.976C665.782 80.976 666.862 81.138 667.636 81.372C667.564 80.076 666.232 78.564 664.918 78.564C664.468 78.564 663.982 78.942 663.766 79.644H663.442C663.442 78.006 664.09 77.178 665.188 77.178C666.574 77.178 668.14 78.906 668.14 80.274C668.14 80.652 668.05 81.048 667.87 81.462C667.708 81.84 667.456 82.236 667.15 82.632C666.304 82.47 665.53 82.38 664.792 82.38C663.694 82.38 663.028 82.524 662.65 82.65L663.658 87.492L662.956 90.066ZM671.89 84.252C670.324 84.252 669.586 83.784 669.586 82.542C669.586 82.344 669.604 82.056 669.73 81.39H670.054C670.054 82.578 670.396 82.884 672.268 82.884C673.42 82.884 674.428 82.578 675.076 82.2C674.86 81.768 674.644 81.228 674.41 80.58L673.168 77.286L673.726 76.008H674.05L675.346 80.184C675.958 82.128 676.444 82.632 677.794 82.632V83.676L677.47 84C676.462 84 675.868 83.676 675.238 82.524H675.22L674.95 83.478C674.356 83.91 673.096 84.252 671.89 84.252ZM682.639 76.386L681.649 75.396L682.639 74.388L683.647 75.396L682.639 76.386ZM677.473 84V82.956L677.797 82.632C679.075 82.632 680.281 82.326 681.937 81.66C683.287 81.102 684.313 80.796 685.339 80.652V80.58C684.421 80.364 683.557 80.04 682.747 79.734C681.829 79.374 680.911 79.05 680.191 79.05C679.417 79.05 679.003 79.428 678.931 80.166H678.607C678.589 79.932 678.571 79.716 678.571 79.5C678.571 78.114 679.165 77.646 680.101 77.646C680.659 77.646 681.415 77.844 683.089 78.546C685.249 79.392 686.203 79.68 686.653 79.68H687.661L687.409 81.084H686.905C686.743 81.084 686.581 81.084 686.437 81.102C686.509 82.236 687.229 82.632 688.795 82.632V83.676L688.471 84C686.815 84 686.005 83.28 685.915 81.138C684.691 81.282 683.395 81.714 681.523 82.668C679.561 83.676 678.679 84 677.473 84ZM689.971 76.332L688.981 75.342L689.971 74.316L690.817 75.162L691.627 74.316L692.653 75.342L691.627 76.332L690.817 75.522L689.971 76.332ZM690.961 82.38L690.673 83.424C690.115 83.802 689.395 84 688.477 84V82.956L688.801 82.632C689.647 82.632 690.439 82.398 690.889 82.02C690.799 81.732 690.727 81.39 690.655 80.976L690.259 78.906L690.835 77.646H691.159L691.465 80.616C691.645 82.308 692.077 82.632 693.589 82.632V83.676L693.265 84C692.023 84 691.411 83.586 690.997 82.38H690.961ZM693.258 84V82.956L693.582 82.632C694.878 82.632 695.616 82.2 696.354 81.246L697.002 80.4L697.254 80.616L696.678 81.498C697.704 82.29 698.514 82.812 699.612 82.812C700.314 82.812 700.692 82.47 700.89 81.372L701.106 80.094H701.43V82.47C701.718 82.578 702.006 82.632 702.294 82.632C702.942 82.632 703.446 82.434 703.734 82.146V82.11L704.076 79.482H704.4V81.156C704.4 82.308 704.958 82.632 706.344 82.632V83.82L706.038 84C704.67 84 703.932 83.46 703.77 82.524H703.734L703.464 83.28C703.194 83.766 702.726 84 702.096 84C701.574 84 701.07 83.838 700.44 83.28C700.206 83.838 699.936 84.18 699.234 84.18C698.928 84.18 698.46 84.036 697.848 83.748C697.218 83.478 696.606 83.046 695.994 82.47C695.184 83.424 694.356 84 693.258 84ZM706.02 84V82.956L706.344 82.632C707.514 82.632 708.144 82.092 708.666 80.994L709.17 79.986C709.872 78.564 710.43 78.114 711.078 78.114C712.122 78.114 713.166 79.608 713.166 80.922C713.166 81.696 712.824 82.668 712.266 83.478C711.204 83.442 709.584 82.812 708.54 82.11C707.802 83.478 707.028 84 706.02 84ZM710.412 79.554C709.98 79.554 709.566 79.932 709.116 80.922C709.566 81.21 710.106 81.462 710.754 81.678C711.384 81.912 711.978 82.074 712.536 82.164C712.428 80.886 711.33 79.554 710.412 79.554Z" fill="#F4F4F4"/>
<rect x="730" y="36.5" width="40" height="40" rx="8" fill="white" fill-opacity="0.1"/>
<path d="M752.483 50.3679C753.593 51.0637 754.371 52.2411 754.512 53.6078C754.965 53.8192 755.467 53.9408 756 53.9408C757.944 53.9408 759.52 52.3651 759.52 50.4212C759.52 48.4771 757.944 46.9014 756 46.9014C754.074 46.902 752.512 48.4496 752.483 50.3679ZM750.177 57.5748C752.121 57.5748 753.697 55.9988 753.697 54.0549C753.697 52.1111 752.121 50.5354 750.177 50.5354C748.233 50.5354 746.657 52.1114 746.657 54.0552C746.657 55.9991 748.233 57.5748 750.177 57.5748ZM751.67 57.8147H748.683C746.198 57.8147 744.177 59.8367 744.177 62.3218V65.9744L744.186 66.0316L744.437 66.1104C746.809 66.8514 748.869 67.0984 750.565 67.0984C753.877 67.0984 755.797 66.1541 755.916 66.0939L756.151 65.975H756.176V62.3218C756.177 59.8367 754.155 57.8147 751.67 57.8147ZM757.494 54.181H754.53C754.498 55.3668 753.992 56.4346 753.191 57.2025C755.4 57.8594 757.016 59.9077 757.016 62.3272V63.4528C759.942 63.3455 761.629 62.5162 761.74 62.4605L761.975 62.3413H762V58.6875C762 56.2028 759.978 54.181 757.494 54.181ZM744.001 53.9414C744.689 53.9414 745.33 53.7405 745.873 53.3981C746.045 52.2728 746.648 51.2895 747.51 50.6198C747.514 50.5539 747.52 50.4886 747.52 50.4221C747.52 48.478 745.944 46.9023 744.001 46.9023C742.056 46.9023 740.481 48.478 740.481 50.4221C740.481 52.3654 742.056 53.9414 744.001 53.9414ZM747.162 57.2025C746.365 56.4385 745.861 55.3764 745.824 54.1978C745.714 54.1897 745.605 54.181 745.493 54.181H742.507C740.022 54.181 738 56.2028 738 58.6875V62.3407L738.009 62.397L738.261 62.4764C740.163 63.0703 741.861 63.344 743.336 63.4303V62.3272C743.337 59.9077 744.952 57.86 747.162 57.2025Z" fill="#F4F4F4"/>
<path d="M1088.69 49.792C1085.49 49.792 1084.13 47.92 1084.13 44.968C1084.13 43.72 1084.39 42.28 1084.97 40.72L1085.37 40.84C1085.06 41.968 1084.92 42.928 1084.92 43.768C1084.92 46.192 1086.12 47.584 1088.83 47.584C1090.73 47.584 1092.53 47.08 1094.23 46.072L1093.82 30.976C1093.32 29.752 1093.7 28.792 1094.97 28.096H1095.41V29.896L1096.63 31.432L1095.41 32.368V44.08C1095.41 45.64 1095.36 46.024 1095.02 47.536C1093.13 49.048 1091.01 49.792 1088.69 49.792ZM1102.93 45.568L1102.5 46C1101.39 46 1100.63 45.712 1100.19 45.136C1099.74 44.584 1099.5 43.552 1099.47 42.088L1099.19 30.736L1100.29 28.096H1100.72V42.088C1100.72 43.624 1101.3 44.176 1102.93 44.176V45.568ZM1105.3 38.44H1105.75C1106.4 39.808 1106.67 40.912 1106.67 42.04C1106.67 43.168 1106.45 44.344 1105.99 45.232C1105.2 45.688 1103.83 46 1102.49 46V44.608L1102.92 44.176C1104.29 44.176 1105.3 43.984 1105.99 43.6C1105.99 42.736 1105.42 41.392 1104.55 40.12L1105.3 38.44ZM1103.57 50.416L1102.25 49.096L1103.57 47.728L1104.7 48.856L1105.78 47.728L1107.15 49.096L1105.78 50.416L1104.7 49.336L1103.57 50.416ZM1110.83 51.088L1106.87 49.24V48.808C1110.64 48.856 1112.84 47.104 1112.84 44.656C1112.84 43.216 1112.29 42.16 1110.76 40.024L1111.52 38.344H1111.96C1112.92 39.976 1113.52 41.752 1113.52 43.36C1113.52 45.688 1112.72 48.328 1110.83 51.088ZM1124.48 49.792C1121.14 49.792 1119.73 47.92 1119.73 44.944C1119.73 43.696 1119.99 42.256 1120.57 40.696L1120.98 40.84C1120.66 41.944 1120.52 42.904 1120.52 43.744C1120.52 46.216 1121.77 47.584 1124.65 47.584C1126.78 47.584 1128.73 46.888 1130.1 45.76C1129.98 44.152 1129.47 42.592 1128.32 40.024L1129.06 38.344H1129.5C1130.38 40.264 1130.84 42.184 1130.84 44.08C1130.84 45.664 1130.82 46.024 1130.43 47.536C1129.06 48.904 1126.86 49.792 1124.48 49.792ZM1124.72 41.776L1123.4 40.456L1124.72 39.112L1126.06 40.456L1124.72 41.776ZM1134.75 51.088L1131.08 49.24V48.808C1134.94 48.544 1137.24 47.608 1138.01 46H1135.64C1133.88 46 1132.83 44.824 1132.83 43.072C1132.83 40.84 1134.44 38.344 1136.04 38.344C1137.65 38.344 1139 40.72 1139 43.504C1139 43.72 1139 43.96 1138.97 44.176H1139.96V45.568L1139.52 46H1138.61C1138.01 47.896 1136.74 49.6 1134.75 51.088ZM1136.07 44.176H1138.3C1138.16 42.088 1136.91 40.216 1135.56 40.216C1134.46 40.216 1133.5 41.44 1133.5 42.688C1133.5 43.768 1134.51 44.176 1136.07 44.176ZM1142.55 43.84L1142.19 45.232C1141.49 45.736 1140.6 46 1139.52 46V44.608L1139.95 44.176C1141.03 44.176 1141.97 43.864 1142.62 43.36L1143.07 39.976H1143.51V42.208C1143.51 43.744 1144.23 44.176 1146.07 44.176V45.76L1145.67 46C1143.75 46 1142.74 45.184 1142.62 43.84H1142.55ZM1141.78 50.416L1140.46 49.096L1141.78 47.728L1142.91 48.856L1143.99 47.728L1145.35 49.096L1143.99 50.416L1142.91 49.336L1141.78 50.416ZM1148.66 43.84L1148.3 45.232C1147.61 45.736 1146.72 46 1145.64 46V44.608L1146.07 44.176C1146.77 44.176 1147.82 43.984 1148.66 43.432C1148.61 43.048 1148.59 42.592 1148.57 42.088L1148.28 30.736L1149.38 28.096H1149.81V42.088C1149.81 43.624 1150.41 44.176 1152.02 44.176V45.568L1151.59 46C1149.93 46 1149.09 45.448 1148.73 43.84H1148.66ZM1151.59 46V44.608L1152.02 44.176C1153.58 44.176 1154.42 43.456 1155.12 41.992L1155.79 40.648C1156.73 38.752 1157.47 38.152 1158.34 38.152C1159.73 38.152 1161.12 40.144 1161.12 41.896C1161.12 42.928 1160.66 44.224 1159.92 45.304C1158.5 45.256 1156.34 44.416 1154.95 43.48C1153.97 45.304 1152.94 46 1151.59 46ZM1157.45 40.072C1156.87 40.072 1156.32 40.576 1155.72 41.896C1156.32 42.28 1157.04 42.616 1157.9 42.904C1158.74 43.216 1159.54 43.432 1160.28 43.552C1160.14 41.848 1158.67 40.072 1157.45 40.072ZM1170.79 45.184C1170.79 43.264 1169.61 42.016 1167.38 40.48L1169.28 34.12H1174.65V37.144H1169.25L1169.11 37.6C1170.91 38.512 1172.23 39.448 1173.07 40.408C1173.91 41.368 1174.34 42.52 1174.34 43.888C1174.34 47.92 1170.26 50.224 1166.42 51.448L1166.16 50.848C1168.37 49.792 1170.79 48.016 1170.79 45.184Z" fill="white"/>
<path d="M1051.4 83.676L1051.07 84C1050.25 84 1049.67 83.784 1049.35 83.352C1049 82.938 1048.82 82.164 1048.81 81.066L1048.59 72.552L1049.42 70.572H1049.74V81.066C1049.74 82.218 1050.17 82.632 1051.4 82.632V83.676ZM1053.89 78.042L1052.9 77.052L1053.89 76.044L1054.9 77.052L1053.89 78.042ZM1053.34 82.38L1053.07 83.424C1052.54 83.802 1051.88 84 1051.07 84V82.956L1051.39 82.632C1052.2 82.632 1052.9 82.398 1053.39 82.02L1053.73 79.482H1054.06V81.156C1054.06 82.308 1054.6 82.632 1055.98 82.632V83.82L1055.68 84C1054.24 84 1053.48 83.388 1053.39 82.38H1053.34ZM1057.76 78.33H1058.1C1058.59 79.356 1058.79 80.184 1058.79 81.03C1058.79 81.876 1058.63 82.758 1058.28 83.424C1057.69 83.766 1056.66 84 1055.66 84V82.956L1055.98 82.632C1057.01 82.632 1057.76 82.488 1058.28 82.2C1058.28 81.552 1057.85 80.544 1057.2 79.59L1057.76 78.33ZM1056.48 77.394V77.196L1057.13 76.368C1056.72 76.008 1056.57 75.684 1056.57 75.306C1056.57 74.586 1057.35 73.704 1057.94 73.704C1058.52 73.704 1058.72 74.064 1058.72 74.298C1058.72 74.568 1058.64 74.802 1058.57 74.946L1057.6 74.55C1057.19 74.622 1056.9 74.892 1056.9 75.036C1056.9 75.522 1057.82 75.774 1058.55 75.522L1058.91 75.378V76.206L1056.48 77.394ZM1063.69 84H1059.94V83.676L1063.76 82.182C1064.05 82.074 1064.3 81.966 1064.53 81.84C1064.5 79.968 1064.1 79.248 1062.72 77.898L1061.22 76.494H1059.94V74.028L1060.16 73.83L1062.95 76.422C1064.59 78.024 1065.11 78.906 1065.02 81.534C1066.12 80.688 1066.37 79.572 1066.3 77.07L1066.19 72.552L1067 70.572H1067.32V81.066C1067.32 82.218 1067.77 82.632 1069 82.632V83.676L1068.67 84C1067.83 84 1067.25 83.766 1066.91 83.316C1066.57 82.866 1066.39 82.074 1066.39 80.904V80.4H1066.33C1065.96 81.462 1065.04 82.776 1063.69 84ZM1068.68 84V82.92L1069 82.632C1069.58 82.632 1070.23 82.47 1070.59 82.254C1070.91 80.364 1072.08 78.888 1073.18 78.888C1073.9 78.888 1074.26 79.194 1075.05 80.742L1075.48 81.606C1075.84 82.344 1076.2 82.632 1077.01 82.632V83.676L1076.69 84C1075.97 84 1075.47 83.82 1075.05 83.316L1074.69 84.504C1073.18 84.234 1071.54 83.784 1070.55 83.28C1070.03 83.712 1069.33 84 1068.68 84ZM1072.75 80.4C1071.9 80.4 1071.25 81.066 1071.06 82.002C1072.08 82.452 1073.74 82.92 1074.87 83.064C1074.76 82.902 1074.66 82.722 1074.55 82.506L1074.1 81.624C1073.68 80.814 1073.23 80.4 1072.75 80.4ZM1084.27 82.632V83.676L1083.95 84C1082.78 84 1081.72 83.622 1080.91 83.046C1079.76 83.64 1078.28 84 1076.7 84V82.956L1077.02 82.632C1078.17 82.632 1079.2 82.506 1080.08 82.29L1079.09 81.174C1078.5 80.508 1078.24 80.346 1077.81 80.256L1078.69 77.988C1079.4 77.718 1080.17 77.556 1080.89 77.556C1082.42 77.556 1083.36 78.42 1083.36 79.482C1083.36 80.58 1082.87 81.552 1082.02 82.29C1082.62 82.524 1083.36 82.632 1084.27 82.632ZM1079.85 80.346L1080.94 81.552C1081.03 81.678 1081.16 81.786 1081.29 81.876C1082.22 81.426 1082.78 80.832 1082.78 80.13C1082.78 79.428 1081.92 78.96 1080.82 78.96C1080.08 78.96 1079.27 79.104 1078.68 79.374V79.446C1078.98 79.536 1079.38 79.824 1079.85 80.346ZM1083.96 84V82.956L1084.28 82.632C1084.69 82.632 1085.22 82.524 1085.81 82.326L1085.56 72.732C1085.16 71.814 1085.45 71.094 1086.42 70.572H1086.75V71.94L1087.65 73.074L1086.75 73.776V81.048C1086.75 81.894 1086.6 82.722 1086.19 83.424C1085.61 83.73 1084.73 84 1083.96 84ZM1095.25 74.334L1094.26 73.344L1095.25 72.318L1096.1 73.164L1096.91 72.318L1097.93 73.344L1096.91 74.334L1096.1 73.524L1095.25 74.334ZM1094.33 82.29C1092.96 82.29 1092.28 81.696 1092.28 80.508C1092.28 79.554 1092.73 78.69 1094.1 77.736L1096.24 76.314L1096.76 75.036H1097.09V81.066C1097.09 82.218 1097.54 82.632 1098.76 82.632V83.676L1098.44 84C1096.78 84 1096.62 83.244 1096.37 81.066V80.994L1095.86 81.966C1095.39 82.182 1094.89 82.29 1094.33 82.29ZM1092.84 79.86C1092.84 80.49 1093.52 80.922 1094.51 80.922C1095.43 80.922 1095.86 80.76 1096.31 80.544L1096.04 77.898L1093.97 78.744C1093.16 79.086 1092.84 79.446 1092.84 79.86ZM1101.3 75.9L1100.31 74.91L1101.3 73.884L1102.15 74.73L1102.96 73.884L1103.98 74.91L1102.96 75.9L1102.15 75.09L1101.3 75.9ZM1098.44 84V82.956L1098.76 82.632C1099.5 82.632 1100.17 82.596 1100.76 82.524C1100.19 81.966 1099.84 81.3 1099.84 80.58C1099.84 79.068 1101.19 77.214 1102.35 77.214C1103.39 77.214 1104.4 78.6 1104.4 80.022C1104.4 80.94 1104.02 81.768 1103.32 82.416C1103.98 82.56 1104.69 82.632 1105.44 82.632V83.676L1105.12 84C1103.91 84 1102.81 83.748 1101.93 83.316C1100.98 83.748 1099.79 84 1098.44 84ZM1100.35 79.986C1100.35 80.922 1101.16 81.714 1102.47 82.164C1103.43 81.858 1103.89 81.408 1103.89 80.85C1103.89 79.662 1102.96 78.582 1101.88 78.582C1101 78.582 1100.35 79.194 1100.35 79.986ZM1107.98 75.9L1106.99 74.91L1107.98 73.884L1108.83 74.73L1109.64 73.884L1110.66 74.91L1109.64 75.9L1108.83 75.09L1107.98 75.9ZM1105.12 84V82.956L1105.44 82.632C1106.18 82.632 1106.85 82.596 1107.44 82.524C1106.87 81.966 1106.52 81.3 1106.52 80.58C1106.52 79.068 1107.87 77.214 1109.03 77.214C1110.07 77.214 1111.08 78.6 1111.08 80.022C1111.08 80.94 1110.7 81.768 1110 82.416C1110.66 82.56 1111.37 82.632 1112.12 82.632V83.676L1111.8 84C1110.59 84 1109.49 83.748 1108.61 83.316C1107.66 83.748 1106.47 84 1105.12 84ZM1107.03 79.986C1107.03 80.922 1107.84 81.714 1109.15 82.164C1110.11 81.858 1110.57 81.408 1110.57 80.85C1110.57 79.662 1109.64 78.582 1108.56 78.582C1107.68 78.582 1107.03 79.194 1107.03 79.986ZM1111.8 84V82.956L1112.12 82.632C1113.4 82.632 1114.61 82.326 1116.26 81.66C1117.61 81.102 1118.64 80.796 1119.67 80.652V80.58C1118.75 80.364 1117.88 80.04 1117.07 79.734C1116.16 79.374 1115.24 79.05 1114.52 79.05C1113.74 79.05 1113.33 79.428 1113.26 80.166H1112.93C1112.92 79.932 1112.9 79.716 1112.9 79.5C1112.9 78.114 1113.49 77.646 1114.43 77.646C1114.99 77.646 1115.74 77.844 1117.42 78.546C1119.58 79.392 1120.53 79.68 1120.98 79.68H1121.99L1121.74 81.084H1121.23C1121.07 81.084 1120.91 81.084 1120.76 81.102C1120.84 82.236 1121.56 82.632 1123.12 82.632V83.676L1122.8 84C1121.14 84 1120.33 83.28 1120.24 81.138C1119.02 81.282 1117.72 81.714 1115.85 82.668C1113.89 83.676 1113.01 84 1111.8 84ZM1122.8 84V82.956L1123.13 82.632C1124.3 82.632 1124.93 82.092 1125.45 80.994L1125.95 79.986C1126.66 78.564 1127.21 78.114 1127.86 78.114C1128.91 78.114 1129.95 79.608 1129.95 80.922C1129.95 81.696 1129.61 82.668 1129.05 83.478C1127.99 83.442 1126.37 82.812 1125.32 82.11C1124.59 83.478 1123.81 84 1122.8 84ZM1127.2 79.554C1126.76 79.554 1126.35 79.932 1125.9 80.922C1126.35 81.21 1126.89 81.462 1127.54 81.678C1128.17 81.912 1128.76 82.074 1129.32 82.164C1129.21 80.886 1128.11 79.554 1127.2 79.554ZM1139.41 79.392L1138.42 78.402L1139.41 77.376L1140.26 78.222L1141.07 77.376L1142.1 78.402L1141.07 79.392L1140.26 78.582L1139.41 79.392ZM1134.59 81.174C1134.59 80.472 1134.77 79.608 1135.13 78.546L1135.45 78.654C1135.29 79.248 1135.2 79.752 1135.2 80.166C1135.2 82.02 1136.53 82.902 1139.79 82.902C1141.86 82.902 1143.9 82.578 1145.61 82.002C1145.52 81.372 1145.12 80.472 1144.53 79.59L1145.08 78.33H1145.41C1145.91 79.356 1146.11 80.184 1146.11 81.03C1146.11 81.822 1145.97 82.596 1145.68 83.19C1144.08 83.856 1141.86 84.288 1139.61 84.288C1136.1 84.288 1134.59 83.352 1134.59 81.174ZM1150.85 83.676L1150.53 84C1149.7 84 1149.13 83.784 1148.8 83.352C1148.46 82.938 1148.28 82.164 1148.26 81.066L1148.05 72.552L1148.87 70.572H1149.2V81.066C1149.2 82.218 1149.63 82.632 1150.85 82.632V83.676ZM1158.1 82.632V83.676L1157.78 84C1156.61 84 1155.55 83.622 1154.74 83.046C1153.58 83.64 1152.11 84 1150.52 84V82.956L1150.85 82.632C1152 82.632 1153.03 82.506 1153.91 82.29L1152.92 81.174C1152.32 80.508 1152.07 80.346 1151.64 80.256L1152.52 77.988C1153.22 77.718 1154 77.556 1154.72 77.556C1156.25 77.556 1157.18 78.42 1157.18 79.482C1157.18 80.58 1156.7 81.552 1155.85 82.29C1156.45 82.524 1157.18 82.632 1158.1 82.632ZM1153.67 80.346L1154.77 81.552C1154.86 81.678 1154.99 81.786 1155.11 81.876C1156.05 81.426 1156.61 80.832 1156.61 80.13C1156.61 79.428 1155.74 78.96 1154.65 78.96C1153.91 78.96 1153.1 79.104 1152.5 79.374V79.446C1152.81 79.536 1153.21 79.824 1153.67 80.346ZM1157.78 84V82.956L1158.11 82.632C1159.17 82.632 1160.07 82.182 1160.81 81.282C1161.65 82.218 1162.43 82.632 1163.44 82.632V83.82L1163.13 84C1161.96 83.982 1161.11 83.586 1160.25 82.578C1159.69 83.568 1159.03 84 1157.78 84ZM1159.89 87.312L1158.9 86.322L1159.89 85.296L1160.74 86.142L1161.55 85.296L1162.57 86.322L1161.55 87.312L1160.74 86.502L1159.89 87.312ZM1165.38 82.38L1165.11 83.424C1164.59 83.802 1163.92 84 1163.11 84V82.956L1163.43 82.632C1164.24 82.632 1164.95 82.398 1165.43 82.02L1165.77 79.482H1166.1V81.156C1166.1 82.308 1166.64 82.632 1168.02 82.632V83.82L1167.72 84C1166.28 84 1165.52 83.388 1165.43 82.38H1165.38ZM1165.65 87.33L1164.66 86.34L1165.65 85.332L1166.66 86.34L1165.65 87.33ZM1167.7 84V82.956L1168.02 82.632C1169.19 82.632 1169.82 82.092 1170.34 80.994L1170.85 79.986C1171.55 78.564 1172.11 78.114 1172.76 78.114C1173.8 78.114 1174.84 79.608 1174.84 80.922C1174.84 81.696 1174.5 82.668 1173.94 83.478C1172.88 83.442 1171.26 82.812 1170.22 82.11C1169.48 83.478 1168.71 84 1167.7 84ZM1172.09 79.554C1171.66 79.554 1171.24 79.932 1170.79 80.922C1171.24 81.21 1171.78 81.462 1172.43 81.678C1173.06 81.912 1173.66 82.074 1174.21 82.164C1174.11 80.886 1173.01 79.554 1172.09 79.554Z" fill="#F4F4F4"/>
<rect x="1192" y="36.5" width="40" height="40" rx="8" fill="white" fill-opacity="0.1"/>
<g clip-path="url(#clip0_2153_7608)">
<path d="M1203.56 57.6562C1203.74 57.6562 1203.92 57.5876 1204.06 57.4503L1209.19 52.3224L1211.5 54.6378C1211.78 54.9124 1212.22 54.9124 1212.5 54.6378L1219.73 47.4005V48.5156C1219.73 48.9042 1220.05 49.2188 1220.44 49.2188C1220.83 49.2188 1221.14 48.9042 1221.14 48.5156V45.7031C1221.14 45.6801 1221.14 45.6568 1221.14 45.6339C1221.14 45.6224 1221.13 45.6112 1221.13 45.6C1221.13 45.5887 1221.13 45.5773 1221.13 45.5662C1221.12 45.5524 1221.12 45.5392 1221.12 45.5259C1221.11 45.5173 1221.11 45.5085 1221.11 45.4999C1221.11 45.4858 1221.1 45.4722 1221.1 45.4585C1221.09 45.4508 1221.09 45.4429 1221.09 45.4354C1221.08 45.4213 1221.08 45.4076 1221.07 45.394C1221.07 45.3871 1221.06 45.3801 1221.06 45.3734C1221.05 45.3583 1221.04 45.3441 1221.03 45.3298C1221.03 45.3246 1221.03 45.3195 1221.02 45.3146C1221.01 45.2957 1221 45.2774 1220.98 45.2598C1220.98 45.2596 1220.98 45.2595 1220.98 45.2593C1220.95 45.2221 1220.92 45.188 1220.88 45.1577C1220.88 45.1575 1220.88 45.1575 1220.88 45.1573C1220.86 45.143 1220.84 45.1296 1220.83 45.117C1220.82 45.1137 1220.82 45.111 1220.81 45.1078C1220.8 45.0989 1220.78 45.0901 1220.77 45.082C1220.76 45.0784 1220.75 45.0754 1220.75 45.0721C1220.73 45.0654 1220.72 45.0588 1220.71 45.0529C1220.7 45.0498 1220.69 45.0474 1220.68 45.0445C1220.67 45.0394 1220.65 45.0342 1220.64 45.03C1220.63 45.0275 1220.62 45.0256 1220.61 45.0233C1220.6 45.02 1220.59 45.0161 1220.57 45.0135C1220.56 45.0114 1220.55 45.0101 1220.54 45.0084C1220.53 45.0068 1220.52 45.0046 1220.51 45.0035C1220.48 45.0013 1220.46 45 1220.44 45H1217.62C1217.24 45 1216.92 45.3146 1216.92 45.7031C1216.92 46.0917 1217.24 46.4062 1217.62 46.4062H1218.74L1212 53.1464L1209.68 50.831C1209.41 50.5563 1208.97 50.5563 1208.69 50.831L1203.07 56.456C1202.79 56.7307 1202.79 57.1756 1203.07 57.4503C1203.2 57.5876 1203.38 57.6562 1203.56 57.6562Z" fill="white"/>
<path d="M1200 68.2969C1200 68.6854 1200.31 69 1200.7 69H1206.33C1206.72 69 1207.03 68.6854 1207.03 68.2969V67.3125H1200V68.2969Z" fill="white"/>
<path d="M1206.33 64.2188H1200.7C1200.31 64.2188 1200 64.5333 1200 64.9219V65.9062H1207.03V64.9219C1207.03 64.5333 1206.72 64.2188 1206.33 64.2188Z" fill="white"/>
<path d="M1208.48 68.2969C1208.48 68.6854 1208.8 69 1209.19 69H1214.81C1215.2 69 1215.52 68.6854 1215.52 68.2969V67.3125H1208.48V68.2969Z" fill="white"/>
<path d="M1216.97 64.2188H1224V65.9062H1216.97V64.2188Z" fill="white"/>
<path d="M1223.3 54.9375H1217.67C1217.28 54.9375 1216.97 55.2521 1216.97 55.6406V56.625H1224V55.6406C1224 55.2521 1223.69 54.9375 1223.3 54.9375Z" fill="white"/>
<path d="M1216.97 58.0312H1224V59.7188H1216.97V58.0312Z" fill="white"/>
<path d="M1216.97 61.125H1224V62.8125H1216.97V61.125Z" fill="white"/>
<path d="M1216.97 68.2969C1216.97 68.6854 1217.28 69 1217.67 69H1223.3C1223.69 69 1224 68.6854 1224 68.2969V67.3125H1216.97V68.2969Z" fill="white"/>
<path d="M1208.48 64.2188H1215.52V65.9062H1208.48V64.2188Z" fill="white"/>
<path d="M1214.81 61.125H1209.19C1208.8 61.125 1208.48 61.4396 1208.48 61.8281V62.8125H1215.52V61.8281C1215.52 61.4396 1215.2 61.125 1214.81 61.125Z" fill="white"/>
</g>
<defs>
<clipPath id="clip0_2153_7608">
<rect width="24" height="24" fill="white" transform="translate(1200 45)"/>
</clipPath>
</defs>
</svg>
