<svg width="20" height="21" viewBox="0 0 20 21" fill="none" xmlns="http://www.w3.org/2000/svg">
<path d="M9.99199 2.1665C5.39199 2.1665 1.66699 5.89984 1.66699 10.4998C1.66699 15.0998 5.39199 18.8332 9.99199 18.8332C14.6003 18.8332 18.3337 15.0998 18.3337 10.4998C18.3337 5.89984 14.6003 2.1665 9.99199 2.1665ZM15.767 7.1665H13.3087C13.0478 6.13438 12.6616 5.13808 12.1587 4.19984C13.6788 4.72317 14.9596 5.77627 15.767 7.1665ZM10.0003 3.8665C10.692 4.8665 11.2337 5.97484 11.592 7.1665H8.40866C8.76699 5.97484 9.30866 4.8665 10.0003 3.8665ZM3.55033 12.1665C3.41699 11.6332 3.33366 11.0748 3.33366 10.4998C3.33366 9.92484 3.41699 9.3665 3.55033 8.83317H6.36699C6.30032 9.38317 6.25032 9.93317 6.25032 10.4998C6.25032 11.0665 6.30032 11.6165 6.36699 12.1665H3.55033ZM4.23366 13.8332H6.69199C6.95866 14.8748 7.34199 15.8748 7.84199 16.7998C6.3203 16.2794 5.03852 15.2255 4.23366 13.8332ZM6.69199 7.1665H4.23366C5.03852 5.77415 6.3203 4.72031 7.84199 4.19984C7.33901 5.13808 6.95281 6.13438 6.69199 7.1665ZM10.0003 17.1332C9.30866 16.1332 8.76699 15.0248 8.40866 13.8332H11.592C11.2337 15.0248 10.692 16.1332 10.0003 17.1332ZM11.9503 12.1665H8.05032C7.97532 11.6165 7.91699 11.0665 7.91699 10.4998C7.91699 9.93317 7.97532 9.37484 8.05032 8.83317H11.9503C12.0253 9.37484 12.0837 9.93317 12.0837 10.4998C12.0837 11.0665 12.0253 11.6165 11.9503 12.1665ZM12.1587 16.7998C12.6587 15.8748 13.042 14.8748 13.3087 13.8332H15.767C14.9596 15.2234 13.6788 16.2765 12.1587 16.7998ZM13.6337 12.1665C13.7003 11.6165 13.7503 11.0665 13.7503 10.4998C13.7503 9.93317 13.7003 9.38317 13.6337 8.83317H16.4503C16.5837 9.3665 16.667 9.92484 16.667 10.4998C16.667 11.0748 16.5837 11.6332 16.4503 12.1665H13.6337Z" fill="white"/>
</svg>
