<svg width="165" height="34" viewBox="0 0 165 34" fill="none" xmlns="http://www.w3.org/2000/svg">
<path d="M28.6138 14.8902C28.3226 11.307 27.4125 7.88863 24.7315 5.00378C22.1962 2.27848 18.4206 0.630744 14.7177 0.544434H13.8987C10.7575 0.641205 7.65271 1.77631 5.16941 3.90006C1.98404 6.62798 0.109213 10.6819 0.0130015 14.8771C0.00520062 14.9948 0 15.1151 0 15.2328V33.4756H8.4458V14.9399C8.4458 9.02896 17.0268 6.77706 19.5751 12.3114C20.2486 13.776 20.2616 15.4499 20.2616 17.0663C20.2616 22.5352 20.2668 28.0067 20.2694 33.4756H28.7152V22.6816C28.7152 20.0871 28.8218 17.4455 28.6138 14.8876V14.8902ZM26.1851 20.1996C26.2059 25.0486 26.2007 30.9282 26.1799 30.9282H22.8021C22.8021 27.6405 22.8021 24.3503 22.8229 21.0627C22.8385 18.0392 23.3196 14.6077 22.152 11.7386C20.3552 7.3263 15.0376 5.26271 10.7341 7.33415C7.10664 9.07866 5.9287 12.6801 5.9105 16.4333C5.8871 21.2641 5.9105 26.0974 5.9105 30.9308H2.5327V15.2354C2.5327 15.1753 2.5327 15.1177 2.5379 15.0576L2.5431 14.9687C2.81353 9.38728 6.40716 4.59316 11.9016 3.2802C18.665 1.66385 25.4414 7.22692 26.1071 13.9617C26.1487 14.375 26.1721 17.0741 26.1877 20.2022L26.1851 20.1996Z" fill="white"/>
<path d="M44.0935 5.46936C40.9809 2.26805 36.8178 0.5 32.3739 0.5L23.0752 0.520924C23.0752 0.520924 23.0882 0.52877 23.0934 0.534001C24.2219 1.24279 25.2595 2.09281 26.193 3.04745H32.3765C36.1313 3.04745 39.6522 4.54349 42.2837 7.2531C44.8372 9.88163 46.2361 13.3262 46.2361 16.9852C46.2361 17.0924 46.2361 17.2023 46.2309 17.3069C46.0619 24.8211 39.7094 30.9282 32.0749 30.9282H31.1258V33.4756H32.0749C36.576 33.4756 40.6975 31.671 43.7217 28.7521C46.7458 25.8333 48.6622 21.8081 48.7637 17.3644C48.8651 12.8972 47.2061 8.67068 44.0935 5.46675V5.46936ZM41.1655 16.368C41.3294 18.7846 40.5025 21.1124 38.8253 22.917C37.0987 24.7819 34.6492 25.8516 32.1165 25.8516H31.1232V28.399H32.1165C35.3513 28.399 38.4716 27.0364 40.6793 24.6563C42.8375 22.3233 43.9089 19.3182 43.6904 16.1901C43.2848 10.2347 38.3156 5.57136 32.3739 5.57136H28.2238C28.7595 6.37954 29.2249 7.23218 29.6176 8.11882H32.3765C36.9869 8.11882 40.8509 11.7412 41.1681 16.3627L41.1655 16.368Z" fill="white"/>
<path d="M68.3596 21.0735L67.3013 18.0788H63.1278L62.0851 21.0735H60.4131L64.4488 10.2246H66.0896L70.0784 21.0735H68.3596ZM63.6037 16.7057H66.8254L65.2003 12.1051L63.6037 16.7057Z" fill="white"/>
<path d="M79.7595 17.0614C79.7595 19.7789 77.9652 21.2592 75.8304 21.2592C74.4964 21.2592 73.5135 20.6577 72.8218 19.499V21.0735H71.3188V10.2246H72.853V14.4983C73.5577 13.4024 74.5718 12.7694 75.8304 12.7694C77.9626 12.7694 79.7595 14.2053 79.7595 17.0588V17.0614ZM78.1499 17.03C78.1499 15.071 77.0759 14.1295 75.664 14.1295C74.252 14.1295 73.1625 15.3483 72.8244 16.9856V17.0614C73.1625 18.7118 74.1896 19.9018 75.664 19.9018C77.1383 19.9018 78.1499 18.853 78.1499 17.03Z" fill="white"/>
<path d="M93.5098 12.9707L90.3478 21.0734L88.8604 21.0577L86.957 14.9611L84.8247 21.0734L83.3062 21.0577L80.4536 12.9707H82.188L84.1227 19.1589L86.2237 12.9707H87.7891L89.7081 19.1746L91.8404 12.9707H93.5124H93.5098Z" fill="white"/>
<path d="M100.996 12.9709H102.53V21.0736H100.996V19.4834C100.304 20.642 99.3396 21.2436 98.0186 21.2436C95.8708 21.2436 94.074 19.7606 94.074 17.0301C94.074 14.2996 95.8396 12.7695 98.0186 12.7695C99.324 12.7695 100.304 13.3554 100.996 14.4042V12.9683V12.9709ZM100.996 17.0301V16.9673C100.674 15.3013 99.5216 14.127 98.1565 14.127C96.7913 14.127 95.6862 15.0528 95.6862 17.0118C95.6862 18.8322 96.7445 19.8836 98.1565 19.8836C99.6438 19.8836 100.642 18.6805 100.996 17.0275V17.0301Z" fill="white"/>
<path d="M113.288 17.0614C113.288 19.7789 111.494 21.2592 109.359 21.2592C108.025 21.2592 107.042 20.6577 106.35 19.499V21.0735H104.847V10.2246H106.381V14.4983C107.086 13.4024 108.1 12.7694 109.359 12.7694C111.491 12.7694 113.288 14.2053 113.288 17.0588V17.0614ZM111.678 17.03C111.678 15.071 110.604 14.1295 109.192 14.1295C107.78 14.1295 106.691 15.3483 106.353 16.9856V17.0614C106.691 18.7118 107.718 19.9018 109.192 19.9018C110.667 19.9018 111.678 18.853 111.678 17.03Z" fill="white"/>
<path d="M126.237 15.6569C126.237 19.0204 123.905 21.0735 120.759 21.0735H117.675V10.2246H120.759C123.92 10.2246 126.237 12.3091 126.237 15.6569ZM120.774 19.669C122.984 19.669 124.594 18.2331 124.594 15.7171C124.594 13.201 122.953 11.6265 120.79 11.6265H119.256V19.6664H120.774V19.669Z" fill="white"/>
<path d="M128.861 9.5C129.412 9.5 129.888 9.91586 129.888 10.5043C129.888 11.0928 129.428 11.5217 128.861 11.5217C128.323 11.5217 127.85 11.0902 127.85 10.5043C127.85 9.91847 128.31 9.5 128.861 9.5ZM128.094 21.0734V12.9707H129.628V21.0734H128.094Z" fill="white"/>
<path d="M138.36 12.9709H139.894V21.0108C139.894 23.111 138.037 24.4841 135.645 24.4841C134.34 24.4841 132.852 24.0971 131.963 23.4667L132.223 22.0622C133.206 22.7266 134.618 23.0796 135.661 23.0796C137.12 23.0796 138.362 22.3395 138.362 20.8722V19.3892C137.671 20.4851 136.69 21.0108 135.37 21.0108C133.237 21.0108 131.44 19.6534 131.44 16.9359C131.44 14.2185 133.206 12.7695 135.37 12.7695C136.675 12.7695 137.671 13.3554 138.362 14.4199V12.9683L138.36 12.9709ZM138.36 17.0013V16.9386C138.022 15.3039 136.901 14.1296 135.505 14.1296C134.108 14.1296 133.034 14.9639 133.034 16.9072C133.034 18.6961 134.108 19.6534 135.52 19.6534C136.932 19.6534 138.006 18.6334 138.36 16.9987V17.0013Z" fill="white"/>
<path d="M142.978 9.5C143.529 9.5 144.005 9.91586 144.005 10.5043C144.005 11.0928 143.545 11.5217 142.978 11.5217C142.44 11.5217 141.967 11.0902 141.967 10.5043C141.967 9.91847 142.427 9.5 142.978 9.5ZM142.211 21.0734V12.9707H143.745V21.0734H142.211Z" fill="white"/>
<path d="M151.494 20.7048C150.818 21.0448 150.129 21.2462 149.208 21.2462C147.69 21.2462 146.569 20.3805 146.569 18.3587V14.208H145.142V12.9735H146.569V10.6274H148.103V12.9735H151.096V14.208H148.103V18.0344C148.103 19.4232 148.717 19.8861 149.547 19.8861C150.098 19.8861 150.667 19.7632 151.187 19.486L151.494 20.7048Z" fill="white"/>
<path d="M158.983 12.9709H160.517V21.0736H158.983V19.4834C158.291 20.642 157.327 21.2436 156.006 21.2436C153.858 21.2436 152.061 19.7606 152.061 17.0301C152.061 14.2996 153.827 12.7695 156.006 12.7695C157.311 12.7695 158.291 13.3554 158.983 14.4042V12.9683V12.9709ZM158.983 17.0301V16.9673C158.661 15.3013 157.509 14.127 156.144 14.127C154.778 14.127 153.673 15.0528 153.673 17.0118C153.673 18.8322 154.732 19.8836 156.144 19.8836C157.631 19.8836 158.629 18.6805 158.983 17.0275V17.0301Z" fill="white"/>
<path d="M162.834 21.0735V10.2246H164.368V21.0735H162.834Z" fill="white"/>
</svg>
