<svg width="20" height="21" viewBox="0 0 20 21" fill="none" xmlns="http://www.w3.org/2000/svg">
<path d="M7.99989 8.49971L8.34164 7.55991C7.9765 7.42714 7.56752 7.51787 7.29278 7.7926C7.01806 8.06732 6.92733 8.47631 7.0601 8.84144L7.99989 8.49971ZM11.5555 18.2775L10.6157 18.6193C10.7574 19.009 11.1249 19.2707 11.5396 19.2774C11.9542 19.2839 12.3299 19.0339 12.4839 18.6489L11.5555 18.2775ZM13.3332 13.833L12.9618 12.9046C12.7077 13.0062 12.5064 13.2076 12.4047 13.4616L13.3332 13.833ZM17.7777 12.0553L18.149 12.9837C18.5341 12.8297 18.7841 12.454 18.7775 12.0394C18.771 11.6248 18.5091 11.2572 18.1194 11.1155L17.7777 12.0553ZM17.0706 18.9846C17.4611 19.3751 18.0942 19.3751 18.4847 18.9846C18.8753 18.5941 18.8753 17.9609 18.4847 17.5703L17.0706 18.9846ZM7.35536 2.23068C7.21241 1.69722 6.66408 1.38064 6.13061 1.52358C5.59714 1.66652 5.28057 2.21486 5.4235 2.74832L7.35536 2.23068ZM6.11369 5.32412C6.25664 5.85759 6.80497 6.17418 7.33844 6.03123C7.8719 5.8883 8.18849 5.33995 8.04554 4.80648L6.11369 5.32412ZM4.30661 8.54539C4.84008 8.68832 5.38841 8.37175 5.53136 7.83828C5.6743 7.30482 5.35772 6.75647 4.82425 6.61354L4.30661 8.54539ZM2.24845 5.92335C1.71498 5.7804 1.16664 6.09699 1.0237 6.63046C0.880761 7.16392 1.19734 7.71226 1.73081 7.8552L2.24845 5.92335ZM13.1067 4.80707C13.4973 4.41655 13.4973 3.78339 13.1067 3.39286C12.7162 3.00234 12.083 3.00234 11.6925 3.39286L13.1067 4.80707ZM9.8069 5.27848C9.41638 5.669 9.41638 6.30216 9.8069 6.6927C10.1974 7.08322 10.8306 7.08322 11.2211 6.6927L9.8069 5.27848ZM6.19289 11.7209C6.58342 11.3304 6.58342 10.6972 6.19289 10.3067C5.80237 9.91618 5.16921 9.91618 4.77868 10.3067L6.19289 11.7209ZM2.89306 12.1923C2.50254 12.5828 2.50254 13.216 2.89306 13.6065C3.28358 13.9971 3.91676 13.9971 4.30728 13.6065L2.89306 12.1923ZM7.0601 8.84144L10.6157 18.6193L12.4952 17.9358L8.93969 8.15796L7.0601 8.84144ZM12.4839 18.6489L14.2617 14.2045L12.4047 13.4616L10.627 17.9061L12.4839 18.6489ZM13.7046 14.7615L18.149 12.9837L17.4063 11.1268L12.9618 12.9046L13.7046 14.7615ZM18.1194 11.1155L8.34164 7.55991L7.65814 9.4395L17.4359 12.9951L18.1194 11.1155ZM12.6261 14.5402L17.0706 18.9846L18.4847 17.5703L14.0403 13.1259L12.6261 14.5402ZM5.4235 2.74832L6.11369 5.32412L8.04554 4.80648L7.35536 2.23068L5.4235 2.74832ZM4.82425 6.61354L2.24845 5.92335L1.73081 7.8552L4.30661 8.54539L4.82425 6.61354ZM11.6925 3.39286L9.8069 5.27848L11.2211 6.6927L13.1067 4.80707L11.6925 3.39286ZM4.77868 10.3067L2.89306 12.1923L4.30728 13.6065L6.19289 11.7209L4.77868 10.3067Z" fill="white"/>
</svg>
