<svg width="40" height="40" viewBox="0 0 40 40" fill="none" xmlns="http://www.w3.org/2000/svg">
<g clip-path="url(#clip0_2195_9341)">
<path d="M24.1386 21.3256L28.3372 16.4124C28.4264 16.3068 28.4857 16.176 28.5081 16.0355C28.5305 15.8951 28.5151 15.7507 28.4637 15.6192C28.4123 15.4878 28.327 15.3748 28.2179 15.2934C28.1087 15.212 27.9802 15.1657 27.8474 15.1598L22.4311 14.7097L19.0791 9.32391C19.0151 9.2218 18.9287 9.13814 18.8274 9.08029C18.7261 9.02244 18.6131 8.99219 18.4983 8.99219C18.3836 8.99219 18.2706 9.02244 18.1693 9.08029C18.068 9.13814 17.9815 9.2218 17.9175 9.32391L14.5656 14.7097L9.14928 15.1598C9.02 15.1734 8.89682 15.2253 8.79352 15.3098C8.69023 15.3942 8.61089 15.5078 8.56441 15.6378C8.51792 15.7678 8.50612 15.9092 8.53031 16.046C8.55451 16.1828 8.61376 16.3097 8.70142 16.4124L12.9001 21.3256L11.2276 28.0766C11.2037 28.2112 11.2147 28.3503 11.2593 28.4787C11.304 28.6071 11.3806 28.7199 11.4808 28.805C11.5811 28.89 11.7011 28.944 11.828 28.961C11.9548 28.9781 12.0836 28.9576 12.2003 28.9017L18.4983 25.2937L24.7963 28.9017C24.8974 28.9602 25.0104 28.9911 25.1252 28.9917C25.2347 28.9958 25.3434 28.9723 25.4428 28.9231C25.5422 28.8738 25.6295 28.8003 25.6975 28.7084C25.7656 28.6165 25.8126 28.5087 25.8347 28.3938C25.8569 28.2788 25.8536 28.1599 25.825 28.0466L24.1386 21.3256ZM18.8272 23.786C18.726 23.7282 18.613 23.698 18.4983 23.698C18.3836 23.698 18.2707 23.7282 18.1694 23.786L12.9491 26.7864L14.2997 21.3181C14.3294 21.1967 14.3303 21.0692 14.3022 20.9473C14.2741 20.8255 14.2179 20.7131 14.1387 20.6205L10.6818 16.54L14.9994 16.1799C15.1044 16.1708 15.2062 16.1364 15.2971 16.0792C15.3879 16.0221 15.4656 15.9437 15.5243 15.8499L18.4983 11.0942L21.4584 15.8499C21.5171 15.9437 21.5947 16.0221 21.6856 16.0792C21.7765 16.1364 21.8782 16.1708 21.9832 16.1799L26.3079 16.54L22.851 20.6205C22.7718 20.7131 22.7156 20.8255 22.6875 20.9473C22.6594 21.0692 22.6602 21.1967 22.69 21.3181L24.0476 26.7639L18.8272 23.786Z" fill="#0A40C6"/>
<path d="M38.7959 22.4879L35.6219 22.2479L33.6429 19.3296C33.5735 19.2259 33.4792 19.1408 33.3682 19.0819C33.2573 19.023 33.1333 18.9922 33.0073 18.9922C32.8813 18.9922 32.7573 19.023 32.6463 19.0819C32.5354 19.1408 32.4411 19.2259 32.3717 19.3296L30.4003 22.2479L27.2187 22.4879C27.0768 22.4991 26.9409 22.5492 26.8265 22.6327C26.7121 22.7161 26.6237 22.8295 26.5713 22.96C26.519 23.0905 26.5049 23.2328 26.5305 23.3708C26.5561 23.5089 26.6205 23.637 26.7164 23.7408L29.1673 26.3965L28.1854 30.0349C28.148 30.1755 28.1529 30.3237 28.1993 30.4616C28.2458 30.5995 28.3319 30.7211 28.4472 30.8117C28.5625 30.9023 28.702 30.9579 28.8487 30.9718C28.9954 30.9858 29.1431 30.9574 29.2738 30.8902L33.0111 28.9247C33.11 28.9247 37.0985 31.1753 37.0985 30.9802C37.2175 30.9843 37.3358 30.9607 37.444 30.9115C37.5521 30.8623 37.647 30.7888 37.721 30.6968C37.795 30.6049 37.8461 30.4971 37.8702 30.3821C37.8943 30.2672 37.8907 30.1483 37.8596 30.0349L36.8778 26.3965L39.3211 23.7408C39.4177 23.6356 39.4822 23.5055 39.5068 23.3656C39.5315 23.2258 39.5154 23.0819 39.4604 22.9507C39.4054 22.8195 39.3138 22.7064 39.1961 22.6244C39.0785 22.5425 38.9397 22.4952 38.7959 22.4879ZM35.4468 25.6913C35.3607 25.7839 35.2996 25.8962 35.269 26.0181C35.2384 26.14 35.2393 26.2675 35.2717 26.389L35.9111 28.7521C35.7056 28.6846 33.1938 27.2517 33.0111 27.3267C32.8208 27.2292 30.3242 28.6771 30.1035 28.7521L30.7429 26.389C30.7762 26.2682 30.7784 26.141 30.7492 26.0191C30.7199 25.8973 30.6602 25.7846 30.5754 25.6913L28.8933 23.8683L30.8875 23.7183C31.0017 23.7091 31.1124 23.6747 31.2112 23.6176C31.3101 23.5604 31.3945 23.482 31.4583 23.3882L32.9806 21.1001L34.503 23.3882C34.5675 23.483 34.6532 23.562 34.7535 23.6192C34.8537 23.6764 34.9659 23.7103 35.0814 23.7183L37.0757 23.8683L35.4468 25.6913Z" fill="#0A40C6"/>
<path d="M9.89307 22.4839L7.23323 22.2438L5.55469 19.3241C5.49563 19.2219 5.41587 19.1382 5.32242 19.0803C5.22898 19.0225 5.12472 18.9922 5.01884 18.9922C4.91296 18.9922 4.80871 19.0225 4.71527 19.0803C4.62182 19.1382 4.54206 19.2219 4.483 19.3241L2.80446 22.2438L0.112339 22.4839C-0.00801769 22.4951 -0.123271 22.5453 -0.220331 22.6288C-0.317391 22.7122 -0.392368 22.8257 -0.436745 22.9563C-0.481122 23.0868 -0.493122 23.2292 -0.471381 23.3673C-0.44964 23.5053 -0.395029 23.6336 -0.313752 23.7374L1.7586 26.3943L0.893506 30.0345C0.860763 30.1761 0.864408 30.3257 0.90399 30.4649C0.943573 30.6041 1.01736 30.7268 1.11624 30.8178C1.21512 30.9088 1.33476 30.9642 1.46039 30.977C1.58602 30.9899 1.71213 30.9597 1.82316 30.8901L4.98656 28.9237C5.07695 28.9237 8.45985 31.1753 8.45985 30.9802C8.5608 30.9843 8.66116 30.9607 8.75287 30.9115C8.84457 30.8622 8.92505 30.7887 8.98785 30.6967C9.05064 30.6047 9.09399 30.4969 9.11442 30.3819C9.13484 30.2669 9.13177 30.1479 9.10545 30.0345L8.27263 26.3943L10.3514 23.7374C10.434 23.6311 10.4887 23.4997 10.5091 23.3585C10.5295 23.2173 10.5148 23.0722 10.4666 22.9405C10.4184 22.8087 10.3388 22.6957 10.2372 22.6148C10.1356 22.5339 10.0162 22.4885 9.89307 22.4839ZM7.05246 25.6888C6.98056 25.7821 6.92989 25.8949 6.90508 26.0168C6.88027 26.1387 6.88211 26.2659 6.91043 26.3868L7.45273 28.7511C7.27196 28.6835 5.14151 27.25 4.98656 27.325C4.82517 27.2274 2.71408 28.676 2.52686 28.7511L3.06915 26.3868C3.09663 26.2653 3.09743 26.1377 3.07149 26.0158C3.04555 25.8938 2.99369 25.7814 2.92067 25.6888L1.49391 23.865L3.18536 23.7148C3.28337 23.7068 3.37851 23.6729 3.46354 23.6157C3.54856 23.5585 3.62123 23.4794 3.67601 23.3846L4.9672 21.0954L6.25838 23.3846C6.3125 23.4785 6.38415 23.5569 6.46799 23.6141C6.55183 23.6713 6.64569 23.7057 6.74258 23.7148L8.43403 23.865L7.05246 25.6888Z" fill="#0A40C6"/>
</g>
<defs>
<clipPath id="clip0_2195_9341">
<rect width="40" height="40" fill="white"/>
</clipPath>
</defs>
</svg>
