<svg width="40" height="40" viewBox="0 0 40 40" fill="none" xmlns="http://www.w3.org/2000/svg">
<g clip-path="url(#clip0_2195_9346)">
<path d="M7.51516 7.51516C10.85 4.18031 15.2838 2.34375 20 2.34375C23.6066 2.34375 27.0934 3.44086 30.0259 5.46617L27.762 5.69836L28.0012 8.02984L34.0949 7.40484L33.4699 1.31109L31.1384 1.55023L31.341 3.52609C28.0224 1.23883 24.0788 0 20 0C14.6578 0 9.63539 2.08039 5.85789 5.85789C2.08039 9.63539 0 14.6578 0 20C0 23.9994 1.17687 27.8598 3.40336 31.1637L5.34695 29.8539C5.32 29.8138 5.29383 29.7734 5.26719 29.7332C3.35453 26.8445 2.34375 23.4825 2.34375 20C2.34375 15.2839 4.18031 10.85 7.51516 7.51516Z" fill="#0A40C6"/>
<path d="M36.5967 8.83594L34.653 10.1457C34.68 10.1857 34.7061 10.2262 34.7328 10.2664C36.6453 13.1552 37.6562 16.5171 37.6562 19.9996C37.6562 24.7158 35.8196 29.1496 32.4848 32.4845C29.15 35.8193 24.7162 37.6559 20 37.6559C16.3934 37.6559 12.9065 36.5587 9.97409 34.5334L12.2379 34.3013L11.9988 31.9698L5.90503 32.5948L6.53003 38.6885L8.86159 38.4494L8.65894 36.4735C11.9776 38.7608 15.9213 39.9996 20 39.9996C25.3421 39.9996 30.3646 37.9192 34.1421 34.1417C37.9196 30.3642 40 25.3418 40 19.9996C40 16.0002 38.8232 12.1398 36.5967 8.83594Z" fill="#0A40C6"/>
<path d="M9.76435 22.4597L11.2815 21.0575C12.4309 20 12.6494 19.2874 12.6494 18.5058C12.6494 17.0116 11.3735 16.0576 9.52302 16.0576C7.93685 16.0576 6.79896 16.7243 6.18982 17.7357L7.87943 18.6782C8.20123 18.1611 8.72998 17.8967 9.31615 17.8967C10.0058 17.8967 10.3506 18.207 10.3506 18.7243C10.3506 19.0576 10.2586 19.4254 9.61498 20.0231L6.60357 22.8391V24.2643H12.8677V22.4598L9.76435 22.4597Z" fill="#0A40C6"/>
<path d="M20.0978 22.7243H21.2931V20.9198H20.0978V19.552H17.9484V20.9198H16.3163L19.592 16.2188H17.2358L13.6267 21.2416V22.7243H17.8794V24.2645H20.0978V22.7243Z" fill="#0A40C6"/>
<path d="M23.3623 25.4131L27.1552 14.5859H25.2128L21.4198 25.4131H23.3623Z" fill="#0A40C6"/>
<path d="M29.0863 19.2646V18.0233H31.2011L28.4886 24.2645H30.9713L33.8103 17.644V16.2188H27.1438V19.2646H29.0863Z" fill="#0A40C6"/>
</g>
<defs>
<clipPath id="clip0_2195_9346">
<rect width="40" height="40" fill="white"/>
</clipPath>
</defs>
</svg>
