<svg width="38" height="38" viewBox="0 0 38 38" fill="none" xmlns="http://www.w3.org/2000/svg">
<path d="M16.6345 6.29613C16.6345 5.95098 16.9144 5.67113 17.2595 5.67113H27.0342C27.3794 5.67113 27.6592 5.95098 27.6592 6.29613C27.6592 6.64129 27.3794 6.92113 27.0342 6.92113H17.2595C16.9144 6.92113 16.6345 6.64137 16.6345 6.29613ZM11.4819 7.62902C11.604 7.75105 11.7639 7.81207 11.9239 7.81207C12.0839 7.81207 12.2438 7.75105 12.3659 7.62902L14.2817 5.71316C14.5259 5.4691 14.5258 5.0734 14.2817 4.82934C14.0377 4.58527 13.6419 4.58527 13.3979 4.82934L11.924 6.30332L11.408 5.7873C11.1639 5.54324 10.7682 5.54324 10.5241 5.7873C10.28 6.03137 10.2801 6.42707 10.5241 6.67113L11.4819 7.62902ZM17.2595 13.5873H27.0342C27.3794 13.5873 27.6592 13.3075 27.6592 12.9623C27.6592 12.6171 27.3794 12.3373 27.0342 12.3373H17.2595C16.9144 12.3373 16.6345 12.6171 16.6345 12.9623C16.6345 13.3075 16.9144 13.5873 17.2595 13.5873ZM11.4819 14.3621C11.604 14.4842 11.7639 14.5452 11.9239 14.5452C12.0839 14.5452 12.2438 14.4842 12.3659 14.3621L14.2817 12.4463C14.5259 12.2022 14.5258 11.8065 14.2817 11.5625C14.0377 11.3184 13.6419 11.3184 13.3979 11.5625L11.924 13.0364L11.408 12.5204C11.1639 12.2764 10.7682 12.2764 10.5241 12.5204C10.28 12.7645 10.2801 13.1602 10.5241 13.4043L11.4819 14.3621ZM36.2712 25.4494L33.5073 27.045C33.2211 27.2103 32.9029 27.2947 32.5799 27.2947C32.4172 27.2947 32.2534 27.2734 32.0917 27.23C31.6094 27.1008 31.2068 26.7925 30.9583 26.3621L30.8826 26.2311L29.4845 26.945C29.9026 27.6078 29.8421 28.4252 29.4748 29.0568C29.2901 29.3742 29.0262 29.6477 28.71 29.8366C28.8934 30.1368 28.9908 30.4809 28.9894 30.8474C28.9866 31.607 28.5589 32.3416 27.8997 32.7189C27.5334 32.9286 27.1284 33.0099 26.7228 32.963C26.702 33.3038 26.5971 33.6386 26.4256 33.9331C26.063 34.5557 25.3953 35.0061 24.6274 34.9864C24.6192 35.3545 24.5118 35.7188 24.3269 36.0362C23.9727 36.6443 23.3282 37.0903 22.5823 37.0903C22.2425 37.0903 21.8816 36.9977 21.5177 36.7857L19.867 35.8246L19.5459 36.2811C19.1437 36.853 18.5542 37.1707 17.9081 37.1707C17.8489 37.1707 17.7892 37.168 17.7291 37.1626C16.9881 37.0961 16.3058 36.6256 15.9778 35.9587C15.2816 36.3185 14.4719 36.1875 13.8739 35.7669C13.4877 35.4953 13.1853 35.0998 13.0473 34.6445C12.4732 34.77 11.8718 34.6184 11.4012 34.2874C10.8152 33.8751 10.4222 33.1775 10.504 32.4186C10.1355 32.3799 9.77914 32.2412 9.47679 32.0286C8.63898 31.4391 8.19593 30.2663 8.97039 29.1653L9.02351 29.0898L6.95156 26.5024C6.70109 26.8593 6.33656 27.1154 5.90851 27.2301C5.74695 27.2735 5.58296 27.2948 5.42031 27.2948C5.09734 27.2948 4.77914 27.2104 4.49281 27.0451L1.72906 25.4494C0.837964 24.935 0.531557 23.7915 1.04601 22.9003L5.89664 14.4988C6.0457 14.2407 6.24773 14.0319 6.48093 13.8776V1.4541C6.48093 1.10895 6.76078 0.829102 7.10593 0.829102H30.8942C31.2394 0.829102 31.5192 1.10895 31.5192 1.4541V13.8776C31.7524 14.0318 31.9545 14.2406 32.1035 14.4987L36.9541 22.9003C37.4686 23.7915 37.1622 24.935 36.2712 25.4494ZM7.73093 2.0791V13.5788C7.97585 13.6073 8.21898 13.6848 8.4457 13.8157L11.2095 15.4114C11.64 15.66 11.9483 16.0625 12.0775 16.5449C12.158 16.8456 12.1628 17.1542 12.0948 17.4482L15.56 18.6861C17.0216 17.3796 18.0997 16.9155 20.3237 17.405C22.4086 17.864 24.1574 17.8682 25.8974 17.4104C25.8383 17.1277 25.8454 16.8327 25.9226 16.5448C26.0518 16.0624 26.3601 15.6598 26.7906 15.4114L29.5544 13.8157C29.7811 13.6847 30.0242 13.6073 30.2691 13.5788V2.0791H7.73093ZM5.95937 25.7371L10.81 17.3355C10.8916 17.1942 10.913 17.0283 10.8702 16.8685C10.8273 16.7086 10.7259 16.5756 10.5845 16.494L7.82078 14.8983C7.72406 14.8425 7.6182 14.8159 7.51374 14.8159C7.30062 14.8159 7.0932 14.9264 6.97921 15.1238L2.12859 23.5253C1.95874 23.8196 2.05992 24.1971 2.35406 24.3668L5.11789 25.9626C5.25929 26.0443 5.42523 26.0657 5.58499 26.0227C5.74484 25.9799 5.87781 25.8785 5.95937 25.7371ZM11.3204 30.8188L12.7568 28.7767L12.757 28.7763C13.1935 28.1536 12.663 27.7337 12.5523 27.6558C12.4414 27.5778 11.8663 27.2208 11.4281 27.8438L9.99273 29.8843C9.55437 30.5075 10.0852 30.9281 10.196 31.0061C10.3068 31.0841 10.8816 31.4413 11.32 30.8193L11.3204 30.8188ZM13.3669 32.9039L15.3734 30.0512L15.6785 29.6175C16.1169 28.9943 15.586 28.5737 15.4752 28.4957C15.3642 28.4177 14.789 28.0603 14.3505 28.6834L13.7797 29.495C13.7796 29.4952 13.7795 29.4953 13.7794 29.4954L13.7792 29.4958L12.3428 31.5379L11.9171 32.1432C11.4787 32.7664 12.0096 33.187 12.1205 33.265C12.2313 33.3428 12.8066 33.7002 13.245 33.0772L13.3669 32.9039ZM16.1718 33.9107C16.1723 33.9101 16.1727 33.9095 16.1732 33.9089L16.893 32.8855L17.7232 31.7052C18.1614 31.0821 17.6308 30.6616 17.52 30.5836C17.4093 30.5057 16.8348 30.1484 16.3965 30.7696L16.3959 30.7705L14.3894 33.6231L14.389 33.6237C13.9517 34.2464 14.4822 34.6667 14.593 34.7446C14.7039 34.8226 15.2792 35.1801 15.7175 34.5569L16.1718 33.9107ZM19.0397 33.4171C18.9288 33.339 18.3539 32.9818 17.9157 33.6043L17.9154 33.6047L17.1956 34.6281C17.0127 34.8882 16.9777 35.1449 17.0917 35.3909C17.2227 35.6732 17.5307 35.89 17.8407 35.9177C18.1107 35.9419 18.3405 35.8222 18.5235 35.5621L19.2432 34.5389C19.6814 33.9157 19.1505 33.495 19.0397 33.4171ZM28.1106 27.3243L20.3819 22.8506C19.6872 22.4493 19.0004 22.7385 17.9373 23.2431C17.8856 23.2675 17.8341 23.2921 17.7823 23.3164C17.7048 23.4722 17.6265 23.6395 17.545 23.8136C17.1436 24.6712 16.6886 25.6432 15.9016 26.068C14.9752 26.5679 14.1486 26.6443 13.5739 26.2827C13.3094 26.1162 12.872 25.7025 12.9148 24.8011L13.0802 21.3175C13.0877 21.1587 13.1555 21.0088 13.2698 20.8982C13.5948 20.5834 13.8865 20.296 14.1686 20.0181C14.2976 19.8911 14.4217 19.7688 14.5429 19.65L11.5369 18.5762L7.62789 25.347L9.77234 28.025L10.4057 27.1245C11.1798 26.0237 12.4331 26.0442 13.271 26.6329C13.5437 26.8246 13.7747 27.078 13.9355 27.3707C14.6637 26.9036 15.5513 27.0209 16.1943 27.4732C16.7338 27.8526 17.1097 28.4741 17.1023 29.1624C17.5095 29.1828 17.9071 29.3272 18.2394 29.5611C18.9809 30.0829 19.413 31.0614 18.9656 32.0428C19.2499 32.1058 19.5211 32.2271 19.7589 32.3945C20.4726 32.8966 20.8992 33.8217 20.5319 34.7652L22.1466 35.7054C22.8052 36.0887 23.1786 35.524 23.2468 35.4069C23.315 35.2899 23.6217 34.6869 22.9649 34.3032L22.9641 34.3027C22.964 34.3026 22.964 34.3026 22.9638 34.3025C22.9638 34.3025 22.9638 34.3025 22.9637 34.3025L20.8831 33.0911C20.5848 32.9175 20.4838 32.5349 20.6575 32.2366C20.8312 31.9383 21.2137 31.8374 21.5121 32.011L23.5927 33.2225C23.5928 33.2225 23.593 33.2225 23.593 33.2226L23.5933 33.2228C23.5937 33.223 23.5942 33.2233 23.5947 33.2235L24.2453 33.6025C24.9037 33.9857 25.2772 33.4211 25.3455 33.304C25.4137 33.1869 25.7203 32.5839 25.0635 32.2003L25.0626 32.1997C25.0625 32.1997 25.0625 32.1996 25.0624 32.1996C25.0623 32.1996 25.0621 32.1994 25.0619 32.1993L22.5113 30.7142C22.213 30.5405 22.112 30.1579 22.2857 29.8596C22.4594 29.5614 22.842 29.4604 23.1403 29.634L25.6916 31.1196L25.6918 31.1196C25.6923 31.12 25.6927 31.1202 25.6932 31.1205L26.5098 31.596C26.7848 31.7561 27.0434 31.7689 27.2787 31.6342C27.5489 31.4796 27.7384 31.1541 27.7394 30.8428C27.7405 30.5717 27.6016 30.353 27.3266 30.1929L26.6671 29.8089C26.6669 29.8088 26.6667 29.8087 26.6666 29.8086L26.666 29.8082C26.6659 29.8082 26.6658 29.8081 26.6657 29.808L24.1396 28.3372C23.8413 28.1636 23.7403 27.781 23.914 27.4827C24.0877 27.1844 24.4702 27.0835 24.7686 27.2571L27.2947 28.7278C27.9532 29.1103 28.3262 28.5455 28.3943 28.4284C28.4623 28.3112 28.7687 27.7075 28.1106 27.3243ZM30.2568 25.1471L26.4509 18.555C23.8259 19.296 21.5613 18.9575 20.055 18.6258C17.8544 18.1417 17.3153 18.6729 15.0459 20.9087C14.8246 21.1268 14.5791 21.3686 14.3171 21.6236L14.1634 24.8606C14.1533 25.0728 14.1944 25.1964 14.2396 25.2249C14.3453 25.2913 14.729 25.2807 15.3078 24.9682C15.7316 24.7394 16.0935 23.9661 16.4129 23.2838C16.5287 23.0361 16.6487 22.7802 16.7721 22.5476C16.8362 22.4269 16.9382 22.3306 17.0623 22.2732C17.1755 22.2211 17.2884 22.1675 17.4012 22.1139C18.4827 21.6004 19.7084 21.0185 21.0076 21.7684L28.4438 26.0728L30.2568 25.1471ZM35.8716 23.5253L31.021 15.1238C30.8512 14.8296 30.4736 14.7285 30.1794 14.8983L27.4156 16.494C27.2743 16.5756 27.1729 16.7086 27.13 16.8685C27.0872 17.0283 27.1085 17.1942 27.1902 17.3355L32.0408 25.7371C32.1223 25.8785 32.2554 25.9799 32.4152 26.0227C32.5752 26.0658 32.7409 26.0443 32.8823 25.9626L35.6462 24.3669C35.9403 24.1971 36.0415 23.8195 35.8716 23.5253Z" fill="#0A40C6"/>
</svg>
